<svg version="1" xmlns="http://www.w3.org/2000/svg" width="1040" height="1040" viewBox="0 0 780.000000 780.000000"><path d="M2.3 1.9L0 3.8v392.8l3.4 1.6c2.5 1.2 3.5 2.4 3.8 4.7.4 3-1.5 6.1-3.8 6.1-.5 0-1.5.4-2.3.9-1.2.8-.7 1.7 2.5 4.5 3.6 3.2 3.9 3.9 3.8 8.3-.1 5.9-2.1 10.8-5.1 12.4-1.9 1-2.3 2.1-2.3 5.6 0 5 1.7 7.3 5.3 7.3 4 0 8.7 6.4 8.7 11.8 0 6.9-5.3 13.4-9.7 11.8-.7-.3-2-.3-2.8 0-1.3.5-1.5 7.3-1.5 52.6v51.9l2.2-.7c1.3-.5 3.7-.6 5.3-.4 7.5.9 13.3.5 15.2-1.2 1.2-1.1 2.7-1.5 4.3-1.1 2.5.6 7 4.5 7 6 0 .5 1 1.3 2.2 1.8 3 1.4 3.8 3.9.9 3-1.2-.4-2.8-.2-3.6.5-.8.7-5.8 1.3-11.7 1.5-5.7.2-12.3.8-14.8 1.3-3.1.7-4.9.7-5.8 0-.9-.8-1.2.5-1.2 5.9 0 6.8 0 6.9 3.1 8 2.6 1 3 1.5 2 2.7-.6.8-2.1 1.2-3.1.9-1.9-.5-2 .1-2 16.1v16.7l2.9-3.2c2.7-2.9 3.1-3.1 6.2-2 4.3 1.5 4.3 1.5 7.8-1.5 2.6-2.2 3.1-3.3 3.1-7.1 0-3.6-.5-4.9-2.5-6.5-1.4-1.1-2.5-2.5-2.5-3.3 0-.7-.6-1.8-1.4-2.4-1.5-1.3-2.8-6.4-1.4-5.5.5.3 2-.1 3.3-1 1.3-.9 3.3-1.6 4.4-1.6 1.1 0 4.6-1 7.8-2.2 3.2-1.2 6.5-2.3 7.3-2.4 12-2 13.1-2 12.6-.7-.7 1.7-.1 1.6 2.9-.3 2.3-1.5 2.6-1.5 5.1.5 1.5 1.2 3.5 2.1 4.6 2.1 3.3 0 7.8 4.1 7.8 7.1 0 1.6.7 3.2 1.5 3.6 2 1.2.9 4.8-2.1 6.8-1.4.9-3 1.3-3.6.9-.6-.4-.8-.3-.5.3.4.6 0 1.4-.9 1.7-2.6 1-4.4.7-4.4-.8 0-3-13.9-5.3-16-2.7-.3.3-1.8 1.1-3.5 1.6-4.4 1.5-5.4 5.3-3 11.3 1 2.6 1.9 6.9 2 9.7 0 6.8 2.2 8.2 13.7 8.8 8.8.5 10.8-.1 10.8-3.2 0-2.1 6.7-9.1 8.7-9.1 1.3 0 1.5.8.7 5.7-.4 3.2-.7 7.8-.6 10.3.2 6.4-2 8.1-10 7.9-3.5 0-10.7.2-16.1.5-6.2.4-11.4.2-14-.5-2.3-.6-6.8-1.2-10-1.3-5.3-.1-6.2-.4-8.8-3.4-1.6-1.7-3.3-3.2-3.8-3.2s-1.6-.6-2.3-1.4c-.8-.7-2.4-1.7-3.6-2l-2.2-.7v22.5C0 689.6.2 693 1.5 693c.8 0 1.2.6.9 1.3-.5 1.4 2.6 4.7 4.8 5.1.7.1 1.9.5 2.7 1 .9.6 1.8.3 2.6-.7 1.6-2.2 7.5-2.2 12.3 0l3.7 1.7-2.9.4c-1.6.2-3.9 1-5.1 1.8-2.4 1.6-10.9.9-9.9-.7.3-.5-.8-.9-2.5-.9-3.9 0-8.1 4.1-8.1 7.9 0 2.7.4 2.9 4.2 3.4 2.4.3 6.6 1 9.3 1.5 4.4.9 5.2.8 6.8-.9 1-1.1 2.6-1.8 3.5-1.5 3.9 1.1 8.8 2 9.6 1.8 3.3-.9 15.7-.9 18.3.1 3 1 3.2 1.4 3.1 5.4-.2 2.4-.5 4.3-.8 4.3-.4 0-1.5.8-2.6 1.9-4.2 3.8-16.1 4.7-27 1.9-3.3-.8-4.9-.7-7.5.6-3.7 1.7-9.8 2.2-14.2 1.1l-2.7-.7V757l2.8-.6c1.5-.4 3.7-1.8 4.9-3.1 1.2-1.2 2.6-2.3 3.1-2.3s1.5-1.4 2.2-3c.7-1.7 2-3 2.9-3 .9 0 3.1-1.3 4.9-3 1.8-1.6 3.9-3 4.7-3 2.4 0 4.5 1.2 4.5 2.5 0 .8 1 1.7 2.1 2 1.2.4 1.7 1 1.2 1.4-.6.3-1.5 1.6-2.2 2.8-.6 1.3-2 2.3-3.1 2.3-1.9 0-5 4.9-5 7.8 0 2.2 4 8.2 5.5 8.2.7 0 1.6.8 2 1.7.6 1.7.7 1.7 1.9 0 .7-.9 2.3-1.7 3.5-1.7 1.2 0 3.1-.4 4.1-1 1.3-.7 2.4-.5 4 .8 1.8 1.5 2.2 2.8 2.3 8v6.2h4.4c2.3 0 4.3-.4 4.3-1 0-.5 1.4-1.3 3.2-1.8 3.2-.8 5.1-3.2 2.6-3.2-.8 0-2.4-2.1-3.5-4.8-2-4.3-2-4.9-.6-7.2.8-1.4 2.1-3 2.7-3.5.6-.6 1.7-2.1 2.3-3.5.6-1.4 1.2-2 1.2-1.4.1.6 1.4.9 3.2.6 2.7-.4 3.7.1 7 3.8 4.4 4.9 4.5 5.2 2.5 11.2-.8 2.4-1.6 5.8-2 7.5L73 780h232.4c185 0 232.5-.3 232.9-1.3.4-.9.8-.9 1.4 0 .9 1.2 6.6.6 5.8-.7-.3-.5.4-1.1 1.5-1.5 1.2-.4 2-1.5 2-2.8 0-2 0-2 1.6-.1 1.3 1.5 1.5 1.6 1 .2-.3-1.2-.1-1.5 1-1.1.9.3 1.4-.1 1.4-1.1 0-1.1.7-1.6 1.8-1.4 1.1.2 1.7-.4 1.8-1.7 0-1.1.4-3 .8-4.2.8-2.5-1.3-6.6-3.1-5.9-.6.3-1.7-.2-2.4-1-1.1-1.3-.9-1.4 1.4-.9 2.7.7 3.8-.7 1.6-2-.6-.4-.8-1.3-.5-2.1.3-.7-.2-1.7-1-2.2-.9-.5-1.2-1.5-.8-2.5.5-1.3 1.5-1.6 4.7-1.2 2.3.2 3.6.1 2.9-.1-.6-.3-1-1-.6-1.5.3-.5-.1-.9-.8-.9-1 0-.9-.3.2-1.1s1.2-1.2.3-1.6c-.7-.2-1.3-.9-1.3-1.4 0-.6.4-.8.8-.5.4.2 1.3-.4 2-1.5s.8-1.9.2-1.9c-.5 0-1 .4-1 1 0 .5-.5 1-1.1 1-.5 0-.8-.4-.5-.9.3-.5-.1-1.4-.9-2.1-1.2-1-1.5-1-1.5 0 0 .8-.2 1.1-.5.8-.8-.8.6-3.8 1.7-3.8.5 0 .6.4.3 1-.3.5.7 1.2 2.2 1.6 5.7 1.2 6.3 1.6 6.3 3.5 0 1.1.4 1.8.9 1.4.5-.3 1.2.5 1.4 1.7l.4 2.3.2-2.3c0-1.2.6-2.2 1.2-2.2.5 0-.1-1-1.4-2.3-1.3-1.2-2.2-2.7-2-3.3.2-.7-.9-1.5-2.4-1.9-2.1-.6-2.3-.9-1-1.2.9-.3 1.7-1.2 1.7-2.1 0-1.3-.2-1.4-.9-.4-.6 1-1 .9-1.4-.7-.3-1.3-.1-2.1.6-2 3.2.4 4-.1 2.7-1.6-1-1.2-.9-1.6.4-2.1 1-.4 1.5-1.3 1.1-2.1-.3-1.1-.1-1.3 1-.9.8.3 1.5.1 1.5-.4 0-.6-.6-1-1.2-1.1-.7 0-.4-.4.7-.9 2-.9 1.9-1-2.2-1.4-1.3-.2-2.6-.6-3-1-.5-.5 1.2-.6 3.7-.3s4.9.6 5.4.6c.4.1.6.8.2 1.6-.3.8-.1 1.5.4 1.5.6 0 1 .6 1 1.4 0 .8.9 1.4 1.9 1.3 1.1 0 1.9-.5 1.8-1-.1-.5.4-1.2 1.1-1.4.7-.3 1.2.3 1.2 1.5 0 1.1.9 2.2 2 2.5 2.4.6 2.7-.8.4-1.7-.8-.3-1.3-1-1-1.5.8-1.3 3.6-.7 4.7 1 .7 1.1.9 1.1.9.1 0-.7.5-1 1-.7 1.6 1 1.2 2.3-.7 2.7-1.3.3-1 .6 1 1 1.9.4 2.7.1 2.7-.8 0-.8.3-1.4.8-1.4 1.3 0 3.4 1.7 3.2 2.6-.1.4.7 1.1 1.7 1.5 1.1.5 1.2.8.4.8-1 .1-1.1.4-.2 1.4.6.8.8 1.6.5 1.9-.2.3-.7 1.8-1 3.4-.6 3.6-2.4 4.8-3.9 2.7-.8-1.1-1.8-1.4-3.1-.9-1.7.7-1.7.9.6 1.8 1.4.5 3.5 1.1 4.8 1.3 3.2.3 4 1.5 1.1 1.5-1.9 0-2.1.2-.9 1 .8.5 1.2 1.2.8 1.5-1.1 1.1-4.6-.5-5.1-2.3-.3-1.2-.5-1.1-.6.5-.1 1.7.6 2.4 2.6 2.9 2.4.7 2.5.8.8 2-1.5 1.2-2 1.1-3.1-.4-.8-1-1.3-1.2-1.4-.5 0 2.4-2 1.3-2-1.1 0-1.3-.7-2.9-1.5-3.6-1.3-1.1-1.4-1-1 .2.3.8.7 2.8.8 4.3.2 1.9.8 2.9 2.2 3.1 1 .2 3 .5 4.3.9 1.7.4 2.2.2 1.6-.6-.5-.8-.3-.9.5-.5.7.5 1.6 1.9 2.2 3.3.6 1.7 1.4 2.3 2.7 1.9 1.5-.5 1.7-.1 1.4 3.4-.2 2.2-.8 3.7-1.3 3.4-.5-.3-.7-1.6-.5-2.9.3-1.7-.1-2.6-1.4-3-1-.3-2.1-1.2-2.4-2-.3-.8-1.2-1.2-2.1-.9-.8.3-1.5.1-1.5-.5s-1.3-1.1-2.9-1.1c-2.3 0-2.9.4-2.8 1.8.1 2.1 2.7 2.6 2.7.5 0-.7.4-1.3.8-1.3 1.5 0 3 2.2 2.5 3.6-.4 1 0 1.2 1.1.8 1.1-.4 1.6-.2 1.4.7-.2.7.4 1.3 1.2 1.4 1 0 1.5 1.2 1.7 3.8.1 3.2-.2 3.7-1.5 3.2s-1.4-.3-.6.5c.9.9 1.7.9 3.2.1 1.6-.8 2.1-.7 2.6.4.3.8.2 1.5-.2 1.5-1.1 0-1.2 5.9-.1 6.6.6.3-.5 1.4-2.3 2.4-3.2 1.7-3.8 3.8-1 3.2.8-.2 2.1-.1 3 .3 1.4.5 1.4.7.2 1.5-.9.6-1.7.5-2.2-.3-.5-.8-.8-.7-.8.4 0 1.5 1.4 1.7 10.8 1.5 10.5-.1 10.7-.1 10.5-2.4-.2-1.9 0-2.1 1.5-1.3 1.9 1 2.3 1.1 5.2 1.1 1.1 0 2 .5 2 1.1 0 .6-.7.9-1.5.6-.8-.4-1.7-.2-2 .3-.4.6 22 1 60.8 1h61.5l.6-2.2c.9-3.5.7-6.8-.4-6.8-2.4 0-.7-2 1.8-2.1 2-.1 2.2-.3.7-.6-2.7-.7-4.4-3.3-4.5-6.7 0-3.2.8-3.2 1.3 0s1.7 4.4 4.4 4.4c2.2 0 2.5.4 2.1 2.5-.5 2.6.6 3.2 3.2 1.5 1.3-.9 1.3-1 0-1-1 0-1.5-1-1.5-3s.4-2.9 1.3-2.5c.6.2 1.2-.3 1.2-1.1 0-1-.6-1.4-1.5-1-.8.3-1.5.1-1.5-.4 0-.6.5-1 1-1 .6 0 1-.8.9-1.8 0-1-.3-1.2-.6-.5-.2.7-1.1 1.3-1.9 1.3-.8 0-1.4 1-1.4 2.5 0 3.4-1.8 3.2-2.6-.3-.3-1.5-.7-3.2-.9-3.9-.2-.6.1-1.4.8-1.7.7-.4 0-.4-1.5-.1-1.8.3-2.8.1-2.8-.6s.3-1 .6-.6c.3.3 1.7.2 3-.3 1.5-.6 2.4-.6 2.4 0s.4 1 1 1c.5 0 .7-.7.4-1.5-.4-1-1.3-1.3-2.7-.9-1.8.6-1.9.3-1.3-3.1.6-3.1.4-3.7-1.3-4.2-1.8-.4-1.8-.7-.6-1.9.9-1 1.2-2.6.9-4.7-.4-2.4-.3-2.8.5-1.7.9 1.2 1.1 1.1 1.1-.8 0-1.2-.5-2.2-1.1-2.2-.5 0-.7-.5-.4-1.1.5-.7 1.4-.4 2.6.7 1.8 1.6 1.9 1.6 1.3.1-.4-1.1 0-1.9 1-2.3.9-.3 1.6-1 1.6-1.6 0-.5-.5-.6-1-.3-.6.4-1.7.1-2.5-.5s-1.8-.9-2.3-.6c-.6.3-1.2-.3-1.5-1.5-.4-1.5-.3-1.8.7-.9 1 .8 1.2.4 1-1.7-.2-1.6-.1-2.2.2-1.6 1.1 2.4 2.2 1.3 2.1-2.1-.1-1.9-.5-3.2-.9-3-.4.3-.8 0-.8-.5 0-.6.7-1.1 1.6-1.1 1.3 0 1.4-.3.5-1.3-.6-.8-.8-1.7-.4-2 .3-.4-.1-.7-1-.7-1 0-1.7-.8-1.7-2 0-1.1.5-2 1-2 .6 0 1-.9 1-1.9 0-1.1.5-2.1 1-2.3.6-.2 1.2-1.6 1.3-3.1.1-1.5.9-3.2 1.7-3.7 1.3-.9 1.3-1.1.1-1.9-.8-.5-2-.7-2.8-.4-.7.3-1.3 0-1.3-.6s.6-1.1 1.3-1.1c.9 0 .9-.2-.1-.8-.6-.5-1.1-1.9-1.1-3.3.1-1.3-.1-3.1-.5-4-.4-.9 0-2.1.9-2.9 1-.8 1.5-.9 1.5-.1 0 .6-.5 1.1-1.2 1.1-.6 0-.9.3-.6.6.4.3 1.9-.1 3.5-1 1.7-.9 2.2-1.5 1.2-1.6-1.2 0-1.5-.7-1.1-2.7.5-2.5.4-2.7-1.1-1.4-2.7 2.1-2-.5.8-3.5 1.7-1.9 2.2-3 1.4-3.5-.8-.5-.7-.8.2-1.1 1.6-.5 1.9-3.9.4-5.1-.5-.5.2-.6 1.8-.3 3.6.8 3.4 0-.5-2.5-1.8-1.2-2.6-1.9-1.8-1.6 1 .3 1.6-.2 1.6-1.4 0-1.1-.5-1.9-1.1-1.9-.5 0-.2-.5.8-1.1 1.3-.7 1.6-1.8 1.2-4.1-.3-1.7-.8-3.5-1-3.9-.3-.3.4-.9 1.5-1.2 1.5-.4 1.8-1 1.3-2.4-.7-1.7-.8-1.7-1.1 0-.2.9-.8 1.7-1.3 1.7-.6 0-.7-.9-.3-2.3 1-2.9 1-7.6.1-10.7-.6-1.9-.6-2.1.2-1 1.6 2.2 1.3.6-.8-4.7-1-2.6-1.6-5.3-1.4-5.9.2-.6-.4-2.8-1.3-5-1.7-3.8-1.7-3.8-2.5-1.4-.4 1.4-.7 1.8-.8.9-.1-.9-.8-2.2-1.6-2.9-.8-.7-1.5-1.9-1.5-2.7 0-1.1.4-1.1 2-.3 1.6.9 1.8.8 1.4-.5-.3-.8-1-1.2-1.5-.9-.5.3-.9-.9-.9-2.6 0-2-.4-2.9-1.1-2.4-.7.4-.9 0-.5-1.4.4-1.3.1-2.2-.9-2.6-.9-.3-1.3-.2-1 .4.3.6-.2 1-1.2 1.1-1 0-1.3.3-.5.6.6.2 1.2.9 1.2 1.5 0 .7-.5.6-1.4-.1-.8-.7-1.4-2-1.4-2.9 0-.9-.1-2.4-.3-3.2-.3-1 .2-1.4 1.4-1.2 2.3.4 2.2-1.1-.3-3.3-1.9-1.7-2-1.7-2.9.9-.6 1.4-1.5 2.6-2.1 2.6-1.3 0-1.3-.6.1-2.9.9-1.4.8-2.5-.4-5.1-.9-1.8-1.5-3.6-1.2-4 .3-.4-.6-1.1-1.9-1.4-1.8-.4-2.5-1.4-2.8-4.1-.2-1.9-.1-3.5.3-3.5 1.6 0 3.9 1.3 3.9 2.2 0 .5.7 1.6 1.5 2.4.8.9 1.5 2.3 1.5 3.3 0 .9 1.5 3.2 3.3 5 1.7 1.9 3.2 3.6 3.2 4 0 .3 1 1.6 2.2 2.8 1.2 1.2 2.5 3.8 2.9 5.7.3 2 1 3.3 1.5 3 .5-.3.9.2.9 1.1 0 .8.4 2.3.9 3.3 1.7 3.2 5.1 11.2 5.1 12 0 .4.8 1.5 1.8 2.3.9.9 2.2 2.5 2.9 3.5 1 1.6 1.4 1.7 2.1.5.9-1.2 1.1-1.2 1.5 0 .2.8.2.4.1-.8-.2-1.2.1-2.5.7-2.8.7-.5.8-5.8.4-16.8-.9-21.9-1-212.4-.1-256.7 1.2-67 1.5-76.5 2.1-81 1.1-7.4 5.9-15.1 8.5-13.5.7.4 1-3.3 1-11.4 0-11.1-.2-12.1-1.8-12.1-2.8 0-4.6-4.2-4.3-10.1.1-2.1.7-2.8 3.1-3.3l3-.6v-54.2c0-42.1-.3-53.9-1.2-53-1.5 1.5-3.8 1.6-3.8.1 0-3.8-6.2-5.1-15.6-3.4-4.6.8-10.4-1.4-10.4-4 0-.8-2-3.5-4.5-5.9-4.8-4.9-5.3-6.4-3.1-9.9 1.5-2.3 1.9-4.4 1.7-8.9-.1-3.5-3.8-4.7-10.6-3.6-10.2 1.9-15.9.7-17.4-3.5-1.1-3 1.7-8.1 6-11 3-2 3.4-2.8 3.4-6.9.1-5.2 1.6-7.5 7-10.4 1.9-1 3.5-2.5 3.5-3.2 0-1.8-6.7-8-9.4-8.8-2.6-.7-8.9-3.7-9.6-4.5-.3-.4-1.5-1-2.8-1.3-1.4-.5-2.9-2.3-3.8-4.7-.9-2.1-2-3.9-2.5-3.9-.8 0-1.2 1.5-.6 2.4.1.3-2.8 3.4-6.6 7-3.7 3.7-6.7 7.5-6.7 8.5 0 1.1-.3 2.6-.6 3.5-.4 1 .6 2.7 2.7 4.7 2.8 2.6 3.1 3.3 2.1 5-.7 1-.9 1.9-.5 1.9 5.6.3 9.2 21 4.5 26.2-.8 1-1 1.8-.5 1.8.6 0 1.2 1 1.2 2.2.5 8.1.3 9.2-1.9 10.8-3.6 2.4-8.5 7.4-8.9 9-.2.8-.5 3.7-.7 6.4-.1 2.7-.7 5.2-1.3 5.5-2.1 1.3-1.7 5.5.6 6.5 1.7.8 2.2 2.1 2.6 6.1.2 3-.2 6.2-1 7.9-1 2.2-1 3.2-.2 3.7.8.4.5 1.6-1 3.6-1.8 2.4-2 3.4-1.1 5.7.5 1.5 1 5.9 1 9.7 0 3.8.4 6.9.9 6.9s1.1.8 1.3 1.7c.3 1 3.4 3.3 7 5.1 5.9 3 7 3.2 11.8 2.6 3.7-.5 6.1-1.4 7.6-3.1 2.9-3.1 7.1-3.1 8.6.2.6 1.4 1.5 2.5 2.1 2.5.5 0 .6 1.1.3 2.4-.4 1.5-.1 2.6.7 2.9 2 .9-3.9 5.6-6.2 5-1-.3-2.9.1-4.1.7-1.6.9-2.5.9-3.3.1-1.7-1.7-5.1-1.3-6.4.9-.7 1-2.2 2.4-3.4 3.1-1.2.6-1.9.7-1.5.1.5-.9-1.4-2.2-3.2-2.2-.4 0-.8 5.5-.9 12.3-.3 11.7 1.5 29.2 3.7 36.7 1.5 5 1.2 12.4-.6 19.8-1.7 6.7-1.2 21.2.7 21.2.5 0 .9 1.5.9 3.4s.4 4.6.9 5.9c1.1 2.8 2.1 72 2.3 159.2.1 33.5.4 61.4.6 61.8.2.5.3 6.1.2 12.5-.2 6.5-.3 17.2-.4 24-.1 6.9-.5 12.6-1.1 13-2.2 1.5-1.4 4.5 2.5 9.9 2.8 4 3.8 6.2 3.4 7.7-.6 1.9-.6 1.9 1 .3 2.6-2.5 2.8-2.1 1.1 1.9-1.8 4.3-1.8 4.4-.5 4.4.6 0 .9-.6.8-1.3-.2-.6.3-1.1 1-.9.8.1 1.1-.2.8-.7-.3-.5.5-.4 1.8.2 1.7.8 2.2 1.5 1.5 2.3-.7.8-.6 1.5.2 1.9.6.4 1.5.1 2-.6.6-1 .9-.6.9 1.3 0 1.5.4 3 1 3.3.5.3 1.5 1.5 2 2.5.8 1.6.8 1.8-.5 1.4-1.5-.6-1.5-.4-1.9 6.9-.1 1.1-1 2.5-2.1 3.3-1.9 1.4-1.9 1.4.1 1.4 1.6.1 1.7.2.4 1.3-1.4 1.1-1.5 1.9-1.1 5.2.1.5.6.3 1.1-.5.6-.9 1-1 1-.3s-.9 1.7-2 2.3c-1.1.6-2 1.5-2 2.1 0 .6.4.7 1 .4.6-.3.7.1.4.9-.3.9-1.1 1.4-1.7 1.3-.7-.1-1.1.4-.9 1.2.2.8-.3 1.1-1.1.8-.8-.3-1.4.1-1.4.9 0 1 .6 1.3 1.6.8.9-.3 2.5-.8 3.6-1.1 1.7-.4 1.8-.3.5.9-1.8 1.6-2.2 4.8-.6 4.8.6 0 .2.7-.8 1.5-1.6 1.2-2.2 1.2-2.8.2-.5-.8-.8-.6-.8.8 0 2.7 1.5 4.9 2.9 4.1.6-.4 1.1-.2 1.1.4 0 .6-2 1.9-4.5 3s-4.5 2.4-4.5 2.9c0 1.1-7.1 5.1-8.9 5.1-.6 0-.8-.6-.5-1.4.3-.7-.2-1.6-1-1.9-.9-.4-1.6-.2-1.6.4 0 .6-.7.9-1.5.5-1.9-.7-1.9.4.1 3.2.9 1.3 1.3 2.6 1 2.9-.3.4-.6.1-.6-.5 0-.7-.4-1.2-1-1.2-1.4 0-1.2 3.7.3 4.3.7.4.6.6-.4.6-.9.1-2 .8-2.3 1.7-.3.8-1 1.2-1.6.9-.7-.4-.7.2 0 1.9.8 2.3.7 2.6-1.3 2.7-2.1.1-2 .1.3.8 2 .5 2.2.8.9 1.3-1 .4-1.9 2.4-2.3 5.2-.6 4-2.6 7.5-2.6 4.6 0-.6-.4-.9-.8-.6-.5.3-.6-.9-.4-2.6.4-2.3.1-2.9-.8-2.3-.8.5-1.1.3-.8-.6.3-.8 1.5-1.4 2.7-1.3 2.4.1 2.4.2 1.2-4.9-.9-3.6.3-5.5 1.2-2 .3 1.2.5.9.6-.8.1-1.6-.5-2.9-1.4-3.3-.8-.3-1.5-1.1-1.5-1.8 0-.8.3-.9.8-.3 1.2 1.6 3.2 1.6 3.2 0 0-.8.5-1.5 1.1-1.5.7 0 .9-1 .7-2.5-.3-1.4-.1-2.5.4-2.5s.8-1 .6-2.2c-.2-1.5-.9-2.2-2.1-2.2-1 .1-1.7-.5-1.7-1.7 0-1.1.5-1.9 1-1.9.6 0 1 .4 1 1 0 1.6 1.7 1.2 2.4-.6.3-.8-.1-2.2-.9-3-.8-.9-1.5-2.2-1.5-3 0-1.6-1.6-1.9-2.5-.4-.8 1.3-4.5-1-4.5-2.8 0-.7-.8-1.2-1.7-1-1 .2-1.8.8-1.8 1.5 0 .6-.3 1.5-.8 1.9-.4.4-.7 0-.7-.9s-.4-1.9-1-2.2c-.6-.3-.7.1-.4.9.4 1.1 0 1.6-1 1.6s-1.6.9-1.6 2.2c-.1 1.3-.8 3.4-1.6 4.8l-1.5 2.5.5-3.5c.2-1.9.2-2.9-.1-2.3-1 2.5-2.4 1.2-2.3-2 .1-1.7.1-3.5 0-4-.1-.4-.3-1.1-.4-1.6-.2-1.9-1.6-2.4-3.1-1.1-1.2 1-1.5 1-1.5 0 0-.9-.4-.9-1.7.1-.9.8-1.8 1.3-2 1.1-.5-.3-.5.7 0 2.1.4.9.6.9.6-.1.1-.7 1.5-1.2 3.7-1.2 2.8 0 3.5.4 3.2 1.7-.2.9-.9 1.8-1.7 2.1-.9.3-1.1 0-.6-.8.5-.9.4-1.1-.3-.6-.7.4-1.2 1.4-1.2 2.2 0 .8-.3 1.4-.7 1.4-.5 0-.8 1.5-.9 3.4 0 2.7.4 3.6 2 4 2 .5 3.9-1.1 3-2.6-.3-.4-.1-.8.5-.8.5 0 .9 1.4.9 3.1-.1 2-.4 2.6-.9 1.7-.7-1-.9-.9-.9.4 0 1.1-.7 1.8-1.7 1.8-1.5 0-1.6-.2-.3-1 1.2-.8 1.1-1-.7-1-1.2 0-2.8-.3-3.7-.6-1.1-.4-1.6-.1-1.6 1.1 0 1 .5 1.5 1.3 1.2 1.5-.6 2.1 2.9.6 3.8-.5.4-.9.1-.9-.6 0-.8-.4-.8-1.6.2-1.3 1.1-1.4.9-.9-1.7.4-1.6.8-3.4 1-4 .2-.6-.2-1.1-.9-1.1s-1.3 1-1.4 2.1c0 1.2-.3 3.1-.6 4.2-.5 1.8-.1 2.1 2.2 2 2.5-.1 2.7.2 2.7 3.9 0 2.6.5 3.9 1.3 3.7.6-.1 1.2.6 1.2 1.5.1 1.2.6.8 1.6-1.2.8-1.7 1.2-2.2.9-1.1-.4 1.3-.1 1.7 1 1.2.8-.3 1.5-.1 1.5.4 0 .6-.7 1-1.6 1-1.3 0-1.4.3-.5 1.3.6.8.8 1.6.5 2-.3.3.5.3 1.8 0 2.1-.6 2.1-.5.8.9-.9.8-2.2 1.7-3 2.1-1.2.4-1.2.6.2.6.9.1 2-.4 2.3-.9.3-.6 1.1-1 1.7-1 .7 0 .6.6-.2 1.5s-.8 1.5-.2 1.5c.6 0 1.3-.6 1.5-1.3.3-.6.6-.3.6.8.1 1.5.3 1.7 1.4.6 1-1 .9-1.4-.5-2.2-2.3-1.3-3.9-8.8-1.7-8.1 1 .2 1.2-1.2.2-2.1-.3-.4-1.2-.2-2 .4-1 .9-1.3.6-1.3-1.5 0-1.8.5-2.6 1.8-2.6 1 0 1.3-.3.6-.8-1.5-1-3-5.7-1.5-4.8 1 .6 1.6-1.3 1.2-3.7 0-.4.6-.7 1.4-.7.8 0 1.5.7 1.5 1.5s1.5 2.1 3.4 2.9c4.4 1.9 5.3 3.4 2.4 4.5-1.3.6-1.7 1-1 1 1.7.1 1.5 4.8-.2 5.4-1.7.7-3.6-1.1-3.6-3.5 0-1.9-1.5-2.4-2.4-.9-.3.5.1 1.4.9 2.1.8.7 1.5 1.8 1.5 2.6 0 .7.9 1.6 2.1 1.9 1.4.5 1.8 1.2 1.3 2.3-.4 1-.9 2.9-1.2 4.4-.2 1.6-.9 2.8-1.6 2.8-.6 0-.6.4.3.9 1 .6 1.1 1.3.2 2.9-.6 1.1-1.1 3-1.1 4.1 0 1.2-.4 2.1-1 2.1-.5 0-1-.6-1-1.4 0-2.1-2-3-3.3-1.7-.8.8-.6 1.1.6 1.1 2.1 0 2.2 1.4.2 3.4-2.1 2-1.9 2.9.3 1.7 1.5-.8 1.9-.6 2 .7.1 1.8-1.6 11.4-2.5 14.7-.6 1.9-.6 1.9-1.4-.3-.5-1.2-1.5-2.2-2.4-2.2-.8 0-1.5-.5-1.5-1.1 0-.6.9-.8 2-.4 1.7.6 1.9.3 1.1-1.7-.4-1.3-.6-2.9-.4-3.6.6-1.6-2.2-1.5-3.6.2-.9 1.1-.8 1.5.6 2 1.4.6 1.5.9.4 1.6-.8.4-1.2 1.7-.8 2.9.3 1.2.1 2.1-.4 2.1s-.9-.5-.9-1c0-.7-.7-.7-2.1.1-2.1 1.1-2.1 1.1.5 3.8 3.1 3.2 3.2 3.8.9 6.3-1.1 1.2-1.2 1.8-.4 1.8.7 0 1.2 1 1.1 2.2-.3 3.8-.1 4.8 1.2 4.6.6-.2 1.4.6 1.6 1.6.3 1.5 0 1.8-1.6 1.4-1.8-.5-1.9-.3-1.3 1.6 1.2 3-1.2 5.2-3.3 3.1-2-2.1-3.6-1.9-3.6.4 0 1.9 3.5 3.9 4.7 2.7.9-.8 3.5 3.2 2.9 4.3-.9 1.4-5.7 2.3-6.9 1.3-.7-.5-2-.8-2.9-.7-1 .2-1.8 0-1.8-.3 0-.4-1.7-.8-3.7-1-7.6-.5-13.1-2-16.7-4.5-2.5-1.8-2.9-1.8-2.3-.4.3.9.2 1.9-.3 2.2-.6.4-1 0-1-.7 0-.9-.3-.9-1 .2-.9 1.4-1.5.7-1.1-1.4.2-1.1-1.9-2.6-3.6-2.6-.7 0-1.3.5-1.3 1 0 .6.5.9 1.1.8.6-.2 1.4.3 1.6 1 .6 1.6-5 1-7.1-.7-.7-.6-1.6-.8-2-.4-1.1 1.1-4 1-4.8-.2-.5-.6-.8-.6-.8.1s-1.3 1-3 .8c-1.9-.2-3 .1-3 .9-.1.8-.5.6-1.3-.4-1.1-1.5-7.7-2.3-7.7-.9 0 .3-2 .2-4.5-.4-2.5-.6-4.5-1.6-4.5-2.2 0-.7-.7-1.5-1.6-1.8-1.4-.5-1.5-.4-.5.8.8 1 .9 1.6.1 2.1-.5.3-1 .2-1-.3s-1.4-.9-3.1-.9c-2.2 0-3.9-.9-6.1-3.4l-3-3.4.5 2.7c.2 1.5 0 2.5-.4 2.2-.5-.3-.9-1.2-.9-2s-.6-1.4-1.4-1.4c-.8 0-1.6-.7-2-1.5-.6-1.8 2.5-2.1 5.4-.5 1.5.8 2.1.4 3.4-2.3 1.1-2.3 1.6-2.7 1.6-1.3 0 1.5.3 1.7 1.1.9.8-.8 2-.8 3.5-.3 3.1 1.2 3.2-.7.2-2-1.3-.5-1.7-.9-1-.9.6-.1 1.2-.8 1.2-1.7 0-2.5 1.7-.7 2.3 2.6.6 2.8 3.7 4.4 3.7 1.9 0-.5-.4-.7-1-.4-.5.3-1 .2-1-.4 0-.5.9-.9 2.1-.8 1.5.1 1.9.6 1.4 2.2-1.2 3.9-1 4.9 1.5 5.6 4.6 1.3 9 1 9-.6 0-.8.4-1.5.9-1.5s.7.9.4 2c-.5 1.7 0 2 2.6 2 3.8 0 3.4-.1 7.1 1 1.6.5 3.2.5 3.5 0 .8-1.3 19.9-.2 27.3 1.5 1.7.4 2.3.2 2-.7-.3-.7-1.3-1.3-2.3-1.3-1 0-2-.5-2.2-1.2-.2-.6-1.7-.9-3.6-.7-2.6.4-2.9.2-1.4-.6 2.3-1.5 2.2-2.5-.5-3.8-1.7-.8-1.9-1.1-.7-1.1.9-.1 2-.8 2.3-1.7.9-2.2.8-2.4-.9-1.8-.8.4-1.2 1.1-.8 1.7.4.6 0 .8-.9.4-.9-.3-2.1 0-2.7.6-.8.8-1.1.8-1.1-.1 0-.7-.6-1.2-1.4-1.2-.7 0-1.6-1-1.9-2.2-.8-2.7-.8-2.7 2.5-2.1 1.7.3 2.5 1 2.1 1.9-.6 1.6 1.3 1.9 2.2.3.4-.6-.2-1.9-1.4-3-1.6-1.5-2-2.7-1.5-4.7.8-3.2 2.3-6.2 2.4-4.5 0 .6.8 1.4 1.8 1.6 1.4.4 1.3.5-.4.6-2.2.1-2.9 3.1-.7 3.1.7 0 1.3.9 1.3 2s.4 2 1 2c.5 0 .7-.7.4-1.5-.4-.8-.1-1.5.5-1.5s1.1.7 1.1 1.5.4 1.5.9 1.5c.9 0 .9-.7-.5-5-.4-1.4-.6-2.7-.5-2.9.2-.2-.3-.8-1.1-1.2-1-.7-1-.9 0-.9.6 0 1.2-1.1 1.2-2.5 0-1.9.5-2.5 2.1-2.5 1.9 0 2.1-.4 1.6-3.8-1-6.2-1.2-6.9-3-9.3-1.6-2.1-1.6-2.1-.7-.2.5 1.2 1 3 1 4-.1 1.7-.1 1.7-1.5-.1-.8-1-1.2-2.2-1-2.7.3-.4.1-1-.5-1.4-.6-.3-1.1.4-1.1 1.7-.1 1.8-.2 1.9-.6.5-.5-1.8-.6-1.8-2.4-.1-1.5 1.3-1.9 1.4-2 .3 0-.8-.4-.6-.9.6-.8 1.8-.9 1.7-.9-.7-.1-2-.5-2.6-1.6-2.2-.9.4-1.5 0-1.5-.9 0-.8.5-1.7 1.2-1.9.8-.3.8-.9 0-2.4-.6-1-1.2-1.3-1.2-.6 0 1-.5 1-2 .2-2.4-1.3-2.7.2-.4 2.4.8.9 1.2 2.1.9 2.6-1.1 1.8-2.8.6-3.1-2-.1-1.4-.4-3.2-.6-4-.2-1.1.5-1.5 2.4-1.4 1.5 0 2.6-.3 2.5-.7-.1-.4.2-.9.7-1 .5-.2 1.6 2 2.4 4.8.8 2.9 1.8 5.3 2.3 5.3.5 0 .9-.5.9-1.1 0-.5.4-.8.8-.5.4.2 1.4.1 2.1-.4 1-.6 1.1-1.4.3-3.6-1-2.7-1-2.7-1.1-.6-.1 1.6-.6 2.2-1.7 2-2-.4-3.8-4.5-2.4-5.3.6-.4 1 .1 1 .9 0 .9.5 1.6 1.1 1.6.5 0 .7-.5.4-1-.3-.6.3-1 1.3-1 1.2 0 2.5 1.2 3.5 3.1.8 1.7 1.7 2.7 2 2.2.4-.5-.5-2.7-2-4.8-1.9-2.8-2.7-3.4-3.4-2.4-.6 1-.9 1.1-.9.1 0-.6-.4-1.1-.9-1-.5.2-1.8-.7-2.9-2-1.1-1.3-3-2.4-4.1-2.5-3.2-.2-2.5-1.7.8-1.7 1.8 0 3.1.6 3.4 1.5.4 1.1.4 1 .3-.2-.1-1-1.2-2-2.6-2.3-2.7-.5-3.8-2.9-2-4 1.2-.7.3-4-1.1-4-.4 0-.6-.6-.3-1.3.3-.8-.2-1.9-1-2.6-1.1-.9-1.9-.7-4.1 1.3-2.4 2.2-2.9 2.3-4.2 1.1-.8-.8-1.9-1.5-2.4-1.5-.6 0-.7-.5-.3-1.1.3-.6.9-.7 1.3-.3 1 1.5 3.8 1.5 5 0 .9-1.1.6-1.5-1.5-2-1.7-.5-2.3-1.1-1.8-1.6.6-.6 2.2-.5 4.3.3 2.9 1.1 3.4 1 4.9-.8 1-1.2 2.5-2.4 3.5-2.8.9-.3 1.7-1.3 1.7-2.2 0-1.3.4-1.2 2.2.5 2.7 2.4 3.2 2.1 1.6-1.1-.9-1.6-2-2.3-3.4-2.1-1.2.2-2.9-.4-3.7-1.3-.9-.9-1.9-1.5-2.2-1.5-.3 0-1.3-.4-2.3-.9-1.5-.9-1.4-1 .8-1.1 2.3-.1 2.4-.2.7-1.4-1.6-1.3-1.6-1.4.6-1.8 2-.4 2.3-.1 1.9 1.4-.3 1.3.1 1.8 1.7 1.8 2.3 0 2.9 1.5.9 2.3-.8.3-.6.6.5.6.9.1 1.7-.2 1.8-.7 0-.4.2-1.7.3-3 .2-1.2-.1-2.2-.6-2.2-.4 0-.8.4-.8 1 0 .5-.4 1-.9 1s-.7-1.5-.6-3.2c.3-2.9 0-3.3-2.1-3.4-2.8-.2-4.1-1.1-3.1-2 1-1 7.2 1 7.3 2.4.1.7.2 1.6.3 2.1 0 .5 1 1.1 2.1 1.4 1.8.5 1.9.8.8 3.1-.9 2.1-.9 2.9.1 3.9 1 .9 1.1.9.6-.4-.3-.9.1-2.2 1.1-3 1.4-1.1 1.8-1.1 3 .5.7 1.1 2 1.6 2.9 1.3 2.6-1 1.7-2.3-2.5-3.7-2.2-.7-4-1.7-4-2.2 0-.4-.7-.8-1.5-.8s-1.6-.7-1.6-1.5c-.1-.8-.3-2.4-.4-3.5-.1-1.1-.3-2.7-.4-3.5 0-.8-1-1.5-2.1-1.5-1.4 0-2-.7-2-2.1 0-2 .1-2.1 2.5-.5 1.4.9 2.5 1.2 2.5.6 0-.5.5-1 1.1-1 .8 0 .8.4-.1 1.5-1.4 1.7-.4 5.8 1.3 5.2 1.4-.5 1.2-5.6-.2-7-.5-.5-2-1.1-3.3-1.2-1.3-.1-2.9-.3-3.5-.4-.7 0-1.3-.5-1.3-1 0-.4 1.1-.6 2.5-.3 1.5.2 2.5 0 2.5-.7s.5-.9 1-.6c.6.3 1-.4 1-1.7 0-1.9-.2-2-1-.8-.9 1.3-1.2 1.3-2-.2-.6-.9-1.7-2.4-2.6-3.3-1.4-1.3-1.4-1.5 0-1.5.9 0 1.6.4 1.6 1 0 .5 1.1 1.2 2.5 1.6 1.4.3 2.5 1.1 2.5 1.6 0 1.4 2.7 3.8 3.4 3.1 1.1-1.1.6-2.3-1-2.3-1 0-1.4-.6-1.1-1.4.7-1.7-1.1-3.6-3.5-3.6-1.7 0-4.5-4.7-3.4-5.7 1.1-1.1 2.4.9 1.9 3l-.4 2.2 1.3-2.3c.8-1.3 1.8-1.9 2.3-1.3.6.5 3.7 1.8 7 3.1 5.8 2.1 7.8 2.9 15.7 6.4 2 .9 4.1 1.6 4.7 1.6.6 0 1.1.3 1.1.8 0 .4 2.8 2 6.3 3.5 9.9 4.5 10.7 5 10.7 5.9 0 .4.8.8 1.8.8s2.8.9 3.9 1.9c1.2 1.1 2.4 1.7 2.7 1.4.3-.4.6-.2.6.4 0 .6 1 1.3 2.3 1.7 1.3.3 4 1.6 5.9 3 2 1.3 4.7 2.7 5.9 3.1 1.3.4 2.7 1.3 3.1 1.9.5.7.8.4.8-.7s.4-1.5 1.2-1.1c.7.4.8.3.4-.5-.4-.6-.2-1.8.4-2.6.6-.8.9-1.8.6-2.3-.3-.6.1-2.5.9-4.4.7-1.9 1.1-4.5.8-5.6-.3-1.3-.1-2.2.6-2.2 1.8 0 3-4.2 1.7-6.3-.9-1.5-.7-2.1.8-3.2 1.8-1.4 1.8-1.5-.5-2.4-2.6-.9-5.3.4-4.3 2.1.4.6.9.6 1.4-.2.5-.9.9-.9 1.4-.1.7 1.1.4 1.3-2.4 1.5-.8.1-2.3 1.8-3.3 3.9-2 4.3-3.7 4.1-3.7-.4 0-2.8-.1-2.9-2.2-1.7-2 1-2.1 1.3-.5 1.6 2.1.4 2.1.2.1 4.1-1.8 3.7-1 5.6 1.2 2.7 2-2.8 2.6-1.5 1.3 2.5-1.5 4.4-1.8 4.7-3 2.9-.6-1-.7-.4-.2 2 .6 3.2.5 3.4-1.1 2.1-1-.8-1.5-2.2-1.3-3.2.5-2-.1-3-3-4.7-1.4-.7-2.3-.8-2.3-.2 0 2-2.1 1-3-1.5-.5-1.4-1.2-2.5-1.5-2.5-.4 0-.3.4 0 1 .8 1.2.3 1.3-2.9 0-1.4-.5-2.6-1.7-2.7-2.7 0-1.6-.2-1.5-.9.2-.9 1.9-.9 1.9-1.6-.3-.3-1.2-1.1-2.1-1.8-2-1.5.3-11.7-4.3-11.2-5.1.2-.3-.8-.6-2.2-.7-1.5 0-5.3-1.3-8.4-2.9-4.3-2.1-5.5-3.1-5-4.4.5-1.4.4-1.4-1.1-.2s-2.1.9-1.9-1c.1-.4-1-1-2.5-1.4-1.9-.4-2.3-.9-1.5-1.7.8-.8 1.5-.8 2.5 0 .8.7 1.6.9 1.9.6.3-.3 2.2.4 4.3 1.6 2.1 1.2 4 1.9 4.3 1.6.7-.7-1.9-3.7-2.7-3.1-1.1.6-5.6-3.7-6.4-6-.7-1.9-.6-1.9.7-.3 2.1 2.7 2.9 2.1 2.2-1.6-.5-2.4-.2-3.9.9-5 1.3-1.2 1.4-2 .4-3.7-1-1.9-.9-2.1.5-1.6.9.4 1.6.2 1.6-.3 0-.6.5-1 1-1 .6 0 1 .9 1 2s-.4 2-1 2c-.5 0-1 .7-1 1.5 0 1.9 1.1 1.9 3.6 0 1.1-.8 1.4-1.5.7-1.5-1.9 0-1.6-3 .3-3 .8 0 1.2-.5.8-1.1-.4-.8.1-.9 1.6-.4 1.8.6 2.1.3 1.8-1.2-.2-1 .3-2.3 1.1-2.9 1.6-1.2.9-4.4-1-4.4-.6 0-.9.6-.6 1.4.3.8-.2 1.6-1.5 1.9-1.1.3-1.7 1-1.4 1.5.3.5-.3 1.2-1.4 1.5-2.6.7-2.5-.1.4-2.8 1.8-1.7 2.1-2.6 1.3-3.4-1.5-1.5-3-1.4-2.4.2.2.6-.1 1.7-.8 2.4-1 .9-1.4.7-1.9-.9-.3-1.5.1-2.6 1.4-3.5 1.1-.8 2-1.9 2-2.5 0-.7-.4-.7-1.3.1-.8.6-1.7.8-2 .4-.4-.3-1.3 0-2.2.7-1.2 1-1.5 1-1.5-.3 0-.8.8-1.8 1.8-2.2 1.3-.6.9-1-2-1.9-2.9-.9-3.5-1.4-2.8-2.6.7-1 1-1.1 1-.3 0 .7.7 1.3 1.5 1.3s1.5-.7 1.5-1.6c0-.8-.3-1.3-.7-1.1-.5.3-1.7-.5-2.8-1.6-1.1-1.1-1.3-1.6-.5-1.2.8.5.5-.3-.7-1.7-1.3-1.3-2.3-3.2-2.3-4.1 0-.9-.7-1.7-1.5-1.7-.9 0-1.5-.9-1.5-2.2 0-1.2-.3-1.9-.6-1.5-.3.3-1.4-.3-2.5-1.4-2-2-2.6-3.4-.9-2.4.6.3 1 .1 1-.4 0-.6-.7-1.1-1.5-1.1s-1.2-.6-.9-1.3c.3-.8-1-2.5-2.9-3.9-1.8-1.5-5.3-4.6-7.8-7-5.9-5.9-14.4-11.4-19.9-12.8-6.4-1.6-10.9-3.8-15.5-7.4-5.5-4.4-10.9-7.6-12.9-7.6-.9 0-1.6-.5-1.6-1 0-.6-.6-1-1.4-1-.7 0-1.9-.7-2.6-1.5-.7-.8-2.3-1.5-3.7-1.5-1.3 0-3.4-.5-4.5-1.1-1.2-.6-4.4-1.3-7.2-1.6-4-.3-5.6-.9-7.3-3-1.9-2.3-2.5-2.5-4.6-1.6-1.9.9-2.4.8-2.4-.3 0-.8.6-1.3 1.3-1 .8.3 1.1 0 .8-.8-.6-1.5 2.4-2.6 6.8-2.6 2.8 0 5-2.1 3-2.8-1.6-.5-1.5-2.1.1-1.8 2.8.6 4.7 1.9 4.7 3.2 0 .8.4 1.4.9 1.4s1.7.7 2.5 1.6c1.5 1.4 1.8 1.4 4.2-.5 3.5-2.7 6-2.7 7.5.1 2.5 4.7 6.3 5.1 10.3 1 2.4-2.6 2.5-3 1.1-4.2-.8-.7-3.7-1.4-6.3-1.7-2.6-.2-5.9-1.2-7.4-2.3-1.5-1.1-3.1-2-3.6-2s-1.5-.7-2.2-1.5c-1-1.2-3-1.5-7.9-1.4-7.1.3-11.8-1.4-14.4-5.1-.7-1-2.4-2.3-3.8-2.8-3.4-1.3-12.5 3.2-14.2 7-1.4 3.4-2.1 3.5-4.1.6-1.1-1.5-1.2-2.5-.5-3.4.7-.8.6-1.4-.1-1.9-.7-.4-1-2-.8-3.5.3-2.1.1-2.7-1.1-2.2-1 .4-1.2.1-.6-.7.4-.8.2-1.7-.6-2.1-1-.7-1-1.1 0-2.4 1.1-1.3.9-1.6-1.3-2.2-1.4-.3-2.6-1-2.6-1.5s-.6-.9-1.3-.9c-1.2 0-2.2-1.3-5.7-7.5-2-3.6-4.2-6.4-7.7-10.1-1.3-1.3-2.3-2.8-2.3-3.3s-1.7-3-3.8-5.4l-3.8-4.4.2 8.1c.2 4.5.6 10.1.9 12.4.8 5.4-3 17.3-5.2 16.5-.7-.3-1.3.2-1.3 1.1 0 .9-.7 1.6-1.6 1.6-.8 0-1.2.4-.9 1 .3.5-.4 1-1.5 1-1.3 0-2.4-.8-2.7-2-.7-2.5-2.3-2.6-2.3-.1 0 1.1-.6 2.2-1.2 2.4-.7.3-.1.6 1.5.6 3.6.1 3.4 1-1.3 4.8-3.7 3.1-3.9 3.2-4.5 1.3-.4-1.1-1.1-1.8-1.6-1.4-.6.3-.8 1.2-.5 2 .3.8.1 1.5-.4 1.5-2 .3-2.5.4-3.7 1.2-.7.5-1.4.5-1.4 0-.1-.4-.5.8-.9 2.7l-.7 3.5-1-2.6c-1-2.4-2.7-3.2-11.2-5.5-1.7-.4-2-.9-1.2-1.7 1.4-1.4 1.4-2.2-.1-3.9-2.6-2.8-3.8-5.9-3.8-9.8 0-2.2-.4-4-1-4-.5 0-1 .5-1 1.2 0 .9-.3.9-1.1.1-.9-.9-.5-2 1.5-4.3l2.6-3.2.1 2.9c0 1.5.4 3.7.9 4.8.6 1.5.9.8.9-2.7.1-2.6.6-5 1.1-5.3.6-.4 1 .5 1 2.1 0 3.2.9 2.7 1.6-.9.5-2.8-1.7-4.7-5.5-4.7s-2.3-2.7 1.6-2.8c3.7-.2 7.4-2.2 4-2.2-.9 0-1.7-.5-1.7-1 0-.6.3-1 .8-1 1 0 3.2-5 3.2-7.2 0-1-.9-2.7-2-3.8l-2.1-2.1.7 2.5c.3 1.3.1 2.7-.5 3-.6.4-1.1 0-1.1-.8 0-2 0-2-3.8 0-3 1.5-3.4 1.4-5.8-.5-1.5-1.2-3.6-2.1-4.6-2.1-1.7 0-1.9.5-1.4 2.6.6 2.3.4 2.5-1.5 1.9-1.9-.6-2.1-.4-1.6 1.4.3 1.1.1 2.4-.4 2.7-.5.3-.9 1.5-.9 2.8 0 1.3-.8 2.7-2 3.2-1.3.6-1.7 1.3-1.1 2.2.7 1.1 1.1 1.1 2.4-.2.8-.9 2.2-1.6 2.9-1.6.9 0 .9.3.2.8-.6.4-1.7 1.7-2.3 3-.8 1.4-1.8 2.1-2.7 1.8-.8-.3-2-.8-2.7-1.1-.7-.3-3.9 2-7.1 5.1-4.7 4.6-6.9 6-11 6.9-2.8.6-5.1 1.6-5.1 2.1 0 1.9-1.6 3.3-4.5 3.9-1.7.4-3 1.1-3 1.5 0 .5-.7.7-1.5.4-.9-.4-1.5 0-1.5.7 0 1.2-.2 1.2-.9.1-.6-1-1.7-.5-4.7 2.2-2.3 2.1-6.1 4.2-9.7 5.3-3.2 1-7.1 2.9-8.5 4.3-1.5 1.3-4 2.6-5.5 2.8-1.5.2-4.9 1.7-7.6 3.3-4.5 2.8-5.5 3-13.8 3-12.6-.1-28.3-3.3-36.5-7.4-5.2-2.7-6.8-3.1-7.2-2.1-.7 1.8-3.6 1.8-3.6.1 0-.7.5-1.8 1-2.3.7-.7-.1-3.2-2.4-7.7-1.9-3.6-3.8-8.6-4.1-11.1-.4-2.5-1.1-4.3-1.6-4-.5.3-.9.1-.9-.4s-.9-1.2-2-1.5c-2.8-.7-2.7-5.3 0-6.2 1.8-.6 2-1.2 1.4-4.3-1.7-10.1-3.8-19.5-6-27.2-3-10.9-7-29.8-7.8-37.5-.4-3.3-1.6-11-2.8-17-2.9-15.8-1.6-27.7 5.7-52 1.3-4.4 3.2-10.6 4-13.8.9-3.1 2.1-5.7 2.7-5.7.6 0 .8.8.5 1.9-.4 1.5.3 2 3.7 2.5 6.4 1 13.6 1.2 13.6.3 0-.4 1.5-.4 3.3-.1 4.5.9 9.9.6 11-.5.5-.5.7-2 .4-3.3-.7-2.8-6.4-8.8-8.3-8.8-.8 0-1.4-.5-1.4-1 0-.6-.6-1-1.4-1-.8 0-1.8-.5-2.1-1-1.3-2 3.1-.9 5.9 1.5 4.2 3.6 5.3 3.1 1.7-.8-1.7-1.7-3.1-3.5-3.1-3.8 0-.4-2.2-1.6-4.9-2.8-5.9-2.5-13.9-2.8-16.7-.5-1.8 1.5-1.8 1.5.6.8 4-1.1 9.1-.7 10.9 1 1 .9 2.6 1.6 3.6 1.6 1.2 0 1.5.3.9.9-.5.6-3.5.6-7.1.2-4.5-.5-7.2-.3-9.4.6-1.8.7-3.4 1.1-3.7.8-.3-.3-.8-3.2-1-6.4-.4-5.1-.1-6.1 2.2-8.6 2.2-2.4 3.4-2.8 7.1-2.7 2.5.1 6.2 1.1 8.3 2.2 2 1.1 4.4 2 5.3 2 .9 0 3.6.7 5.9 1.5 4.5 1.6 6.2 1.3 4.2-.7-.7-.7-1.2-1.7-1.2-2.3 0-.5.5-.3 1 .5s1 1 1 .5c0-.6-.4-1.7-.9-2.4-.6-.9-.6-2.2 0-3.3.8-1.5.5-2-1.6-2.8-1.4-.5-2.5-1.4-2.5-2 0-.6-.4-.8-1-.5-.6.3-1 .2-1-.4 0-.5-1-1.3-2.2-1.7-1.3-.3-3.5-1.5-4.9-2.5-1.4-1-2.8-1.7-3-1.4-.3.2-2.1 0-4.1-.4-2-.5-4.2-.5-4.9 0-2.2 1.3-2.7.1-1.8-4.3.5-2.4 1.4-7.2 1.9-10.8 2.2-13.8 3.1-17.7 5.8-25 3.4-9.5 14.2-24.9 19-27.3 1.5-.7 2.7-2 2.6-2.8-.1-.8.6-1.5 1.5-1.5s4.1-.4 7.1-.7c3-.4 4.9-.4 4.3-.1-1.6.7.8 3.4 3.1 3.4.8 0 1.8.5 2.1 1 .4.6 1.5.8 2.5.5 2.3-.7 3.7 1.3 2 2.8-1 .9-1.2.8-.7-.6.4-1.1.3-1.6-.3-1.2-.6.3-1 1.2-1 1.8 0 .7-.9 1.9-2 2.7-2.4 1.7-2.6 3-.5 3 .8 0 1.5-.4 1.5-.8s1.5-1.4 3.3-2.2c1.7-.7 3.5-1.5 4-1.8.4-.2.4.3.1 1.1-.4 1.2 0 1.4 1.8 1 1.3-.4 2.6-1.1 3-1.7.4-.6 1-.7 1.4-.3.4.4-.3 1.8-1.6 3.2-1.8 2-2.1 2.8-1.2 3.7 1 1 1.9.5 4.1-1.9 2-2.2 3.5-3 4.9-2.6 1.1.2 3.1-.2 4.5-1.1 1.3-.9 3.2-1.4 4.1-1 .9.3 1.6.2 1.6-.3s1-.9 2.3-.8c1.2.1 2.7-.2 3.3-.6.6-.5 3-1 5.3-1.3 2.3-.2 4.4-.6 4.8-1 1.3-1.3 2.5-.5 1.3.9-1.3 1.6-.9 1.8 2.8 1.5 1.2-.1 2.2.1 2.2.5 0 1.1-2.8 3.5-4.1 3.5-.7 0-1 .3-.6.6.6.6 7.8-1.6 8.7-2.7 1-1.2 17.4-3.3 16.7-2.1-.3.4.1 1.3.9 1.9 1 1 1.6.9 2.7-.8 1.7-2.3 3-1.1 2.1 1.8-.4 1.4-.4 1.5.4.4 1.4-1.9 3.2-.5 3.2 2.7.1 2.6.1 2.6 1.5.8.8-1.1 1.5-1.4 1.5-.7s.4.9 1 .6c.6-.3 1 .1 1 .9s-.6 1.9-1.4 2.3c-1.8 1-3.2 6.3-1.7 6.3.6 0 1.1-.7 1.1-1.5 0-2.1 3.4-3.7 4.8-2.3.8.8 1.3.7 1.8-.6.5-1.2 1-1.4 1.9-.6 1.7 1.4 4.5.2 3.8-1.6-.3-.8 0-1.4.7-1.4.6 0 1 .8.8 1.8-.2 1.1.3 2.6 1.1 3.5 1.2 1.5 1.1 1.7-.3 1.7-.9 0-1.6.5-1.6 1.1 0 .5.4.8.9.4.5-.3 1.3 0 1.7.7.5.8 1.2.3 2-1.7.9-2 1.3-2.4 1.4-1.2 0 1 .5 1.5 1 1.2.6-.4.8-1 .5-1.5-.3-.4.1-1 .9-1.3 2.2-.9 2.8 2.3 1.1 4.9-.9 1.3-1.1 2.4-.6 2.4.5 0 .7 1.9.5 4.2l-.4 4.3 1-3.5c1.6-5.2 3-7.7 4.5-7.7 1.2 0 1.1.6-.1 3.5-1.8 4.5-2.5 8.2-1.4 8.2.5 0 1-.6 1.3-1.3.2-.6.6 0 .9 1.5.3 1.5.1 2.5-.3 2.2-.5-.3-1.3.6-1.8 1.9-1.2 3.2-2.4 10.7-1.4 8.7 1.8-3.5 3.9-6 5-6 .8 0 .7.9-.4 3.1-.9 1.7-1.2 3.4-.7 3.8.5.3 1 1.9 1.1 3.4.1 2.3-.3 2.7-2 2.5-1.9-.3-2 .1-1.8 5.3.1 3.2-.2 6-.7 6.3-1.2.7-.3 5.6 1 5.6.6 0 .7-1.1.4-2.5-.4-1.4-.2-2.5.3-2.5.6 0 1.5 1.9 2.1 4.1.9 3.3.9 4.4-.2 5-1 .7-.8 1 .8 1.5 1.4.4 2.8 2.2 3.9 5 .9 2.4 2.2 4.4 2.9 4.4.7 0 1.2 1.9 1.4 5.1.3 6.1.9 7.4 2.7 5.9 1-.9 1.6-.6 2.5 1 1.1 2 1.3 2.1 3 .5 1.7-1.5 1.8-1.4 1.5 3-.2 2.6-.6 4.9-.9 5.2-.3.4-.6 1.5-.6 2.5 0 1.4.6 1.7 2.4 1.4l2.5-.4-.4 13.9c-.2 8 .1 13.9.6 13.9s.9-.5.9-1.1c0-.5.4-.7 1-.4.6.3 1 2.3 1 4.3 0 2.8.3 3.3 1 2.2.8-1.3 1-1.3 1 .1 0 2 2.7 3.3 3.4 1.6.4-1.1 1 1.7.7 3.5 0 .5.4.8.9.8.6 0 1 .7 1 1.6 0 .8.4 1.2 1 .9.5-.3.9.2.8 1.2-.3 3.7.2 5.3 1.8 5.3 1.2 0 1.4-.4.6-1.3-.5-.7-.6-2.1-.1-3.2.8-2.2 1.1-1.6 1.3 3 .3 6.5 2.8 4.1 5.8-5.5.8-2.5 1.9-4.4 2.6-4.3.7.2 1.3-.4 1.3-1.2.1-.8.3-2 .4-2.5.1-.6.3-1.3.4-1.8.1-.4.7.4 1.4 1.8l1.1 2.5.4-3.2c.2-2.1.8-3 1.6-2.7.8.3 1.6-.4 1.9-1.5.3-1.4 1.1-1.9 2-1.5 1 .3 1.7-.1 2-1.3.4-1.7.5-1.7.6 0 .1 1.5.5 1.4 2.7-.8 1.7-1.7 3.2-2.4 4.5-2 1 .4 1.9.2 1.9-.3 0-1 14.1-4.2 18.8-4.2 7.2 0 13.8 5.1 16.2 12.6 1.5 4.4.7 13.8-1.4 17.9-.8 1.5-2.2 5.7-3.2 9.4-.9 3.6-2.3 7.3-3.1 8.2-.7.8-1.3 2.1-1.3 2.7 0 .7-.4 1.2-.8 1.2s-1.6 1.4-2.6 3.2c-2.2 3.7-5.3 7.4-8 9.7-1 .9-2.4 2.1-3.1 2.8-1.1 1-15.4 11.7-21.1 15.7-1.2.8-2.7 3.5-3.4 6-.7 2.5-1.7 4.6-2.2 4.6-.5 0-.7.4-.4.9.3.5 0 2.4-.8 4.1-.9 2.2-1.5 2.8-1.9 1.9-.4-.8-.3-.1 0 1.5.4 1.8.2 2.7-.4 2.3-.5-.3-.9.4-.8 1.6.1 1.5.9 2.3 2.4 2.5 2.5.4 8.3-1.6 7.7-2.7-.2-.3.7-.6 2-.6s2.4.3 2.4.6c0 .4 3.7 1 8.2 1.4 5.7.5 9.1 1.3 11 2.6 2.6 1.9 3 1.9 9.3.4 6-1.4 6.8-1.4 9.1.2 2.7 1.8 17 2.7 18 1.1.3-.4 3.1-.8 6.2-.8 7.4 0 9.2-.2 9.2-1.1 0-.4-.6-.9-1.2-1.2-1-.3-1-.8-.2-1.7 1.6-1.7 5-.8 4.6 1.2-.4 2.7 7.9 6.1 9.3 3.8.3-.5 1.7-1 3-1s2.7-.4 3-1c.9-1.5 4.3-1.2 7.2.7 2 1.3 5.2 1.9 11.8 2.1 16.4.5 20 .5 22.2-.2 1.5-.5 5 .6 11.6 3.9 9.6 4.5 14.6 5.5 16.5 3.2.6-.7 1-10.1 1.1-23.7 0-12.4.5-41.6 1.1-65 .5-23.4 1.2-53.1 1.5-66 .3-12.9.8-28.7 1.1-35 .6-12.7.1-14.9-4.5-19.8-2.8-2.8-3.7-3.2-8.6-3.2-3.5 0-5.7.5-6 1.2-.4 1-9 1.3-38.3 1.3-20.7 0-38.6-.5-39.7-.9-3-1.4-5.7-4.5-4.9-5.8.4-.6.3-.8-.3-.5-1.3.8-2.3-1.5-2.3-5.3 0-2.8-2.1-5.5-3.3-4.3-.4.3-.7.1-.7-.5 0-.5-.3-1.8-.7-2.8-.4-1-.2-1.5.3-1.1.5.3 1-.3 1-1.3s-.4-1.6-.9-1.3c-.4.2-.5-.8-.1-2.3.5-1.9.4-2.5-.5-2-.7.5-1.1 0-1.1-1.3 0-3.3-1.1-5.1-3.4-5.2-1.1 0-1.6-.3-.9-.5.7-.3.3-1.4-1.2-3-1.4-1.5-2.1-3.2-1.8-4.4.3-1.2-.9-3.8-3.3-7.2-2.2-2.9-3.8-5.4-3.6-5.5.1-.2.2-1.1.2-2.1 0-1.4-.2-1.5-1-.2-.8 1.2-1 1.1-1-.6 0-1.2-.7-2.7-1.5-3.4-.8-.7-1.2-1.6-.9-2.1.3-.5-.6-.9-2-.9-1.3 0-2.6-.5-2.8-1.2-.2-.6-2.2-1.6-4.3-2.3-3.2-.9-4-1.5-4-3.5 0-1.4-.5-2.4-1.2-2.3-.6.2-1.4-.6-1.8-1.6-.9-2.9-4.3-6.4-5.4-5.6-.6.3-1.1.1-1.1-.6 0-.6-.8-.9-2-.6-1.7.4-2 .2-1.5-1.6.4-1.2.3-1.8-.2-1.2-1.1 1.4-8.3 1.3-8.3-.2 0-1.7-3-4.4-4.1-3.8-.5.4-1.4-.5-2.1-1.9-.6-1.4-1.5-2.7-2-2.7-.4-.1-1.2-.2-1.7-.3-.5 0-1.3-.4-1.7-.8-.4-.4-1.3-.3-2.1.3-1 .9-1.3.8-1.3-.5 0-1.1-.7-1.6-2.2-1.5-4.2.4-5.8-.1-5.8-1.7 0-.8-.4-1.2-1-.9-.6.3-1 0-1-.8 0-1.7-4.8-2.9-5.6-1.5-.3.5-1.5 0-2.6-1.1-1-1.2-2.3-1.9-2.9-1.6-.5.4-.9.1-.9-.5 0-.7-.8-.9-2.1-.5-1.2.4-2.4.2-2.8-.4-.4-.6-1.8-.7-3.6-.2-1.7.4-4.9.4-7.2 0-2.4-.5-6-.9-8-1-4.2-.2-10-3.5-10.8-6.1-.3-.9-1.7-1.9-3-2.2-1.4-.4-2.5-1.1-2.5-1.6 0-1.5-6.9-4.2-13-5.1-4.4-.6-5.8-.5-7.2.8-1 .9-1.8 1.2-1.8.7s-.6.2-1.3 1.5c-1.4 2.8-4.1 4.2-3.1 1.7.4-1.1-.2-1.9-1.8-2.5-1.4-.5-3.7-2.4-5.2-4.2-1.5-1.8-4.6-4.5-6.8-6.1-2.2-1.7-4.3-3.8-4.5-4.8-.7-2.5-5.6-4.4-9.7-3.6-4 .8-7.4 4.9-5.7 7 .6.7 1.2 4.7 1.3 8.9.3 6.8.1 7.8-2.1 10.1-3.7 3.9-6.4 3.4-8.6-1.5-1.6-3.5-1.7-4.8-.7-9.7.6-3.1 1.4-8.2 1.8-11.2.3-3 1.3-6.5 2-7.8.8-1.2 1-2.2.4-2.2-.5 0-1-.6-1-1.4 0-1 .7-1.2 2.3-.8 1.9.5 2 .3.9-1-.7-.9-1-2.2-.6-3.1.4-1.1-.1-1.6-1.7-1.9-1.2-.2-2.4-.9-2.7-1.7-.3-.9.1-1.1 1.6-.7 3.2 1.1 4.1-3.2 1.2-5.4l-2.3-1.8 2.1-1.1c2.6-1.4 1.8-4.5-.9-3.8-1 .3-2-.1-2.3-.9-.3-.8-1.1-1.4-1.8-1.4-2.3 0-3.7-3.4-2.9-7.1.6-2.6 1.2-3.3 2.7-3.1 3.1.6 6.6 3.2 6 4.7-.3.9.2 1.3 1.5 1.2 1-.1 1.8-.6 1.6-1.2-.2-.5 1-2 2.7-3.3C371 7 371.8 6 371 6c-1 0-1-.4.2-1.8.9-.9 1.3-2.3 1.1-3-.4-1-34.2-1.2-169.5-1.2L33.8.1l.6 2.4c.4 1.4.2 3.1-.4 3.8-7.2 8.8-7.3 9.4-3 11.9 3.5 2 3.9 5.3 1.5 11.1-2.2 5.4-2 7.7.9 7.7 1.4 0 3.2-.7 4-1.6 2.2-2.2 6.6-1 10.1 2.6 1.9 2 3.9 3 5.8 3 2.2 0 2.8.4 2.3 1.6-.3.9-.6 2.5-.6 3.6 0 1.7-.5 1.9-3.2 1.4-2.9-.5-3.5-.2-4.9 2.2-1.5 2.6-1.4 3 1.2 7.8 2.8 5.1 2.8 5.1 3 22.9 0 4.2.5 5.5 3 8.1 3.5 3.7 3.1 5.5-1.8 8.4-2.8 1.6-4.5 1.9-7.7 1.5-5.8-.9-6.9-3.1-7.2-14-.1-5-.3-9.3-.3-9.7-.1-.5-2.1-1.7-4.5-2.9-4-1.9-4.4-2.3-4.4-5.7 0-2-.1-5.5-.2-7.6-.2-3.1.3-4.3 2.1-5.7 4.8-3.6 2.6-9.8-3.5-9.6-1.8 0-4.4-.8-5.9-1.9-2.3-1.6-2.6-2.6-2.7-7 0-4-.4-5.3-1.7-5.8-1-.3-2.3-.9-3-1.2-.6-.3-1.3.4-1.5 1.7-.2 1.4-1.1 2.3-2.5 2.5-2.6.4-3.4-.7-3.7-4.6-.2-2.1.3-3 1.7-3.4 1-.2 1.6-.9 1.3-1.5-.4-.5-.2-1.2.4-1.6C11 19.3 7.9 1.1 5.5.4c-.6-.2-2 .5-3.2 1.5zm57.3 5.3c1.1 3.3.9 4-4.1 9.3-3.5 3.8-4.2 5.2-3.4 6.6.5 1 .9 2.7.9 3.9 0 1.6-.5 2-2.5 1.6-1.4-.3-2.5 0-2.5.5s.5.9 1 .9c.6 0 1 .4 1 1 0 1.5-3.6 1.2-5-.5-.9-1.1-.9-1.9-.2-2.8 1.3-1.5 1.5-5.1.7-11.2-.5-3.8-.3-4.2 4.2-7.7 5.6-4.3 8.8-4.8 9.9-1.6zM271 27.9c1.3 2.5 1.3 2.7-.6 4.5-2.2 2.3-5.1 2-6-.6-.5-1.6-.1-2.7 1.6-4 2.8-2.3 3.7-2.3 5 .1zM74 51.5c0 5.4-.3 6.7-2 7.7-1.1.7-2 1.8-2 2.5 0 2.2-2.3 2.6-3.7.8-1.6-2.3-1.7-5.6 0-8.6 1.9-3.6 6-8.9 6.9-8.9.4 0 .8 2.9.8 6.5zm-9.4 27.9c.8.8 1.4 1.9 1.4 2.4 0 1.1 4 4.7 6.3 5.5 1 .4 1.7 1.7 1.7 3.1 0 1.8-.5 2.3-1.7 2.1-1-.2-2.6-.4-3.5-.4-1-.1-1.7-.6-1.5-1.2.1-.6-.7-1.6-1.8-2.2-1.1-.7-2.3-1.6-2.6-2.1-.4-.5-1.1-.6-1.7-.2-1.7 1.1-2.2-.9-1.1-4.7 1.1-4 2.2-4.5 4.5-2.3zm275.9 8.7c.4 1.1.4 2.3.1 2.6-.3.4-.6-.1-.6-1 0-1-.4-1.7-1-1.7-.5 0-1-.5-1-1 0-1.8 1.9-1 2.5 1.1zm-334.9.2c.8-.3 1.4 0 1.4.6S6.6 90 6.1 90s-1.6.3-2.5.6c-1.2.5-1.6 0-1.6-1.7s.3-2 1.1-1.2c.6.6 1.8.9 2.5.6zm330.1 5.3c-.1.1-1.4 0-3-.3-2.1-.4-2.5-.8-1.7-1.9.9-1 1.5-1 3 .4 1.1.9 1.8 1.7 1.7 1.8zm-8.2-.6c1.8.8 1.8.9.2.9-1 .1-1.5.6-1.2 1.2.4.6 1.4.8 2.3.4.9-.3 1.3-.3.9.1s-.2 1.3.4 2.1c1.3 1.4.9 1.6-1.6.7-1.6-.7-5.1-6.5-3.8-6.3.5 0 1.7.4 2.8.9zm403.4 2.4c-3.1 1.6-4.2 1-2.7-1.4.9-1.5 1.6-1.6 3.1-.8 1.9 1 1.8 1-.4 2.2zm-409.2-1c-.3.8.1 1.3 1.1 1.2 1.2-.1 1.7.7 1.7 2.6 0 1.4.4 3 .9 3.5s.7.1.3-1c-.8-2.1.6-2.2 2.7-.1 2 2 2.1 3 .1 1.4-1.2-1-1.5-.9-1.5.5 0 1.2-.5 1.5-1.6 1.1-1.3-.5-1.5-.2-1.1 1.3.4 1.7.1 1.8-1.7 1.1-4.5-1.8-6.1-2.3-6.8-2.2-1.1.2-3.1-2.8-2.3-3.6.4-.4 1-.1 1.2.5.3.7.9 1.3 1.5 1.3s.6-.6-.2-1.5c-1-1.2-.9-1.8.5-3.1 1.5-1.5 1.7-1.5 2.2.5.3 1.1.9 2.1 1.3 2.1.5 0 1.2.9 1.5 2.1.4 1.1.9 1.8 1.2 1.5.3-.3-.2-1.7-1.1-3.2-1.6-2.4-1.6-7.4 0-7.4.3 0 .4.6.1 1.4zm11.8 1.6c.3.5.2 1-.4 1-.5 0-1.3-.5-1.6-1-.3-.6-.2-1 .4-1 .5 0 1.3.4 1.6 1zm-15.5 9.6c1.9.4 4.2 1.4 5 2.3 1.3 1.3 1.2 1.4-.9.8-2.3-.6-10.1 2.1-10.1 3.4 0 .4 1 1 2.3 1.4 1.9.6 1.9.8.4 1.2-2.3.6-8.9-1.6-8.2-2.8.4-.5.1-.9-.4-.9-.6 0-1.1-.5-1.1-1.1 0-.7 1.1-.8 3.2-.3 2.9.6 3.1.5 1.9-.9-1.1-1.4-.9-1.5 2.5-1 2.7.4 3.5.3 3-.5-.4-.7-1.5-1.2-2.4-1.2-.9 0-2.4-.5-3.2-1.1-1.6-1 .8-.9 8 .7zm-15 3.9c0 .8-.4 1.5-1 1.5-.5 0-1-.7-1-1.5s.5-1.5 1-1.5c.6 0 1 .7 1 1.5zm3.4 4.9c1.8-.7 5.2 3.4 3.9 4.7-1.4 1.4-4.9.7-4.5-.9.1-.8-.6-1-2.2-.6-1.3.3-2.7.1-3-.5-.4-.6-.1-1.1.7-1.1.8 0 1.8-.8 2.2-1.8.5-1.1.9-1.3 1.2-.5.2.7 1 1 1.7.7zm-224.6 4.9c.2 1-.3 1.7-1.2 1.7-1.8 0-2.9-1.6-2.1-3.1.9-1.4 2.9-.6 3.3 1.4zM730 119c0 .5-.4 1-1 1-.5 0-1-.5-1-1 0-.6.5-1 1-1 .6 0 1 .4 1 1zm-662.1 2.5c.2 1.1.9 2.4 1.7 2.8 1.8 1 1.7 3.5-.1 6.7l-1.5 2.5-.6-2.3c-.3-1.2-1.2-2.2-2-2.2-.7 0-1.7-1.2-2-2.8-.4-1.5-1.1-3.3-1.7-4-.8-1-.7-1.6.4-2.3 2.2-1.4 5.3-.6 5.8 1.6zm235.1 1.4c0 .5-1.1.8-2.5.7-3.3-.1-3.3-1.6 0-1.6 1.4 0 2.5.4 2.5.9zm-6.2 4.8c-1 .2-2.6.2-3.5 0-1-.3-.2-.5 1.7-.5s2.7.2 1.8.5zm2.2 2.9c0 .2-1.7.4-3.7.4-2.4 0-3.3-.3-2.5-.9 1.2-.7 6.2-.4 6.2.5zm-230.2 8.1c.2.8-.6 1.3-2.2 1.3-2.5 0-3.3-1-1.9-2.4 1-1 3.6-.3 4.1 1.1zM364 151.3c-1.4.8-2.7 1.2-3 1-.7-.6 2.3-2.3 4-2.3.8 0 .4.6-1 1.3zm24.7 1.3c-.3.3-1.2.4-1.9.1-.8-.3-.5-.6.6-.6 1.1-.1 1.7.2 1.3.5zm26.4 5.7c-1 .9-1.1.8-.5-.6.3-1 .9-1.5 1.2-1.2.3.3 0 1.1-.7 1.8zm7.8 3.3c-1 1.2-1.4 1.2-2 .2-1.3-1.9-1.1-2.6.9-3 2.2-.5 2.7.8 1.1 2.8zm18.6 2.4c.4 1.3-.1 2.7-1.6 4.2l-2.2 2.3.6-2.3c.3-1.2.1-2-.4-1.6-.5.3-.9 0-.9-.5 0-.6.5-1.1 1-1.1.6 0 1-.7 1-1.5 0-2.2 1.8-1.8 2.5.5zm325.5 3.1c1.4 2.6.5 7.1-2.1 10-2 2.3-2 2.3-5.4.5-2.9-1.6-3.4-2.3-2.9-4.5 1.5-6.4 2.8-8.1 6.1-8.1 2.2 0 3.6.6 4.3 2.1zm-324.3 12.3c0 .8-.6 1.2-1.4.9-.7-.3-1-.9-.7-1.4.8-1.4 2.1-1.1 2.1.5zm6 16.8c-.3.8-.6.5-.6-.6-.1-1.1.2-1.7.5-1.3.3.3.4 1.2.1 1.9zm-2.5 7.6c-.9 2.6-2-.4-1.4-3.8l.6-3.5.6 3c.3 1.6.4 3.6.2 4.3zm3.8 1.2c0 1.1-.4 2-.9 2s-.7-.9-.4-2c.3-1.1.7-2 .9-2 .2 0 .4.9.4 2zm-236.3 1.6c-.3.3-1.2.4-1.9.1-.8-.3-.5-.6.6-.6 1.1-.1 1.7.2 1.3.5zm233 19.6c-.3.8-.6.5-.6-.6-.1-1.1.2-1.7.5-1.3.3.3.4 1.2.1 1.9zM68 227.7c3.4 3 3.3 5.5-.2 8.5-4.5 3.9-12.3.7-11.6-4.8.2-2.2 1.2-3.3 3.8-4.6 4.6-2.2 4.5-2.2 8 .9zm385.7 14.5c-.3.8-.6.5-.6-.6-.1-1.1.2-1.7.5-1.3.3.3.4 1.2.1 1.9zM66.5 252.8c1.4 2.2 2.3 4.6 2 5.5-.4.8-.1 2.6.6 3.8.6 1.3 1.3 4.6 1.5 7.3.4 5 .3 5.2-3.1 7-1.9 1-3.2 2.3-2.9 2.8.3.4.9.6 1.4.3.5-.3 1.8.8 2.9 2.4 1.9 2.6 2 3.8 1.5 10.7-.5 5.4-1.2 8.5-2.4 9.9-2.6 3-3.3 7.6-1.7 12.2.8 2.3 1.2 5.6 1 7.3-.4 3.6-4.3 8-7.2 8-2 0-10.1-7.9-11.2-10.9-1.1-2.8 1.7-6.1 5-6.1 5 0 6.3-4.5 2.6-9-.7-.8-1.8-3.1-2.4-5-.8-2.6-2.3-4.2-6-6.2-4.1-2.4-4.8-3.1-4.4-5.2.7-3.2 2.6-3.9 7.5-2.4 4 1.2 4 1.1 7.4-2.8 1.8-2.1 3.3-4.1 3.3-4.4.1-1-12-6-13-5.5-.5.4-.9 1.6-.9 2.9 0 1.2-1.1 3.2-2.5 4.4-1.4 1.2-2.5 2.6-2.5 3.2 0 2.5-1.7.6-3.2-3.7-1.8-4.9-1.1-7.3 1.9-7.3 2.7 0 5.1-4.1 4.7-8-.6-4.4 1.4-7 5.5-7.3 2.1-.1 3.3-.8 3.7-2.2 2-6.5 7.2-7.3 10.9-1.7zm230.2 5.4c.7-1.7 2.3-1.5 2.3.3 0 .9.7 1.5 1.6 1.3 1-.2 1.9.2 2.1.8.2.7-.6 1.2-1.9 1.2-1.3.1-3.8.4-5.5.8l-3.3.6 1.1-3.2c.9-2.4 1.4-2.9 2.1-1.8.7 1 1.1 1 1.5 0zM40 282.2c0 .4-.7.8-1.5.8s-1.5-.4-1.5-.8c0-.5.7-.9 1.5-.9s1.5.4 1.5.9zm146 11.4c0 .8-.4 1.2-1 .9-.5-.3-1-1-1-1.6 0-.5.5-.9 1-.9.6 0 1 .7 1 1.6zm5.6 7.4c.8 0 1.1.6.8 1.5-.6 1.3-5.4 2.2-5.4 1 0-1.3 2.5-4.4 2.8-3.5.2.5 1 1 1.8 1zm-152.2 9.6c.9.1 1.3-.3.9-1.3-.5-1.3-.3-1.3 1.5-.2 1.2.7 1.8 1.6 1.3 1.9-.4.3-1.3 1.5-2 2.7-1.6 3.1-4.9 3-5.7-.2-.8-3.3.3-6.6 1.6-4.5.5.7 1.5 1.5 2.4 1.6zm60.5.9c1.6.8 4.3 3.9 6 7 2.2 4 3.7 5.5 5.2 5.5 1.8 0 5.9 3.3 5.9 4.8 0 .2-.7 1.9-1.6 3.8-1.8 3.7-4.5 4.4-7.6 2-2.2-1.6-7.8-.9-7.8 1.1 0 .9-.6 1.3-1.5.9-.8-.3-1.9.2-2.4 1.2-2.3 4.1-9.5-4.6-7.7-9.3.3-.9 1.9-2 3.4-2.6 3.6-1.2 5.6-5.2 4.2-7.9-1.6-3-1.2-8 .7-8 .2 0 1.7.7 3.2 1.5zM179 327c0 1.1-.7 2-1.5 2s-2.3 1-3.4 2.1c-2.6 2.8-7.1 1.9-7.1-1.4 0-3.5 1.9-4.7 7.2-4.7 4.1 0 4.8.3 4.8 2zM75 341.8c0 3.6-4.8 13.2-6.6 13.2-.6 0-1.7.6-2.3 1.3-.6.8-2.9 2-5.2 2.7-2.3.8-4.6 2.2-5.3 3.2-.6 1-1.6 1.8-2.2 1.8-.7 0-1.7 1.4-2.3 3.1-.9 2.6-1.3 2.9-2.5 2-1-.8-1.6-.9-2.1-.1-.3.5-1.9 1-3.4 1-2.3 0-3.1-.7-4.1-3.3-.8-1.7-1.9-3.9-2.5-4.7-.7-.8-1.5-3.1-1.9-5.1-.5-3-.2-4.2 1.6-6.5 8.2-10 13.2-12.1 20.5-8.5 6.1 2.9 9.5 2.8 11.5-.7 1.1-1.8 2.4-2.7 4.2-2.7 2.3 0 2.6.4 2.6 3.3zm507 6.6c0 .8-.4 1.7-.8 2-1.4.9-1.3 7.3.1 7.9 1 .4 1.2 1.6.8 4.4-1.6 9.5-4.8-1.5-3.6-12.4.6-5.4.9-6.1 2.1-4.9.8.8 1.4 2.1 1.4 3zm17 6.1c0 1.3-.4 2.7-1 3-.6.4-1-.8-1-3s.4-3.4 1-3c.6.3 1 1.7 1 3zM67.6 368.3c1.1 1.7 2.4 4.8 2.8 6.9.5 3 .3 4.1-1.9 6.4-2 2.2-2.5 2.4-2.5.9 0-1-.5-1.5-1.4-1.2-1.7.7-7.1-4.9-8.1-8.3-.4-1.4-1.7-3.3-2.9-4.3-1.1-1-1.6-1.6-1-1.3.6.3 2-.1 3-.9s3.7-1.4 5.9-1.5c3.4 0 4.3.5 6.1 3.3zM579 380.9c0 .5-.9 1.1-2 1.4-2 .5-2.6-.3-1.3-1.6.9-1 3.3-.8 3.3.2zM58.5 394c1 1.7 1.2 8.4.3 11.7-.5 1.8-2 4.5-3.3 5.9-2.1 2.3-2.7 2.5-4.1 1.3-.9-.7-3.1-1.4-5-1.5-9-.3-13.8-14.3-6.1-17.4 3-1.2 17.4-1.2 18.2 0zm36 12.9c1.5 2.2 2.4 4.4 2.1 5-.4.6.1 2.2 1 3.6 1.6 2.4 1.5 2.6-.7 4.5-5.6 4.7-13.2 3.8-14.5-1.6-.7-2.8 1.1-10.4 2.5-10.4.4 0 2-1.1 3.5-2.5s2.8-2.5 3-2.5c.2 0 1.6 1.8 3.1 3.9zm130.7 3.1c2.3 0 2.4 4.6.1 7.2-2.3 2.6-4 2.2-5.8-1.2-1.9-3.7-1.9-4.5.1-6.5 1.2-1.1 2-1.3 2.7-.6.6.6 1.9 1.1 2.9 1.1zm206.3-1c-.3.5-1 1-1.6 1-.5 0-.9-.5-.9-1 0-.6.7-1 1.6-1 .8 0 1.2.4.9 1zM66 411.2c0 .5.9.7 2 .3 1-.3 2.9-.1 4 .5 2.1 1.1 2.1 1.2.3 2.5-2.1 1.7-5.3 1.9-5.3.5 0-.7-.7-.7-2.1 0-3.7 2.1-6.1-2.8-2.6-5.2 1.3-.8 3.7.1 3.7 1.4zm41.6 7.5c-.3 2.3-.9 2.9-3.5 3.1-3.3.3-3.8-.6-2.1-3.9.6-1.1 2.1-1.9 3.5-1.9 2 0 2.3.4 2.1 2.7zm-65.2 7.8c.9 1.3 1.6 3 1.6 3.7 0 2.3-5 6.8-7.5 6.8-1.3 0-3 .2-3.7.5-1 .4-1.7-.7-2.5-4-.9-4.1-.8-4.9 1.1-7 3-3.4 8.7-3.4 11 0zm225.7 9.6c3.5 2.5 3.6 3.5.7 6-3 2.4-4.6 2.4-6.9-.4-2.3-2.8-2.4-5.3-.1-6.6 2.4-1.5 3-1.4 6.3 1zm171.6 5.1c-.3.7-.5.2-.5-1.2s.2-1.9.5-1.3c.2.7.2 1.9 0 2.5zm-404.8 1.2c2.1 2.5 2.5 8.3.8 11-1.4 2.1-2 2.3-5.4 1.6-3.7-.9-6.3-3.2-6.3-5.6 0-1.9 6.2-8.4 8.1-8.4.9 0 2.2.6 2.8 1.4zM530 454.3c1.3.5 1.3.6-.1.6-.8.1-2.4-.6-3.5-1.5-1.9-1.5-1.9-1.5.1-.6 1.1.5 2.7 1.2 3.5 1.5zm5.3 1.8c2.1 0 2.1.1.2.8-2 .8-3.5-.3-3.4-2.4 0-.6.3-.4.6.2.2.7 1.4 1.3 2.6 1.4zm-257.8 4.5c5.6 11.3 6.2 15.7 2.3 16.7-2.4.7-7.8-3.5-7.8-5.9 0-.7-1.8-3-4-5-4.4-4.1-4.8-5.2-2.2-6.1.9-.4 2.3-1.5 3-2.5 2.4-3.3 6.4-1.9 8.7 2.8zm-190.3-2.4c.9 2.3-.3 3.8-2.8 3.8-2.8 0-3.1-1.7-.6-3.6 2.2-1.7 2.9-1.7 3.4-.2zm-18.7 9.7c.3 1.6 1.3 3.2 2.1 3.5 1.1.4 1.2 1 .4 2.5-.7 1.3-.7 2.8 0 4.6 1.7 4.5 1.2 6.9-1.7 8.2-2.7 1.3-5.4.3-9.1-3.4-.7-.7-2.2-1.3-3.3-1.3-2.3 0-2.4-.9-.4-5.8 1.7-4 9.3-12.4 10.6-11.6.4.2 1 1.7 1.4 3.3zm279-1.9c1.6.7 1.3.9-1.5.8-1.9 0-4.8-.4-6.5-.8-2.7-.7-2.6-.8 1.5-.8 2.5 0 5.4.3 6.5.8zm-297 2.9c.5.9 1 5.7 1.1 10.8.2 8.7 0 9.3-2.2 10.8-5.6 3.6-9-.6-5.5-6.9 1.7-3 1.7-3-1.6-5.9-5-4.4-5.6-6-3.4-8.9 1.6-2 2.6-2.3 6.3-2 2.6.3 4.7 1.1 5.3 2.1zm-27 7.6c0 3-.4 4-1.8 4.3-3.8.7-6.2-5.8-2.9-7.7 3.2-1.9 4.7-.9 4.7 3.4zm133.2 4.2c-.3 1-.5.4-.5-1.2 0-1.7.2-2.4.5-1.8.2.7.2 2.1 0 3zm245.6.5c.8.7 1.2 2.1.9 3.2-.3 1-.1 1.7.4 1.3.5-.3 1.8.1 2.9.9 1.7 1.3 1.8 1.6.5 2.4-1 .7-1.1 1-.2 1 2.5 0 1.1 2-1.5 2.1-2.7 0-2.7.1-.5.9 4.1 1.7 2 4-3.8 4-1.6 0-3.5.7-4.4 1.5-1.6 1.7-5.6 2-5.6.5 0-.6-1.1-1-2.5-1s-2.5-.4-2.5-.9c0-1.3 2.8-2.2 3.5-1.1.4.6 1.1 1 1.8 1 .6 0 .2-.7-.9-1.5-1-.8-1.4-1.5-.9-1.5.6 0-.3-.7-2-1.6-2.7-1.4-3-1.4-4.2.2-.7 1-1.3 1.3-1.3.7 0-.7.4-1.5 1-1.8.5-.3.8-2 .6-3.8-.4-2.9-.2-3.2 2.2-3.4 1.4 0 3.3-1 4.1-2.1.9-1.1 2.3-2.2 3.1-2.5 2.2-.9 7.7 0 9.3 1.5zm-318 3.1c1.5.6 1.6 1 .5 2.7-1.6 2.5-2.3 2.5-4.2-.2-1.2-1.6-1.3-2.5-.4-3.5.6-.8 1.4-1 1.7-.5.3.5 1.4 1.1 2.4 1.5zM431 487c0 .5-.4 1-1 1-.5 0-1-.5-1-1 0-.6.5-1 1-1 .6 0 1 .4 1 1zm-368 9c0 .5-.7 1-1.5 1s-1.5-.5-1.5-1c0-.6.7-1 1.5-1s1.5.4 1.5 1zm-2 4.1c0 1.5-2.2 2.1-3.1.8-1.4-2.2-1.1-2.8 1.1-2.2 1.1.3 2 .9 2 1.4zm-35 8.1c1.1 1.2 2 2.9 2 3.8 0 1.8-3.1 5.6-6.8 8.1-1.2.9-2.5 2.6-2.7 3.8-.9 4.6-1.6 5.9-3.8 6.6-3.5 1.2-3.9 1.1-4.8-1.2-.6-1.5-.2-2.9 1.1-4.6 1.1-1.4 2.5-4.9 3.1-7.8.8-4 1.9-6.1 4.2-8.2 3.8-3.3 5-3.4 7.7-.5zm115 5.2c1.4.2 3.3.5 4.3.5 1 .1 2 .8 2.4 1.6.7 1.9-5.2 7.5-7.9 7.5-1.2 0-1.8.8-1.8 2.2-.1 1.5-1.6 3.4-4 5.3-2.2 1.6-5.1 4.7-6.5 6.7-1.4 2.1-3.2 3.8-3.9 3.8-.8 0-1.6.8-1.9 1.7-.3 1.4-.6 1.1-1.1-.9-.8-2.7.9-5.8 3.3-5.8 2.1 0 2-1.9-.2-4.7-2.9-3.4-4.1-10.2-2.1-12 .7-.7 3.9-2.4 7.1-3.8 3.2-1.4 6.5-2.9 7.3-3.4.8-.5 1.7-.5 2 0 .3.5 1.7 1.1 3 1.3zm503.7 20.8c-.3.8-.6.5-.6-.6-.1-1.1.2-1.7.5-1.3.3.3.4 1.2.1 1.9zm-562.9 5.3c.3 2.7-.1 3.2-3.5 4.4-6.2 2.2-11.7 2.5-13.2.7-2.4-2.9-.9-4.9 5.4-6.7 8.5-2.5 10.9-2.2 11.3 1.6zm387.9 3.1c0 1.9-2.1 1.2-2.5-.9-.2-1.1.1-1.5 1.1-1.2.7.3 1.4 1.3 1.4 2.1zm179.3 1.5c0 1.1-2.7 1.2-3.4 0-.3-.4-.3-1.1 0-1.4.8-.8 3.4.3 3.4 1.4zm-202.7 10.4c-.3.9-.8 1.4-1 1.1-.3-.3-.2-.9.2-1.5.9-1.6 1.5-1.3.8.4zm205.2 2.5c-.3.5-1.4 1-2.3 1-1.5 0-1.5-.2-.2-1 2-1.3 3.3-1.3 2.5 0zm-210 6.8c-3.7 7.4-12.6 16.8-15 15.8-.9-.3-1.2 0-.8 1 .7 1.8-3 5.5-7.7 7.9-1.9.9-5.8 3.5-8.7 5.7-3.1 2.4-5.7 3.7-6.4 3.2-.8-.5-1-.2-.6.9.3.9-.4 2.6-1.6 4.1l-2.2 2.5-.1-2.9c-.1-3 1-4 1.9-1.8.3.7.6.4.6-.6.1-2.7-3.7-6.6-5.8-5.9-.9.4-1.8 1-2.1 1.4-.3.5-1.2-.2-1.9-1.4-1.3-2-1.3-2.1.2-.8 1.1.8 1.7.9 1.7.3 0-.6.7-.9 1.5-.6.9.4 1.5 0 1.5-1 0-.9.5-1.6 1-1.6.6 0 1 .4 1 1 0 .5.4 1 .9 1 1.8 0 .4-5-2-7.1-2.3-2-2.4-2.1-.5-3.5 1.1-.8 2.8-1.2 3.8-.8 1.2.3 1.8 0 1.8-1 0-2.5 2.9-4.7 5.5-4 1.2.3 2.6.1 3-.5.8-1.5 7.4-.4 9.6 1.5.8.8 2.4 1.4 3.5 1.3 1.5 0 1.4-.3-.7-1.2-2.2-1-2.4-1.4-1.3-2.5.7-.6 2-1.2 2.9-1.2 2.5 0 1.7-1.5-1-1.8-1.4-.1-2.5.3-2.5.8 0 .6-.4 1-1 1-.5 0-1-.4-1-.9 0-1.1 3.9-2.6 5.8-2.3.6.2 1.2-.2 1.2-.8 0-.8-1.3-1-4.2-.5-6.1 1-3.7-1.2 2.7-2.5 7.5-1.6 7.9-1.6 8-.3 0 .7.5 1.3 1 1.3.6 0 1-.6 1-1.3 0-.6.7-1.2 1.5-1.2 2.1-.1 6-2.7 6-4 0-.9 1.9-3.5 2.6-3.5.1 0-1.3 3.1-3.1 6.8zm286.9 10.8c.3.8.2 1.2-.4.9-.6-.3-1-1-1-1.6 0-1.4.7-1.1 1.4.7zM641 576c0 .5-.4 1-1 1-.5 0-1-.5-1-1 0-.6.5-1 1-1 .6 0 1 .4 1 1zm-593 5.2c0 .5.6.8 1.4.6.8-.2 1.5.1 1.5.7.1.5-1.1 1-2.6 1-2.1 0-2.9-.5-3.1-2.2-.3-1.7 0-2.1 1.2-1.7.9.3 1.6 1 1.6 1.6zm579-.2c0 1.2-.8 1.2-3.5 0-1.8-.8-1.7-.9.8-.9 1.5-.1 2.7.3 2.7.9zm-497.6 2.7c-.4 1.6-1.1 3.2-1.5 3.7-.5.6-.9 1.8-.9 2.8 0 1-.3 1.8-.7 1.8-.5 0-1.4 1.2-2 2.7-1 2.1-1 2.8 0 3.5.9.6.9.8 0 .8-.7 0-1.3.6-1.3 1.4 0 .7-.7 1.9-1.5 2.6-1.8 1.5-2.1 4.5-.2 3.4.6-.5 0 .7-1.6 2.5-1.5 1.8-2.4 3.7-2.1 4.3.3.5-.1 1.5-1 2.1-.9.7-2.5 3.7-3.6 6.7-1 3-2 4.8-2 4-.1-1-.4-.9-1 .5-.6 1.5-.9 1.6-.9.4-.1-.9 1.5-5 3.4-9.1 1.9-4.2 3.6-9 3.7-10.8.1-1.8.8-3.5 1.5-3.7.7-.3 1.3-1 1.3-1.6 0-1.3 7.7-17.5 9.3-19.5 1.5-1.9 1.8-1.5 1.1 1.5zm263.3-.5c-.3.8-.6.5-.6-.6-.1-1.1.2-1.7.5-1.3.3.3.4 1.2.1 1.9zM49.5 586c.3.5.1 1-.4 1-.6 0-1.1-.5-1.1-1 0-.6.2-1 .4-1 .3 0 .8.4 1.1 1zm685.2 1.6c-.3.3-1.2.4-1.9.1-.8-.3-.5-.6.6-.6 1.1-.1 1.7.2 1.3.5zm3 4c-.3.3-1.2.4-1.9.1-.8-.3-.5-.6.6-.6 1.1-.1 1.7.2 1.3.5zm-27.6 5.5c-1.1.4-1.8-.1-2.2-1.5-.8-2.9 1.2-3.9 2.6-1.3.9 1.8.8 2.3-.4 2.8zm-312.6 0c-.3 1.2-.7 2.4-1 2.7-.2.3.1 1.2.8 2 .9 1.3.9 1.4 0 .8-.7-.4-1.8-1.6-2.4-2.8-.8-1.5-.8-1.9 0-1.4.7.4 1.1-.1 1.1-1.3s.4-2.1.9-2.1c.6 0 .8 1 .6 2.1zm339.9.4c-.4.8-1 1.2-1.5.9-1.1-.6-.2-2.4 1.1-2.4.5 0 .7.7.4 1.5zM625.2 601c.3 1.8 0 2.9-.5 2.7-1.1-.3-1.7-5.7-.6-5.7.4 0 .9 1.4 1.1 3zm101.8-1.6c0 .3-.4.8-1 1.1-.5.3-1 .1-1-.4 0-.6.5-1.1 1-1.1.6 0 1 .2 1 .4zm-615.4 5.8c.4.6-.8.8-2.7.6-3.1-.3-3.4-.1-3.7 2.7-.5 3.9-1.5 4.9-4.6 4.1-2.4-.6-3.8-3.6-1.7-3.6.5 0 1.1-1 1.3-2.2.2-1.4 1.2-2.4 2.8-2.8 3.1-.7 7.8-.1 8.6 1.2zm583.9-.2c.8 1.3-.5 1.3-2.5 0-1.3-.8-1.3-1 .2-1 .9 0 2 .4 2.3 1zm9.5 1c0 .5.7 1 1.5 1 1.9 0 1.9.4 0 4.1-.9 1.6-1.3 3.4-.9 4 .4.7-.3.6-1.7-.2-1.3-.7-1.9-1.4-1.2-1.6.7-.3.9-1.8.6-4.3-.4-2.6-.2-4 .6-4 .6 0 1.1.4 1.1 1zm42.4 2.5c-.4.8-.7 1.5-.9 1.5-.2 0-.5-.7-.9-1.5-.3-.9 0-1.5.9-1.5s1.2.6.9 1.5zm-2.9 1.5c.3.5.1 1-.4 1-.6 0-1.1-.5-1.1-1 0-.6.2-1 .4-1 .3 0 .8.4 1.1 1zm-125.2 1.7c-.7.2-1.9.2-2.5 0-.7-.3-.2-.5 1.2-.5s1.9.2 1.3.5zM748 615c0 .5-.5 1-1.1 1-.5 0-.7-.5-.4-1 .3-.6.8-1 1.1-1 .2 0 .4.4.4 1zm3.3 4.9c.3 1.3.1 1.8-.9 1.4-.7-.2-1-1.1-.7-1.9.7-1.9 1-1.8 1.6.5zm3.7-1.5c0 .3-.4.8-1 1.1-.5.3-1 .1-1-.4 0-.6.5-1.1 1-1.1.6 0 1 .2 1 .4zm-137.2 3.7c1.1 1.7 1.1 2.4.1 3.3-.9.8-1 .8-.5-.2.4-.7.2-1.2-.6-1.2s-1.4-.9-1.4-2c0-2.6.8-2.5 2.4.1zm7.2.3c0 .8.7 1.7 1.6 2 1.4.5 1.5.4.4-.9s-1-1.4.4-.9c2 .8 2.1 3.4.1 3.4-.8 0-2.3-.9-3.2-1.9-.9-1.1-2.2-1.7-2.8-1.4-.7.2-1.6 0-2-.6-.4-.7.5-1.1 2.4-1.1 2 0 3.1.5 3.1 1.4zm62.8-.3c3.6-.2 5.2 2 3.2 4.4-1 1.2-1 1.5 0 1.5.8 0 1.1.2.8.5-.3.3-1.8 0-3.4-.6-1.6-.7-3.2-1.3-3.6-1.3-.4-.1-1.7-.9-2.8-1.9-2.3-2-1.7-4.2.9-3.1.9.3 3.1.6 4.9.5zm-15.8 2.1c0 .7-.7 2.2-1.5 3.2-1.6 2.1-1.8 1.5-.9-2.2.7-2.3 2.4-3.1 2.4-1zm-48.6 2.4c1.5 3.9-.4 4.2-2.4.3-.8-1.5-.7-1.9.4-1.9.7 0 1.7.7 2 1.6zm60.3 4c-1.1 1.2-4.7-1.8-4.7-3.9 0-2.1.1-2.1 2.6.6 1.4 1.6 2.4 3.1 2.1 3.3zm5.7-.7c.3.4-.1 1.7-.9 2.7-1.4 1.8-1.4 1.8-1.5-.9 0-2.6 1.3-3.6 2.4-1.8zm28.6-.4c0 .2-1 1-2.2 1.6-2.1 1.1-2.2 1.1-.9-.4 1.3-1.6 3.1-2.3 3.1-1.2zm-32.9 3.2c-1.2 2-1.4 1.4-.5-1.2.4-.9.9-1.4 1.1-1.1.3.2 0 1.3-.6 2.3zM107.4 634c-.6.6-1 .3-1-1s.4-1.6 1-1c.7.7.7 1.3 0 2zm358.3-.8c-.3.8-.6.5-.6-.6-.1-1.1.2-1.7.5-1.3.3.3.4 1.2.1 1.9zm251.8-.2c-.3.5-.1 1 .5 1s.8.5.4 1.1c-.4.8-.9.7-1.5-.2-1.2-1.9-1.1-2.9.2-2.9.5 0 .7.4.4 1zm-107 2c.3.6-.1.7-.9.4-1.8-.7-2.1-1.4-.7-1.4.6 0 1.3.4 1.6 1zm62.5 2c0 .4-.6 1.3-1.4 1.9-1.1.9-1.5.8-2-.5-1-2.6-.7-3.2 1.4-2.7 1.1.3 2 .9 2 1.3zm37.6-1.1c-.3.5-1.6 1.1-2.8 1.4-2.2.6-2.2.5-.4-.8 2.2-1.7 4-2 3.2-.6zm5.4 0c0 1.1-5.9 3.6-6.7 2.7-.3-.3-.1-.6.6-.6s1.9-.7 2.7-1.5c1.7-1.7 3.4-2 3.4-.6zm-96.6 4.4c-.3.9-1.1 1.7-1.6 1.7-.6 0-.7-.7-.4-1.6.3-.9.6-2.1.6-2.7 0-.8.3-.8 1-.1.6.6.8 1.8.4 2.7zm3.3.7c-.4 1.7-.2 3 .3 3 .6 0 1 .4 1 .9s-.8.8-1.7.7c-1-.2-1.8-.8-1.7-1.4.1-.7.2-2.3.3-3.7 0-1.4.6-2.5 1.2-2.5.7 0 .9 1.1.6 3zm46.3-1.5c0 .8.5 1.5 1 1.5.6 0 1 .4 1 1 0 2.1-2.8.9-3.2-1.5-.3-1.4-.1-2.5.3-2.5.5 0 .9.7.9 1.5zm47-.5c0 .5-.5 1-1.1 1-.5 0-.7-.5-.4-1 .3-.6.8-1 1.1-1 .2 0 .4.4.4 1zm-103.3 3.5c1 3.2.9 3.5-.9 3.5-1.6 0-1.8-.3-.9-1.4.9-1.1.8-1.7-.4-2.9-1.9-1.9-1.9-2.7-.2-2.7.8 0 1.8 1.6 2.4 3.5zm-9.2-.7c-.3.3-1.1 0-1.8-.7-.9-1-.8-1.1.6-.5 1 .3 1.5.9 1.2 1.2zM713 641c0 .5-.2 1-.4 1-.3 0-.8-.5-1.1-1-.3-.6-.1-1 .4-1 .6 0 1.1.4 1.1 1zm-93.7 4c.6 2.3-.8 2.7-2 .6-.4-.7-1.5-1.6-2.3-1.9-.9-.3-.4-.6 1.1-.6 1.9-.1 2.8.5 3.2 1.9zm-3 3.8c-.4 1.5.9 1.6 2.4.1.8-.8 1.3-.8 1.7 0 .4.6 0 1.1-.8 1.1-.9 0-1.6.8-1.7 1.7 0 1.1-.3 1.3-.6.5-.2-.6-.9-1.2-1.4-1.2-.5 0-1.8-.9-2.8-1.9-1.9-1.9-1.9-2 .7-1.7 1.5.1 2.6.8 2.5 1.4zm-10.3.9c0 1.5.2 1.6 1 .3s1-1.2 1 .2c0 2.4-1.7 2.3-3-.2-.7-1.4-.7-2 0-2 .5 0 1 .8 1 1.7zm18 1.8c0 1.7-.4 2.3-1.4 1.9-.8-.3-1.2-1.3-.9-2.5.7-2.7 2.3-2.4 2.3.6zm3 .5c0 1-.4 2.1-.8 2.4-.5.3-.9-.8-.9-2.4 0-1.6.4-2.7.9-2.4.4.3.8 1.4.8 2.4zm-22 3.1c0 2.1-1.7 2.4-4 .8-1.3-.9-1.2-1 .2-.5 1 .3 2 .1 2.3-.4.4-.6-.3-1-1.4-1-1.2 0-2.1-.4-2.1-.9 0-.4 1.1-.6 2.5-.3 1.6.3 2.5 1.1 2.5 2.3zm6.6-1.9c.5.7.3.8-.6.3-.9-.5-1.1-.4-.6.3.4.7.2 2-.3 2.9-.9 1.5-1 1.3-1.1-1.5 0-3.2 1.3-4.2 2.6-2zm2.5 1.1c-.5 1.3-.7 3.6-.5 5.3l.4 2.9-1-3c-1-3.1-.4-7.5 1.1-7.5.5 0 .5 1 0 2.3zm-15.1 1.8c0 .5-.4.9-1 .9-.5 0-1-.7-1-1.6 0-.8.5-1.2 1-.9.6.3 1 1 1 1.6zm-501 1.4c0 2.8-1.7 3.4-2.7.9-.3-.9 0-2 .8-2.5 1.9-1.2 1.9-1.2 1.9 1.6zm597.7-.3c-.3.8-.6.5-.6-.6-.1-1.1.2-1.7.5-1.3.3.3.4 1.2.1 1.9zm-78.2-.2c.3.6-.1.7-.9.4-1.8-.7-2.1-1.4-.7-1.4.6 0 1.3.4 1.6 1zm-12 2.8c-.3.8.3 2.1 1.2 2.9 1.7 1.3 1.7 1.4-.4.8-1.8-.5-2-.2-1.6 1.4.3 1.1.8 2 1.2 1.9 2.4-.3 4.1.4 4.1 1.7 0 .8.5 1.5 1 1.5.6 0 1 .5 1 1.2 0 .6-1.1.1-2.5-1.2-2.3-2.1-2.8-2.3-4.7-1.1-1.7 1.1-2.2 1.1-2.9-.1-.6-.8-.3-1.7.7-2.4 1.2-.9 1.2-1.3.2-1.6-1.1-.4-1.1-.8 0-2 .7-.9 1-2.2.7-3-.4-.9 0-1.5 1-1.5s1.4.6 1 1.5zm14.1.7c-.5 1.3-.8 1.4-2 .3-1.2-1.1-1.2-1.4.3-1.9 2-.8 2.5-.4 1.7 1.6zm-9.1-.5c.3.5.2 1-.4 1-.5 0-1.3-.5-1.6-1-.3-.6-.2-1 .4-1 .5 0 1.3.4 1.6 1zm131.2-.4c-.3.3-1.2.4-1.9.1-.8-.3-.5-.6.6-.6 1.1-.1 1.7.2 1.3.5zM602 660.9c0 .6-.4 1.3-1 1.6-.5.3-1-.1-1-.9 0-.9.5-1.6 1-1.6.6 0 1 .4 1 .9zm-4.6 2c.3.4.3 1.1 0 1.4-.8.8-3.4-.3-3.4-1.4 0-1.1 2.7-1.2 3.4 0zm91.7 5.4c-.6.6-1.4.7-1.8.2-.5-.4-.3-1 .4-1.2.7-.2 1-1.2.7-2.1-.4-1.4-.3-1.3.6.1.9 1.4.9 2.2.1 3zM621 671l-.8 3.5-.1-4.5c-.1-2.7.3-4 .8-3.5.6.6.6 2.5.1 4.5zm-22-3c1.3.8 1.3 1-.2 1-.9 0-2-.5-2.3-1-.8-1.3.5-1.3 2.5 0zm16.4.5c-.4.8-.8 1.5-1 1.5-.2 0-.4-.7-.4-1.5s.4-1.5 1-1.5c.5 0 .7.7.4 1.5zm11.8-.5c.5 0 .3.7-.6 1.5-.8.8-2.1 1.5-2.8 1.4-1 0-1-.2 0-.6.6-.2 1.2-.9 1.2-1.4 0-.6-.4-.7-1-.4-.5.3-1 .1-1-.5 0-.7.7-.9 1.6-.6.9.3 2 .6 2.6.6zm-532.7 1c.3.5.1 1-.4 1-.6 0-1.1-.5-1.1-1 0-.6.2-1 .4-1 .3 0 .8.4 1.1 1zm507.3 1.7c1.7.3 3.2.9 3.2 1.4 0 1.2-5.2.8-6.9-.5-1.2-.9-1.3-.7-.8.6.4 1.2 0 2.1-1.3 2.8-2.3 1.2-2.5.7-1-2.1 1.1-2-.3-2.8-1.5-.9-.8 1.3-4.5 1.3-4.5 0 0-.5.8-.6 1.7-.3 1.2.5 1.5.2 1-1-.6-1.5-.1-1.6 3.1-1.1 2 .3 5.2.8 7 1.1zm35.7-.7c-.3.5-1 1-1.6 1-.5 0-.9-.5-.9-1 0-.6.7-1 1.6-1 .8 0 1.2.4.9 1zm52 .9c.3.5.1 1.2-.5 1.6-.5.3-1-.1-1-.9 0-1.8.6-2.1 1.5-.7zm54.5 1.3c0 .6-.6.5-1.5-.2-.8-.7-1.5-1.4-1.5-1.6 0-.2.7-.1 1.5.2.8.4 1.5 1.1 1.5 1.6zm-126.3-.6c-.3.3-1.2.4-1.9.1-.8-.3-.5-.6.6-.6 1.1-.1 1.7.2 1.3.5zm9.6.9c-.3.9-.8 1.4-1 1.1-.3-.3-.2-.9.2-1.5.9-1.6 1.5-1.3.8.4zm-533.6 3.2c-.3 1-.5.4-.5-1.2 0-1.7.2-2.4.5-1.8.2.7.2 2.1 0 3zm514.3-2.2c0 .8.5 1.5 1 1.5.6 0 1 .4 1 .8s-.9.8-2 .8c-1.4 0-2-.7-2-2.3 0-1.3.5-2.3 1-2.3.6 0 1 .7 1 1.5zm7 .6c0 .6-.4.7-1 .4-.5-.3-1-1.1-1-1.6 0-.6.5-.7 1-.4.6.3 1 1.1 1 1.6zm22.2 2.6c.8 1 .6 1.3-.7 1.3-1 0-1.5.5-1.2 1.4.4.9-.2 1.3-2 1.3-1.9 0-2.4-.4-2-1.8.4-1.4 0-1.9-1.6-2-2.1 0-2.1-.1-.2-.9 2.6-1.1 3.5-1.2 3.4-.3-.3 1.7.2 2.4 1.1 1.8.7-.4.7-1.2 0-2.5s-.6-2 .3-2.3c.6-.2 1.4.3 1.6 1.2.2.9.8 2.2 1.3 2.8zm5.8-3.6c0 1.6-2.6 3.8-3.7 3.1-.5-.4-1.2-1.5-1.6-2.5-.5-1.4-.1-1.7 2.3-1.7 1.7 0 3 .5 3 1.1zm-17.6 3.2c.7.6.6.7-.4.4-.8-.2-1.6-1.2-1.7-2.3-.2-1.3-.1-1.5.4-.4.3.8 1.1 1.9 1.7 2.3zM599 676c0 .5-.4 1-1 1-.5 0-1-.5-1-1 0-.6.5-1 1-1 .6 0 1 .4 1 1zm-9 1c0 .5-.2 1-.4 1-.3 0-.8-.5-1.1-1-.3-.6-.1-1 .4-1 .6 0 1.1.4 1.1 1zm11.6.5c-.3.9 0 1.5 1 1.5.9 0 1.8.9 2.1 2 .3 1.1.9 2 1.4 2 .5 0 .9.8.8 1.7 0 1.1-.3 1.3-.6.5-.2-.6-.9-1.2-1.4-1.2-.6 0-.7.4-.4 1 .3.5.1 1-.4 1-.6 0-1.1-.7-1.1-1.5s-.8-1.5-1.7-1.5c-1.5 0-1.5-.1.1-1.3 1.7-1.2 1.7-1.4.3-2-1.7-.6-3.9 2.2-3.6 4.6.3 2.7-.2 3.6-1.8 3.1-1.5-.5-1.5-.3.1 1 1.1.9 1.5 1.6.8 1.6-.6 0-1.8-1-2.7-2.3-1.2-1.5-1.9-1.8-2.2-1-.3.7-1.2 1.3-2.1 1.3-1.4 0-1.4-.2-.3-.9 1-.7.5-1.1-1.8-1.6-1.7-.3-3.4-1.1-3.8-1.7-.4-.7 0-.9 1-.5 2.2.8 2.2-.2 0-2-1.7-1.4-1.7-1.4 0-.9 1 .3 2.3.6 2.8.6.6 0 .9.8.7 1.7-.2 1.3.4 1.8 2.4 1.9 1.5.1 2.5-.3 2.2-.8-.3-.4-1-.6-1.5-.3-.5.4-.9.1-.9-.4 0-1.7 3.2-1.3 4.6.6 1.2 1.6 1.3 1.5 1.4-1.5 0-1.7-.4-3.2-1-3.2-.5 0-1-.4-1-1s.9-.6 2.5 0c2 .7 2.5.6 2.5-.5 0-.8.5-1.5 1.1-1.5.6 0 .9.7.5 1.5zm36.1 3.7c-.3.8-.6.5-.6-.6-.1-1.1.2-1.7.5-1.3.3.3.4 1.2.1 1.9zm-27.7 3c-.1.8-.6.6-1.5-.6-2-2.6-1.9-4.2 0-2.2.8.8 1.5 2.1 1.5 2.8zm59 3.4c0 .8.5 1.4 1 1.4.6 0 1 .7 1 1.6 0 1.4-.3 1.4-1.5.4-.8-.7-1.5-1.9-1.5-2.6 0-.8-.7-1.4-1.5-1.4s-1.5-.4-1.5-.9.9-.7 2-.4c1.1.3 2 1.2 2 1.9zm3-2.2c0 .3-.4.8-1 1.1-.5.3-1 .1-1-.4 0-.6.5-1.1 1-1.1.6 0 1 .2 1 .4zm-84 2c0 .8 1.2 1.9 2.8 2.4 1.5.6 2.1 1.1 1.4 1.1-.7.1-1.1.5-.8 1 .3.4-.2 1.7-1 2.7-1 1.3-1.4 1.4-1.1.4.2-.8-.3-2-1-2.5-.8-.6-1.5-1.7-1.6-2.5-.2-.8-.6-2.1-1-2.8-.5-.7-.3-1.2.7-1.2.9 0 1.6.6 1.6 1.4zm13.7.5c-.3 2.1-3.2 5.3-4 4.4-.3-.3 0-1.2.8-1.9.8-.8 1.2-2.1.9-2.9-.4-.9 0-1.5 1-1.5s1.5.7 1.3 1.9zm-15.7.6c0 1.2-1.9 1.2-2.3 0-.4-.9-.1-1.2.9-.8.7.3 1.4.7 1.4.8zm25.1-.5c1.2 0 1.9.7 1.8 1.7 0 1.1-.3 1.3-.6.5-.2-.6-2.2-1.2-4.3-1.2-2.1 0-4.1.6-4.3 1.2-.3.7-.6.2-.6-1.1-.1-2.1.2-2.3 3-1.7 1.7.3 4 .6 5 .6zm19.9 1.7c0 2-.3 2.4-1.1 1.6-.7-.7-.9-1.9-.6-2.7 1-2.4 1.7-1.9 1.7 1.1zm-540.3.5c-.3.8-.6.5-.6-.6-.1-1.1.2-1.7.5-1.3.3.3.4 1.2.1 1.9zm528 1.3c-1.5 1.6-2.2 1.1-1.3-1 .3-.9 1-1.3 1.6-1 .6.4.5 1.1-.3 2zm6.3 1c0 .8-.4 1.7-1 2-.6.3-.9-.4-.8-1.9.2-2.5 1.8-2.6 1.8-.1zm-28.9 2.7c0 3.2.2 3.8.8 2.3.5-1.1.7-2.3.4-2.8-.2-.4.3-.7 1.1-.7 1.2 0 1.3.5.4 3.1-.9 2.7-.8 3.2 1.1 4.5 1.2.9 1.8 2 1.5 2.6-.4.6-1 .5-1.5-.3-.7-1.1-1.1-1.1-1.7-.2-1.5 2.4-3.9-.9-4.5-6.3-.3-2.9-.3-5.5 0-5.8 1.5-1.5 2.3-.3 2.4 3.6zm10.2-.2c.3 1.3.1 2-.5 1.8-.6-.2-1.3-1.4-1.5-2.7-.4-2.7 1.2-2 2 .9zm-517.6 5.2c-.2 1.3-.4.3-.4-2.2s.2-3.5.4-2.3c.2 1.3.2 3.3 0 4.5zM579 695c1.3.9 1.3 1 0 1-.8 0-2.2-.5-3-1-1.3-.9-1.3-1 0-1 .8 0 2.2.5 3 1zm-200 2c0 1.1-.4 2-.9 2s-.7-.9-.4-2c.3-1.1.7-2 .9-2 .2 0 .4.9.4 2zm223.7 0c-.4 2.7-1.7 3.8-1.7 1.3 0-1.8.8-3.3 1.7-3.3.1 0 .2.9 0 2zm148.4 1.7c-.8 1.5-1 1.5-1.1.2 0-1.7 1-3.2 1.8-2.5.2.3-.1 1.3-.7 2.3zm-137.4.5c-.3.8-.6.5-.6-.6-.1-1.1.2-1.7.5-1.3.3.3.4 1.2.1 1.9zm-8.2 1.8c.3.5.2 1-.4 1-.5 0-1.3-.5-1.6-1-.3-.6-.2-1 .4-1 .5 0 1.3.4 1.6 1zm24.9.5c-.7 1.6-2.4 2.1-2.4.6 0-.8.7-1.3 2.7-2 .1-.1 0 .6-.3 1.4zM379 703.1c0 .4-.7.6-1.5.3-.8-.4-1.5-1-1.5-1.5 0-.4.7-.6 1.5-.3.8.4 1.5 1 1.5 1.5zm3.5-1.1c.3.5-.1 1-1 1s-1.3-.5-1-1c.3-.6.8-1 1-1 .2 0 .7.4 1 1zm253.5 1c1.2.8 1.1 1-.7 1-1.2 0-2.5-.5-2.8-1-.8-1.3 1.5-1.3 3.5 0zm-546.5 2c.3.5-.1 1-.9 1-.9 0-1.6-.5-1.6-1 0-.6.4-1 .9-1 .6 0 1.3.4 1.6 1zm580.3 4.5c-.3.3-.9-.2-1.2-1.2-.6-1.4-.5-1.5.5-.6.7.7 1 1.5.7 1.8zm-592.7 4.4c1.8 2.2 5.9 3.7 5.9 2.2 0-.6.5-1.1 1-1.1.6 0 1 1.1 1 2.5s-.4 2.5-1 2.5c-.5 0-1 .7-1 1.5 0 1.1-.7 1.4-2.4.9-1.7-.4-3 0-4.4 1.4-2.7 2.7-1.8 6.1 1.8 6.8 2.4.5 2.7 1.1 2.8 4.9.1 2.4-.2 4.7-.8 5-.5.3-1 .1-1-.6 0-.8-.6-.6-1.8.4-1 1-3 1.7-4.5 1.7-1.4 0-2.9.4-3.2 1-.3.5-2.1 1-3.9 1-4.3 0-6.3-3.9-4.6-8.6.6-1.6 1.3-6.3 1.6-10.4.5-9.5.9-10.7 4.2-12.5 3.3-1.8 8.1-1.2 10.3 1.4zm501.9 2.6c0 .8-.4 1.5-.9 1.5s-1.1-.7-1.5-1.5c-.3-.9 0-1.5.9-1.5.8 0 1.5.7 1.5 1.5zm73.5 7.9c1.1.1 1.8.6 1.7 1.1-.4.8 1.7 2.5 3 2.5.4 0 .5-.7.2-1.5-.5-1.1-.2-1.3 1-.9 1.2.5 1.4 1 .6 1.9-.6.8-1 2.2-.8 3.2.2 1.4-.2 1.7-1.9 1.5-2.8-.4-3.1 2.2-.5 3.7 1.5.9 1.5 1-.5 1.1-1.7 0-2.3-.6-2.3-2.3 0-1.2-.9-3.3-2-4.7l-2-2.5v2.2c0 1.3.4 2.3.8 2.3.5 0 1.3 1.6 1.9 3.5 1.3 4 .3 4.7-1.7 1.1-1-1.9-1.5-2.2-2.5-1.3-1 1-.9 1.4.8 2.3 1.5.9 1.7 1.3.6 1.7-1 .4-.9.6.4.6 1.7.1 2.2 1.7 1.1 4.5-.8 2-2.4 2.1-2.4.1 0-.9-.6-1.2-1.5-.9-.8.4-1.7-.1-2.1-1-.8-2-2.4-2.1-2.4-.2 0 .7.9 1.6 2 1.9 1.3.3 1.8 1 1.4 2.1-.5 1.2 0 1.6 2.2 1.6 2.1 0 2.5.3 1.5.9-.8.5-2 .7-2.8.4-.7-.3-1.6.3-2 1.3-.6 1.5-.7 1.5-1.4-.4-1.3-3.3-2.8-2.6-2.4 1 .4 2.8.2 3-.8 1.7-.7-.9-2.4-1.9-3.9-2.3-2.9-.7-3.4-2.4-1.8-6.1.8-1.7.9-1.6.7.9-.2 2.5 2.4 5.9 3.6 4.6.9-1.1 1.5-8 .6-7.5-.5.4-.9 1.7-.9 3s-.5 2.7-1.1 3.1c-.7.4-1-.4-.7-2.5.2-2-.3-3.5-1.2-4.1-1.2-.8-1-1 1-1.1 1.4-.1 3.2-.1 4 0 1.3.2 1.3.1 0-.8-.8-.6-1-1.1-.5-1.1.6 0 .2-.5-.7-1.1-2-1.1-2.5-4.9-.7-4.9.6 0 .9.7.5 1.5-.3.8-.1 1.5.3 1.5 1.2 0 2.2-3 1.5-4.2-.4-.5.2-.8 1.3-.6 2 .3 2.3 0 2.3-2.8 0-1.4-.2-1.5-1.7-.3-1.1 1-1.4 1-.9.1.9-1.6-1.6-1.6-3.2 0-.9.9-1.2.9-1.2 0 0-.7.4-1.2 1-1.2.5 0 .6-.7.3-1.7-.5-1.2-.3-1.4.8-.7 2.3 1.4 3.7 1.3 4.3-.3.5-1.1 1.5-1.4 3.9-.9 1.7.4 4.1.8 5.2 1zm-16 2.9c-1 4-1 11.7 0 12.1.6.3.2.5-.8.5-1.4.1-1.6-.5-1.2-3 .4-1.9.2-2.8-.5-2.4-.5.3-1 .2-1-.4 0-.5.5-1.3 1-1.6.6-.3.7-1.7.4-3.1-.4-1.6-.2-2.4.7-2.4 1.1 0 1.1-.3-.1-1-1.3-.8-1.2-1 .3-1 1.3 0 1.6.5 1.2 2.3zm109.2.9c-.3.8-.6.5-.6-.6-.1-1.1.2-1.7.5-1.3.3.3.4 1.2.1 1.9zm-113 1c-.3.8-.6.5-.6-.6-.1-1.1.2-1.7.5-1.3.3.3.4 1.2.1 1.9zm-3.1 2.5c-1 1-1.9-.5-1-1.8.6-1.1.8-1.1 1.2 0 .2.7.1 1.5-.2 1.8zm9.4-.7c0 .5-.4 1-1 1-.5 0-1-.5-1-1 0-.6.5-1 1-1 .6 0 1 .4 1 1zm108 1.7c0 1-.4 1.4-.8.8-.4-.6-1.1-1.3-1.6-1.8-.5-.4-.2-.7.7-.7 1 0 1.7.8 1.7 1.7zm-116.7 5c-.9 2.2-2.3 1.4-2.3-1.2 0-2.1.2-2.4 1.4-1.3.7.7 1.1 1.9.9 2.5zM747 739c0 .5-.4 1-1 1-.5 0-1-.5-1-1 0-.6.5-1 1-1 .6 0 1 .4 1 1zm-115 2.5c0 1.6-.6 2.5-1.5 2.5-.8 0-1.5-.5-1.5-1 0-.6.5-1 1-1 .6 0 1-.7 1-1.5s.2-1.5.5-1.5.5 1.1.5 2.5zm-74 .5c0 .5-.4 1-1 1-.5 0-1-.5-1-1 0-.6.5-1 1-1 .6 0 1 .4 1 1zm60 4.6c0 .2-.7.4-1.5.4s-1.5-.4-1.5-1c0-.5.7-.7 1.5-.4.8.4 1.5.8 1.5 1zm-555 .9c0 .8-.4 1.5-1 1.5-.5 0-1-.7-1-1.5s.5-1.5 1-1.5c.6 0 1 .7 1 1.5zm565.5-.5c.3.5.1 1-.4 1-.6 0-1.1-.5-1.1-1 0-.6.2-1 .4-1 .3 0 .8.4 1.1 1zm-22.3 5.8c-.4 1.1-.1 1.4 1.1.9.9-.3 1.7-.2 1.7.3 0 .6-.9 1-1.9 1-1.1 0-2.1.6-2.4 1.2-.2.7-.8.9-1.3.5s-.2-1.2.5-1.6c.7-.5 1-1.4.6-2-.4-.7-.4-1.9 0-2.9.5-1.3.8-1.4 1.5-.3.4.8.6 2.1.2 2.9zm21.8-2.3c0 1-1 1.5-3 1.5-1.6 0-3-.5-3-1.1 0-.6.8-.8 1.9-.4 1.1.3 2.2.1 2.6-.5.9-1.4 1.5-1.2 1.5.5zm1.7 4.3c-1.1.2-2.4-.1-3-.7-.8-.8-.5-1.1 1.1-1.1 1.4 0 2.2-.6 2.3-1.8.1-1.1.4-.8.8.8.6 2 .3 2.6-1.2 2.8zm-76.9-1.8c1 1.6 1 2-.2 2-.7 0-1.6-.9-1.9-2-.3-1.1-.2-2 .2-2 .3 0 1.2.9 1.9 2zm94 3.8c-1 .2-1.6.8-1.3 1.3.4.5.1.9-.4.9-.6 0-1.1.7-1.1 1.6 0 1-.6 1.4-1.4 1.1-.8-.3-1.6.2-1.9 1.4-.3 1-.1 1.9.4 1.9s.9.5.9 1.1c0 .6-.8.9-1.7.7-1-.2-1.8-1-1.8-1.8 0-.9-1.2-1.5-3.8-1.6-2.4-.2-3.5.1-3.1.8.4.7.2.8-.4.4-.7-.4-1.2-.1-1.2.8 0 .8-.5 1.8-1 2.1-2.1 1.3-.3-3.5 2.1-5.6 1.6-1.5 1.8-2 .7-1.6-1 .4-1.8.2-1.8-.3s-.7-.7-1.5-.4c-.8.3-1.3 1-1.2 1.4.1.4-.1.8-.5.9-.5.1-.8-.1-.7-.4.5-2.9 1.3-4.5 2.6-4.9.8-.3 1.1-.1.8.4-.3.6.1 1 .9 1 .9 0 1.6-.5 1.6-1.2 0-.6.3-.8.8-.4.7.8.8 1.3 1.1 4.1 0 .8.6 1.5 1.2 1.5s.9-.6.6-1.4c-.5-1.1.3-1.4 3.1-1.3 3.2.2 3.7-.1 3.6-2 0-1.9.4-2.2 2.3-1.9 1.8.4 2.3 0 2.4-1.7.1-2 .2-2 .8.3.6 2 .3 2.6-1.1 2.8zM549 754c0 .5-.2 1-.4 1-.3 0-.8-.5-1.1-1-.3-.6-.1-1 .4-1 .6 0 1.1.4 1.1 1zm95.7-.4c-.3.3-1.2.4-1.9.1-.8-.3-.5-.6.6-.6 1.1-.1 1.7.2 1.3.5zm-19.3 3.5c-.8 1.4-2.4 1-2.4-.6 0-.9.6-1.2 1.5-.9.8.4 1.2 1 .9 1.5zm15.6-.6c0 .8-.4 1.5-.9 1.5s-1.1-.7-1.5-1.5c-.3-.9 0-1.5.9-1.5.8 0 1.5.7 1.5 1.5zm-35.1 3.7c.1-.6.6-1.2 1.1-1.2.6 0 .8 1 .4 2.4-.7 2.9.4 5.5 1.6 3.6.5-.9.9-.9 1.4-.1.4.6.3 1.1-.3 1.1-1.4 0-.7 3 1 4.1 1.2.8 1.2 1 0 1.8-2 1.3-.2 3.4 2.5 2.8 2.5-.5 4.2 1.9 2.4 3.7-.7.7-1 .5-1-.7 0-1.3-.6-1.6-2.4-1.1-1.8.4-2.6.1-3-1.3-.3-1-.4-.6-.2 1 .2 1.5-.1 2.7-.7 2.7-.5 0-.7-1.8-.3-4.5.6-3.4.3-5.3-1.1-7.7-1-1.8-2.1-3.5-2.5-3.6-.5-.2-.8-1.6-.7-3 0-2.4.1-2.5.9-.7.5 1.1.9 1.4.9.7zm6.1 2c0 .5-.6.8-1.4.8-.9 0-1.2-.7-.9-2.1.4-1.6.8-1.7 1.4-.7.5.7.9 1.6.9 2zm-61-1c0 .9.3.9 1.2 0 1.7-1.7 2.9-1.5 2.2.3-.5 1.1-.2 1.3 1 .9 1.3-.5 1.5-.1.9 2.7-.6 3.2-1.4 4.3-2.9 3.9-.4-.1-1.1.4-1.5 1.2-.5.8-.8.2-.6-1.9.1-2.4.5-2.9 1.5-2.1.7.6 1.5.8 1.9.4.3-.3.1-.6-.5-.6-.7 0-1.2-.7-1.2-1.5s-.9-1.5-2-1.5-2-.7-2-1.5.5-1.5 1-1.5c.6 0 1 .5 1 1.2zm67 2.9c0 .5-.4.9-1 .9-.5 0-1-.7-1-1.6 0-.8.5-1.2 1-.9.6.3 1 1 1 1.6zm2.1.7c-.5 1-.6 2.4-.1 3.2.4.7.6 1.9.3 2.7-.4.9 0 1.1 1.1.7.9-.3 1.6-.1 1.6.5 0 2.2-3.1 1-4.1-1.6-1.1-3-.4-7.3 1.2-7.3.6 0 .6.6 0 1.8zm-15.1 1.3c0 1.2.6 2.7 1.4 3.3.9.7 1.1 1.8.6 3.1-.6 1.8-.8 1.7-2.3-1.2-1.9-3.6-2.2-7.3-.7-7.3.6 0 1 1 1 2.1zm22 1c0 1.4-2.9.4-3.3-1.2-.4-1.5-.2-1.6 1.4-.6 1 .6 1.9 1.4 1.9 1.8zm8.7 1.1c-.3.7-.5.2-.5-1.2s.2-1.9.5-1.3c.2.7.2 1.9 0 2.5zm-85.7.4c0 .8-.4 1.4-.8 1.4s-.8-.9-.8-1.9c0-1.1.4-1.7.8-1.5.4.3.8 1.2.8 2zm66.7-.6c.1 1.1-.2 2-.8 2-1 0-1.2-2.3-.2-3.3.9-.9.9-1 1 1.3zm18.7 3.6c.8 2.2.8 2.4-.8 2.4-.9 0-1.4-.9-1.3-2 .2-2.4 1.3-2.6 2.1-.4zM547 773c0 .5-.4 1-1 1-.5 0-1-.5-1-1 0-.6.5-1 1-1 .6 0 1 .4 1 1zm85 .5c0 .8-.4 1.5-1 1.5-.5 0-1-.7-1-1.5s.5-1.5 1-1.5c.6 0 1 .7 1 1.5zm-90.2.7c1.5 1.5 1.5 2.8 0 2.8-.6 0-.8-.3-.5-.7.4-.3-.1-1.2-1.1-1.9-.9-.7-1.2-1.4-.6-1.4.5 0 1.5.5 2.2 1.2zm93.7 2.6c-.3.3-1.1 0-1.8-.7-.9-1-.8-1.1.6-.5 1 .3 1.5.9 1.2 1.2zm-29 .2c.3.5-.1 1-.9 1-.9 0-1.6-.5-1.6-1 0-.6.4-1 .9-1 .6 0 1.3.4 1.6 1zm25.5 1c0 .5-.4 1-1 1-.5 0-1-.5-1-1 0-.6.5-1 1-1 .6 0 1 .4 1 1z"/><path d="M400.1 486.2c-.1 1-.5 1.8-1.1 1.8-.5 0-1 .4-1 1 0 .5 1.7 1 3.8.9 2.7 0 3.2-.2 1.8-.8-1.1-.4-2.3-1.6-2.7-2.7-.7-1.7-.8-1.7-.8-.2zM385.5 489c.3.5 1.3 1 2.1 1s1.4-.5 1.4-1c0-.6-.9-1-2.1-1-1.1 0-1.7.4-1.4 1zM428.6 570.9c-.3.5.1 1.1.9 1.4.9.4 1.2.1.8-.9-.6-1.6-1-1.7-1.7-.5zM425.7 574.7c.7.2.9 1.2.6 2.1-.4 1.3-.3 1.4.5.3.5-.7 1.5-1.7 2.2-2.1.7-.4.1-.7-1.6-.7-1.6 0-2.4.2-1.7.4zM404.3 580.4c.5 1.6 2.7 1.9 2.7.3 0-.7-.7-1.4-1.5-1.4-.9 0-1.4.5-1.2 1.1zM410.8 579.7c.7.3 1.6.2 1.9-.1.4-.3-.2-.6-1.3-.5-1.1 0-1.4.3-.6.6zM418 579.4c0 .3.9 1 2 1.6 1.1.6 2 .8 2 .6 0-.3-.9-1-2-1.6-1.1-.6-2-.8-2-.6zM404 592.5c0 .9.6 1.2 1.5.9.8-.4 1.5-.7 1.5-.9 0-.2-.7-.5-1.5-.9-.9-.3-1.5 0-1.5.9zM689.1 624.6c0 1.1.3 1.4.6.6.3-.7.2-1.6-.1-1.9-.3-.4-.6.2-.5 1.3zM642.6 734.5c.4.8.8 1.5 1 1.5.2 0 .4-.7.4-1.5s-.4-1.5-1-1.5c-.5 0-.7.7-.4 1.5zM648.6 742.3c.3 1 .9 1.5 1.2 1.2.3-.3 0-1.1-.7-1.8-1-.9-1.1-.8-.5.6zM444 .9c0 .5-1.6 1.8-3.5 3-3.3 1.9-3.5 2.3-2.3 4.3.6 1.3 1.3 2.9 1.4 3.7.5 2.7 2.8 3.1 4.6.8 2-2.6 9-3.2 12.5-.9 2.1 1.3 2.1 1.6.7 3.7-1.3 2-1.3 2.3.1 2.9 2.4.9 6.8.7 8.5-.4 1.3-.8 1.2-1.1-.5-2.4-1.7-1.3-1.8-1.8-.7-3.5.6-1.2 1.2-3.1 1.2-4.5 0-1.3.7-2.9 1.5-3.6.8-.7 1.5-1.9 1.5-2.6 0-1.1-2.5-1.4-12.5-1.4-6.9 0-12.5.4-12.5.9zM637 .9c0 .5 1.3 1.2 2.9 1.6 1.7.3 4.8 2 7 3.6 2.3 1.6 4.6 2.9 5.2 2.9 2.3 0 8.7-4.3 9.8-6.6L663 0h-13c-7.3 0-13 .4-13 .9zM671.1 1.2c.4 3.3-.4 4.8-3.6 6.8-3.3 2-3.4 2.3-1.9 3.5 1.7 1.2 1.7 1.5.1 5.7-2 5.2-2.1 8.7-.3 11 1.7 2.3 3.3 2.3 4.6-.2.6-1.1.7-2 .3-2-.4 0 .7-.9 2.5-2 2.4-1.5 3.2-2.7 3.2-4.9 0-2.1.6-3.2 2.1-3.6 1.1-.4 2.5-2 3.1-3.6.5-1.6 1.6-2.9 2.4-2.9.7 0 2.3-1.1 3.6-2.4 3.3-3.3 5.6-3.9 6.8-1.6.6 1.1.9 2.5.8 3.2-.2.8.7 1.3 2.1 1.3 2.1 0 2.4-.5 2.6-4.8l.2-4.7h-14.4c-10.9 0-14.3.3-14.2 1.2zM701.8 1.3c.6.7 1 3.1.8 5.2-.3 3.8.7 6.5 2.4 6.5 1.1 0 3.3-5.9 3.4-9 .1-1.5.7-2.5 1.6-2.5 1.1 0 1.4.9 1.2 3.2-.2 1.7.1 3.4.6 3.7.5.3 4.8.7 9.5 1 6.6.3 8.9.1 9.8-1 .6-.8 1.7-1.4 2.5-1.4 1.9 0 2.7-1.8 2-4.6L735 0h-17.1c-14 0-16.9.2-16.1 1.3zM763.6 9.5c.2 5.4-.1 9.5-.7 9.5-1.4 0-1.1 5.8.5 6.7.7.4 2.3 2.8 3.6 5.2 1.8 3.5 2 4.9 1.1 6.7-.6 1.3-1.5 2.4-2.1 2.4-.5 0-1 1.1-1 2.4 0 1.3-.7 2.6-1.5 3-1.9.7-1.9 2.6 0 2.6.8 0 2.9 1.3 4.7 2.9 2.6 2.3 3.2 3.6 3.3 7.2.1 4.1-.2 4.5-4.4 7.5-4.1 2.7-4.6 3.5-4.9 7.4-.3 3.3.2 4.8 1.9 6.6 2.6 2.8 3.9 2.9 8 .9 2.7-1.4 3.1-1.4 4.5 0 1.4 1.3 1.4 2.5.4 8.4-1.2 6.9-.4 11.1 2 11.1 1.6 0 1.3-75.3-.2-76.8-.8-.8-.8-1.2-.1-1.2.7 0 1.1-3.9 1.2-11l.2-11h-16.8l.3 9.5zM17.1 26.6c0 1.1.3 1.4.6.6.3-.7.2-1.6-.1-1.9-.3-.4-.6.2-.5 1.3zM366 36c0 .5.5 1 1 1 .6 0 1-.5 1-1 0-.6-.4-1-1-1-.5 0-1 .4-1 1zM640.8 112.2c-3.7 2.1-4.9 3.8-2.8 3.8.6 0 1 .7 1 1.5s.5 1.5 1 1.5c.6 0 1.5 1.2 2.1 2.6.5 1.5 1.2 2.4 1.5 2.1.3-.3 1.5.4 2.5 1.4 1.7 1.7 1.9 2.9 1.4 7.7-.4 3.1-.9 6.5-1.1 7.4-.5 1.6.2 1.8 4.8 1.8 3.8 0 4.9.3 3.8 1-1.2.8-1.2 1 .5 1 1.8 0 2-.7 2.2-7.6.1-6.7.4-7.8 2.5-9.2 1.2-.9 4.5-3.9 7.1-6.6 4.3-4.6 5.2-5.1 9.2-5.1 2.5 0 4.5.3 4.5.7 0 .5.7.8 1.5.8 1.8 0 1.9-1.4.3-2.8-.7-.5-7.3-1.3-14.5-1.6-7.3-.3-14.2-1-15.2-1.6-3.1-1.6-8.3-1.1-12.3 1.2zM635.5 143c-.3.5.3 1 1.4 1 1 0 2.6.3 3.5.6 1.1.4 1.6.1 1.6-1 0-1.8-5.4-2.3-6.5-.6zM368 155c-1.2.8-1.2 1 .2 1.5 1.9.7 3.8-.1 3.8-1.6 0-1.2-2.1-1.1-4 .1zM347.4 160.2c-1 1.6.2 1.8 2.1.5 1.6-1.2 1.6-1.4.1-1.4-.9 0-1.9.4-2.2.9zM336 164.1c0 .5.5.7 1 .4.6-.3 1-.8 1-1.1 0-.2-.4-.4-1-.4-.5 0-1 .5-1 1.1zM419.6 168.3c-1.4 1-1.7 2-1.1 3.3.6 1.5.8 1.6 1.3.4.3-.8.9-1.8 1.5-2.1.5-.4.8-1.2.6-1.8-.3-.8-1-.8-2.3.2zM414.7 168.7c-.4.3-.7 1.1-.7 1.7 0 .6.5.5 1.2-.2.6-.6.9-1.4.7-1.7-.3-.3-.9-.2-1.2.2zM439 199.6c0 1.4.3 1.4 1.5.4.8-.7 1.5-1.4 1.5-1.6 0-.2-.7-.4-1.5-.4s-1.5.7-1.5 1.6zM433.6 202.5c.4.8.8 1.5 1 1.5.2 0 .4-.7.4-1.5s-.4-1.5-1-1.5c-.5 0-.7.7-.4 1.5zM356 226.8c0 .5-2.1.8-4.7.7-5.9-.3-13.3 2.9-13.3 5.7 0 2.2 2.6 7.6 4.6 9.6 1.2 1.1 1.4.9 1.5-1.5.2-2.3.2-2.4.6-.6.4 2.2.9 2.3 8.4 2.3 5.1 0 7.8.4 7.4 1-.3.5-.2 1 .4 1 .5 0 1.1-.4 1.3-.9.4-1.4 9.1-1.8 9.5-.5.2.6 1.7.8 3.4.6 2.1-.3 2.9-.1 2.7.9-.2.8.4 1.4 1.2 1.5.8 0 2.3.4 3.3.9 1.7.7 1.7.8 0 2.1-1.5 1.1-1.5 1.3-.2 1.4.8 0 2-.5 2.7-1.2.9-.9 1.2-.8 1.2.4 0 .9-.5 1.8-1.1 2-.6.2.5.9 2.5 1.5 3 .9 3.6.9 3.6-.3s.5-1.2 3.3.2c1.7 1 3.7 2.4 4.3 3.2.8 1.1 1.3 1.2 1.8.3.5-.7 1.9 0 4.2 2.4 3.5 3.6 5.8 4.6 4.8 2-.4-.8-.3-1.5 0-1.5.4 0 1.1 1.2 1.7 2.7.7 1.9 1.3 2.3 2.1 1.5.6-.6.8-1.7.6-2.4-.7-1.8-.5-3.4.5-3 1.2.4.8-1.6-.8-3.2-.9-.8-1.1-1.7-.6-2.1 1.1-.6 3.1 2.6 3.1 5 0 1 .6 1.5 1.3 1.2.8-.3 1.4.3 1.4 1.6.1 1.1.6 2.3 1.2 2.6.5.4 1.5 2 2.2 3.6l1.2 3 1.1-4.3c.6-2.4 1.3-4.2 1.6-4 .3.2.2-.1-.2-.7-.5-.5-.8-2-.9-3.5 0-2.3-.1-2.3-.9-.5-.8 1.8-.9 1.8-.9.2-.1-1-.5-1.6-.9-1.3-.4.2-1.8-1.5-3.1-4-1.3-2.4-2.8-4.4-3.3-4.4s-.6-.5-.3-1c.3-.6.4-1 .1-1-.3 0-1.2 1.4-1.9 3.2l-1.3 3.2-1.8-4.4c-1.3-3.2-2-4-2.6-3-.7 1.1-1 .7-1.5-1.3-.4-1.5-1.3-2.7-2.1-2.7-.7 0-2-1-2.9-2.3-1.6-2.2-1.6-2.2-1 .8l.6 3-1.8-2.8c-1-1.5-2.5-2.7-3.4-2.7-1.6 0-3.4-2.6-3.1-4.3.3-.9-1-.9-2.7.2-1.1.7-1 1.3.4 3.5 2.8 4.3.9 2.9-3-2-1.9-2.6-3.5-4.2-3.5-3.5 0 .6-.7 1.1-1.5 1.1s-1.5-.5-1.5-1c0-.7-.6-.7-1.9-.1-1.5.8-2.2.6-3.3-1-1.1-1.8-2.5-2.1-8.6-2.3-3.9 0-7.2-.4-7.2-.9 0-.4-.9-.7-2-.7s-2 .4-2 .8zM340.9 237c.1 1.3 0 1.3-.9 0-.5-.8-.9-2.4-.9-3.5v-2l.9 2c.5 1.1.9 2.7.9 3.5zm58.4 8.9c-.5.7-4.3-3.1-4.3-4.2 0-.6 1 .1 2.3 1.4 1.3 1.3 2.2 2.6 2 2.8zm2.2 2.2c1.1 1.6.1 1.9-1.3.3-.7-.8-.8-1.4-.3-1.4s1.3.5 1.6 1.1zm15.5 3.8c1.6 3 1.2 3.6-1 1.6-2.1-1.9-2.6-3.5-1-3.5.5 0 1.4.9 2 1.9zm-17.5 2.1c.3.6-.1.7-.9.4-1.8-.7-2.1-1.4-.7-1.4.6 0 1.3.4 1.6 1zm23.5 7c1.2 2.3 1.2 2.4-.3 1.1-1-.7-1.7-2-1.7-2.9 0-1.8.3-1.6 2 1.8z"/><path d="M359.4 248.5c.3.8 0 1.5-.6 1.5s-.9.3-.5.6c.3.3 1.5.3 2.6-.1 2.3-.7 1.8-3.5-.6-3.5-.9 0-1.3.6-.9 1.5zM364.5 253c-4.2.5-8.4 2.5-7.4 3.4.3.3 2-.1 3.8-1 5.2-2.6 17.5 0 26.6 5.6 3.3 2 4.8 5 2.5 5-.5 0-1-.3-1-.8 0-.4-2.6-1.7-5.7-2.9-3.2-1.2-6.7-2.5-7.8-2.9-2.3-.8-4-1.2-10.7-2-5.8-.7-9.8 1.7-12.9 7.7-2.4 4.8-1.8 7.7 1.7 8.1l2.5.3-2.1 2.2c-2.4 2.7-1.9 2.9 1.5.7 1.8-1.2 3.5-1.4 6.7-.8 2.4.4 6.3.8 8.8 1 2.5.1 7.6.5 11.5.9 11.5 1.1 15.5 1.2 15.5.2 0-.5 2.1-.6 5-.2 2.7.4 5.4.4 6 0 1.6-1-1.7-4.5-4.2-4.5-2.7 0-12.8-6-12.8-7.6 0-1.9.3-1.8 4.6 1.1 2 1.4 4.8 2.5 6.2 2.5 2.3 0 2.3-.2-1.4-3.1-2.1-1.7-4.1-3.4-4.4-3.8-.7-1-9.7-5.1-11.2-5.1-.7 0-3.2-.7-5.5-1.5-6.7-2.3-11.5-3.1-15.8-2.5zm10.8 15.7c-.6 1.5 1.3 1.8 2.2.3.9-1.5 2.5-1.2 2.5.4 0 1.7-1.7 2.4-4.7 1.8-2.5-.5-3.3-3.9-.9-3.9.8 0 1.2.6.9 1.4zm7.2.3c.3.5.1 1-.4 1-.6 0-1.1-.5-1.1-1 0-.6.2-1 .4-1 .3 0 .8.4 1.1 1zM392.7 254.6c-1.1 1.1.3 2.4 2.6 2.3 1.5 0 1.7-.2.7-.6-.8-.3-1.8-1-2.1-1.5-.3-.4-.8-.5-1.2-.2zM348.6 258.8c-.3.5-1.9.7-3.7.4-2.2-.3-3-.1-2.5.6.4.7-.4 1.4-2 1.8-2.7.7-2.7.5-.5 8.4.8 3.1 1 3.3 1.6 1.3.4-1.2 1.3-2.4 2.1-2.7.8-.3 1.4-1.2 1.4-2.1 0-2 1-1.9 2.6.2 1.2 1.6 1.2 1.6.7-.5-.5-1.9-.2-2.3 1.2-2 1 .2 2-.3 2.2-1 .3-.6 0-1.2-.6-1.2s-.8-.6-.5-1.4c.6-1.6-1.2-3.1-2-1.8zM315.2 263c-1.7 2.7-.5 4.7 1.4 2.3 1.5-2 1.8-4.3.6-4.3-.4 0-1.3.9-2 2zM298 269.6c0 1.4.3 1.4 1.5.4.8-.7 1.5-1.4 1.5-1.6 0-.2-.7-.4-1.5-.4s-1.5.7-1.5 1.6zM532 284c2.8 2.2 4 2.5 4 1 0-1.1-3.3-3-5.2-3-.7 0-.2.9 1.2 2zM515.5 288c-1.2.4-2.7 1.5-3.4 2.3-1.5 1.9-1.1 6.1.7 6.3.6.1 1.3.2 1.5.4.9.7 4.3.7 5.2 0 1.4-1.2 1.8-7 .5-7-.5 0-1.1.6-1.1 1.2-.1.7-.4.1-.8-1.3-.5-2.2-1-2.5-2.6-1.9zM530.1 287.9c-1.5 1-.7 1.6 3.4 2.4 1.7.4 2.4.4 1.8.1-.7-.3-1.3-1.2-1.3-2 0-1.6-1.8-1.8-3.9-.5zM532.4 294.5c-.4 1.4-.1 3.2.6 4 .7.8 1 2.1.7 2.9-.3.7 0 1.9.6 2.5.8.8.8 1.4-.1 2.3-1.6 1.6-1.5 2.5.2 3.1 1 .4 1.3.1 1-.8-.7-1.9 2.5-6.5 4-5.9.9.3 1.5-.5 1.9-2.3.5-2.6.4-2.6-.9-.8-1.3 1.7-1.4 1.7-1.4.1 0-2.7-2.9-7.6-4.5-7.6-.8 0-1.7 1.1-2.1 2.5zM508.5 299c-.3.5-1.2 3.9-2 7.6-1.3 6-1.2 6.8.4 8.5 1.7 1.8 6.1 1.7 6.1-.2 0-.5.6-.6 1.3-.3.8.3 2-.3 2.8-1.2 1.1-1.3 1.1-1.8.2-2.1-.9-.3-1-1-.4-2.1.7-1.3-.2-2.9-3.4-6.5-2.4-2.6-4.6-4.3-5-3.7zM498.5 303c.3.5 1.2.7 2 .3 2.1-.7 1.9-1.3-.6-1.3-1.1 0-1.8.4-1.4 1z"/><path d="M498.4 307.7c1.4 4.8 1.7 9.1.7 9.7-.6.4-1.1 2.1-1.1 3.7 0 2.9-3.7 7.9-5.9 7.9-.5 0-1.9 1.5-3 3.4-2.2 3.4-2.9 9.6-1.1 9.6.6 0 1-1.1 1-2.5 0-2.2.4-2.5 3.3-2.5 2.8 0 7.1-2 8.7-4 1.5-1.9 4.6-2.7 7.4-1.9 8.7 2.6 16-5.8 13.7-15.7l-.9-3.9-.1 4.4c-.1 4.2-4.4 13.7-6.6 14.4-.5.2-2.3 0-4-.4l-3-.7 3.5-.2c2.5-.2 2.9-.4 1.2-.7-1.2-.2-2-.9-1.7-1.4.4-.5.1-.9-.4-.9-.6 0-1.1-.6-1.1-1.4 0-.7-.9-2.5-2-3.9s-2-3.5-2-4.6c0-1.2-.7-2.4-1.5-2.7-.8-.4-1.5-1.7-1.5-3s-.9-2.8-2.1-3.5c-1.8-.9-2-.8-1.5.8zm2 22.8c-.7 1.7-2 2-2.9.6-.3-.5.3-1.2 1.2-1.4 1-.3 1.9-.5 2-.6.1 0 0 .6-.3 1.4zM533.7 311.7c-.4.3-.7 1.3-.7 2.2.1 1.3.3 1.3 1.1-.2 1.1-1.9.8-3.3-.4-2z"/><path d="M514 317.2c0 .4.9.8 2 .8s2-.4 2-.8-.9-.8-2-.8-2 .4-2 .8zM531.5 317.8c-1 .7-5.7 13.2-5 13.2.7 0 5.2-8.8 5.9-11.4.7-2.8.6-3-.9-1.8zM308 322.5c0 1 .7 1.5 1.8 1.3 2.1-.4 1.9-2.2-.2-2.6-1-.2-1.6.3-1.6 1.3zM287 323.1c0 1.3 3.5 4.4 7.5 6.5 2.7 1.4 2.5 1.1-1.5-3-4.4-4.6-6-5.5-6-3.5zM307.3 326.7c-.7.2-1.3 1.3-1.3 2.4 0 2.3 4 3.5 6.9 1.9 1.7-.8 2.1-.8 1.9.2-.2.8.9 1.4 2.7 1.6 4.2.5 5.1 1.7 1.2 1.7-1.8 0-3.7-.7-4.4-1.5-1-1.3-1.4-1.3-2.5-.1-1 1.1-1 1.4 0 1.8.6.3 1.2 1.1 1.2 1.9 0 .9.4 1.3.9.9 1-.6 3.7 3.4 3.3 4.7-.3 1.2 1.6 1 4.1-.4 1.2-.6 5.5-1.1 9.5-1 5.6.1 7.2-.2 7.2-1.4 0-.8.6-1.4 1.3-1.4 2.8-.1 5.9-4 6.5-8.2.5-3.8.4-4.1-1-2.8-.8.8-1.8 2.7-2.1 4.1-.7 2.8-2.4 3.9-7 4.5-2.1.3-4-.5-7-3-2.3-1.8-5.6-4.1-7.4-5-3-1.5-11.3-2.1-14-.9zm11.4 4.9c-.3.3-1.2.4-1.9.1-.8-.3-.5-.6.6-.6 1.1-.1 1.7.2 1.3.5zm8.7 2.9c1.6 1.2 1.7 1.5.4 1.5-2.6 0-4.8-1.1-4.2-2.1.7-1.2 1.6-1.1 3.8.6zM521.8 334.1c-2.1 1.1-3.8 2.1-3.8 2.4 0 1.3 2.8.3 5.5-2 3.5-2.9 3.3-2.9-1.7-.4zM302.7 345.1c-3.7 3.7-3.7 3.9-1.5 3.9 1.3 0 2.9.9 3.6 2 1.1 1.7 1.6 1.9 3.4.9 1.2-.7 3.3-1.2 4.7-1.3 2.9-.1 4.2-2.6 1.3-2.6-1.3 0-2.2-.9-2.7-2.7-1.3-5.4-3.6-5.4-8.8-.2z"/><path d="M322 342.9c0 1.6 3 3.3 4.7 2.6 1.6-.6 1.5-.8-.7-2-2.9-1.7-4-1.8-4-.6zM485.7 344.4c-.6 1.6.2 2.8 1.4 2 1.2-.7 1.1-3.4 0-3.4-.5 0-1.1.6-1.4 1.4zM481.7 353.3c-1 2.6-.9 5.7.2 5.7 1.5 0 1.8-1.2 1.1-4.5-.5-2.5-.7-2.7-1.3-1.2zM302 356c0 .5.5 1 1 1 .6 0 1-.5 1-1 0-.6-.4-1-1-1-.5 0-1 .4-1 1zM308.8 355.7c-3.3.5-3.5 2.1-1.1 7.6l1.8 3.9 5.1-.7c4-.5 5.5-.3 6.8 1 .9.9 2 1.4 2.5 1.1.5-.3 2.5.1 4.4.9 6 2.5 7.2 11.4 1.8 13.3-2.9 1-7.1-.1-7.1-1.8 0-.6-.7-.4-1.6.4-2.3 2.3-5.9 3-9.5 1.7-1.8-.6-4.7-1.1-6.5-1.1-4.2 0-6.4-.9-6.4-2.5 0-.7-1.3-1.6-3-2-2.8-.6-3-1-3-4.8 0-4.7.5-5.6 3.8-7.5 1.7-.9 2.7-1 3.6-.2 1 .7 1.7.6 2.5-.4.9-1.1.5-1.5-2.1-2.1-3.4-.8-13.7-1-14.2-.4-.1.2-1.2 2.3-2.4 4.6-1.9 3.8-2 4.5-.7 7 .8 1.5 1.5 2.3 1.6 1.8 0-.6.9.8 1.9 3 1 2.2 1.9 3.4 1.9 2.7.1-1 .4-1 1.5 0 .8.7 1.2 1.6.9 2.1-.5.8 2.1 3.7 3.2 3.7.4 0 .5-.6.2-1.3-.4-1 .5-.8 3.1.5 2.1.9 5.4 1.9 7.4 2 2.1.2 3.8.6 3.8.9 0 .3 1.1.4 2.5.1 3.4-.6 2.7-1.2-2.3-1.7-3.6-.3-10.4-3.5-7.6-3.5.5 0 1.4.4 2 1 .5.5 4.2 1.2 8.2 1.6 5.1.5 7.2 1.1 7.2 2.1 0 1.1.5 1 2.5-.3 2.5-1.7 6.1-1.2 5 .6-.3.5-.2 1 .3 1 .6 0 1.3-.7 1.6-1.5.5-1.3 1-1.4 2.7-.4 1.2.6 1.9.7 1.5.1-.7-1.1 5.9-2.6 7.4-1.7.5.3 1.9.1 3-.5 1.7-.9 2-.8 2 1.1 0 2 .2 2.1 1.8.8.9-.8 3.4-2.2 5.4-3.2 7.3-3.3 5.6-10.7-3.2-13.3-3.9-1.2-6.5-2.2-13.2-5.5-1-.5-2.4-.6-3.2-.3-.8.3-2.3.1-3.3-.6-1.6-.9-1.5-1 .7-.5 2.3.5 2.3.5.6-.6-1.1-.7-4.1-1.2-6.7-1.2-2.7-.1-4.6-.5-4.3-.9.3-.5 1.5-.6 2.6-.2 2 .6 1.9.5-.1-1.5-1.2-1.2-2.8-2.1-3.7-2.1-.8 0-2.2-.7-3-1.5-.9-.8-2.1-1.4-2.7-1.4-.7.1-2.4.4-3.9.6zm5.5 4.5c-.4.8-3.3 1.1-3.3.4 0-.2.3-1.1.6-2 .5-1.2.9-1.3 1.9-.3.7.7 1.1 1.5.8 1.9zm1.7 2.8c0 .5-1 1-2.2 1-1.9 0-2-.2-.8-1 1.9-1.3 3-1.3 3 0zm24.8 9.5c2.6 3 2.9 8.7.6 10.6-1.4 1.2-2 .9-4-1.6-2.8-3.5-3.3-9.5-.8-9.5.8 0 1.2-.5.9-1-1.3-2 1.2-.9 3.3 1.5z"/><path d="M303 359c0 .5-.7.6-1.7.3-1.1-.4-1.4-.3-.9.5 1 1.7 3.3 1.5 4-.3.3-.8.1-1.5-.4-1.5-.6 0-1 .4-1 1zM325.5 361c.3.5.8 1 1.1 1 .2 0 .4-.5.4-1 0-.6-.5-1-1.1-1-.5 0-.7.4-.4 1zM315 388.4c0 .2.7.6 1.5 1 .8.3 1.5.1 1.5-.4 0-.6-.7-1-1.5-1s-1.5.2-1.5.4zM322 389c-.8.5-1 1-.5 1 .6 0 1.7-.5 2.5-1s1.1-1 .5-1c-.5 0-1.7.5-2.5 1zM341 389c0 .5.7 1 1.5 1s1.5-.5 1.5-1c0-.6-.7-1-1.5-1s-1.5.4-1.5 1zM319.5 399.7c1.1.3 2.2.9 2.5 1.4.3.4 2.4.2 4.5-.6l4-1.4-6.5.1c-3.6 0-5.6.3-4.5.5zM453.3 401.6c-1.9 2-1.6 3.8.3 2 .8-.9 1.4-2 1.2-2.5-.2-.5-.9-.3-1.5.5zM317 403c-1.2.8-1.1 1 .7 1 1.2 0 2.5-.5 2.8-1 .8-1.3-1.5-1.3-3.5 0zM468.5 416c-.3.5-.1 1 .4 1 .6 0 1.1-.5 1.1-1 0-.6-.2-1-.4-1-.3 0-.8.4-1.1 1zM468 436.4c0 .9.7 1.6 1.6 1.6.9 0 1.4-.5 1.2-1.2-.6-1.8-2.8-2.1-2.8-.4zM388.5 437c-.3.5.1 1 1 1s1.3-.5 1-1c-.3-.6-.8-1-1-1-.2 0-.7.4-1 1zM470.5 443c-.3.5-.1 1 .4 1 .6 0 1.1-.5 1.1-1 0-.6-.2-1-.4-1-.3 0-.8.4-1.1 1zM604.5 449.1c-.3.4.2 2 1.1 3.4 1.5 2.3 1.5 2.8.1 5.7-2.3 4.9-1.5 12.4 1.5 15.5 2.5 2.5 6.1 2.9 19.4 2.4 4-.1 4.2-.3 4.6-3.6.5-4-1.8-10.5-3.7-10.5-.7 0-1.5-.6-1.8-1.4-.3-.7-2.5-1.8-4.9-2.4-2.5-.7-5.6-2.4-7.3-4.2-3.4-3.6-8.2-6.2-9-4.9zM563 470c0 1.2 4.4 2.4 6.2 1.7.7-.3.3-.6-.9-.6-1.2-.1-2.5-.6-2.8-1.1-.8-1.3-2.5-1.3-2.5 0zM664.9 550.5c-.2 3.4-.2 3.5-2.2 7.2-1.8 3.5-2.4 7-.7 4.3.8-1.3 1-1.2 1 .4 0 1.2.5 1.6 1.5 1.2.8-.3 1.5-.1 1.5.5s-1.3.8-2.9.6c-3.5-.6-4.9 1.6-2.6 3.9 1.3 1.4 1.5 1.3 1.5-.5 0-1.4.5-1.9 1.5-1.4.9.3 1.3.8 1.1 1.1-.3.3-.1 1.1.5 1.9.9 1 .7 1.3-.7 1.4-1.1 0-1.4.3-.6.6 1.8.7 1.5 2.1-.8 2.8-1.1.3-2 1.4-2 2.3.1 1.6.2 1.6 1.4-.1.7-.9 1.8-1.7 2.5-1.7.6 0 1.4-1.4 1.8-3 .6-3.1 1.8-3.9 2.5-1.8.3.8 1.1.7 2.8-.5 2.7-1.9 5.5-2.3 4.5-.7-.4.6-1 .8-1.4.6-.4-.3-1.2.4-1.9 1.5-.8 1.2-.9 1.9-.1 1.9.5 0 .7.5.4 1-.4.6-.8 2.3-1.1 3.8-.3 2.5-.2 2.5 1.4-.7 2.1-4.2 3.7-4.9 3.9-1.9.2 2.2 3.9 5.8 5.8 5.7.6 0 .5-.3-.2-.5-.7-.3-.9-1.3-.6-2.2.4-1.4.3-1.5-.5-.2-.9 1.2-1.3.9-2.2-1.5-.9-2.4-.8-3.1.5-4.2 1-.6 1.4-1.8 1-2.5-.3-.7.3-.2 1.5 1.1 1.6 1.8 1.8 2.6.8 3.2-.6.4-1.6.5-2.2.2-.5-.4-.6-.1-.1.6.4.8 1.7 1 3.1.7 1.6-.4 2.4-.2 2.4.6.1.7.9.3 1.9-1 1.9-2.2 3.8-3.1 2.6-1.2-.3.5.1 1 1 1 1.2 0 1.5-.6.9-2.3-1-3.2-2.4-4.7-4-4-1.7.6-1.8-.9-.2-2.5.9-.9.9-1.2-.1-1.2-.7 0-.9-.5-.6-1 .8-1.3-2.5-2.6-3.4-1.4-.3.5-1.8 1-3.3 1.2-2 .2-2.8-.2-2.8-1.3 0-1.3-.6-1.5-3.1-1-2.2.5-2.9.4-2.5-.4.4-.6 1.4-1.1 2.2-1.1 2.5 0 1.5-2.8-1.2-3.4-1.8-.5-3.3-.1-4.7 1.1-1.9 1.8-2 1.8-.6-.5.8-1.2 1.9-2.2 2.6-2.2.7 0 1.3-.5 1.3-1 0-1-.7-1.2-4.5-1.4-1.4-.1-2-.8-1.9-2.4 0-1.2-.3-2.2-.8-2.2-.4 0-.9 1.1-.9 2.5zm2.1 6.5c0 .5-.4 1-1 1-.5 0-1-.5-1-1 0-.6.5-1 1-1 .6 0 1 .4 1 1zm1.7 3.6c-.3.3-1.2.4-1.9.1-.8-.3-.5-.6.6-.6 1.1-.1 1.7.2 1.3.5zm2.8 4c2 1.5 2 1.5.1 2.9-2.4 1.8-5.3.1-3.6-2 .8-.9.7-1.5-.2-1.8-.9-.4-.9-.6.2-.6.8 0 2.4.7 3.5 1.5zm6.5.8c0 .2-.9.6-2 .9-1.1.3-2 .1-2-.4s.9-.9 2-.9 2 .2 2 .4zm9 3.8c2.3 2.4 2.6 4.2.8 3.5-.7-.2-1.3-1-1.3-1.8-.1-.8-.6-1.3-1.1-1.2-.6.1-1.1-.5-1.1-1.3 0-1.9.3-1.8 2.7.8z"/><path d="M681 561.6c0 .8.5 1.2 1 .9.6-.4.8-1.1.5-1.6-.9-1.4-1.5-1.1-1.5.7zM652.3 568.2c-1.3 2.1-1 7.8.5 7.8.7 0 1-.5.7-1-.3-.6-.1-1 .6-1 1 0 1-.3.1-1.2-1.8-1.8-1.5-4.6.6-5.1 1.5-.4 1.5-.5 0-.6-.9 0-2 .5-2.5 1.1zM656 570.3c0 .9.5 1.7 1.1 1.7.6 0 .8.9.4 2-.8 2.5.1 2.6 1.3.2.7-1.2.4-2.2-.9-3.6-1.7-1.7-1.9-1.8-1.9-.3zM696 571.5c0 .3.9 1.5 2 2.7 2.2 2.4 2.7 1.3.6-1.5-1.3-1.6-2.6-2.3-2.6-1.2zM667.5 574c-.3.6.1.7.9.4 1.8-.7 2.1-1.4.7-1.4-.6 0-1.3.4-1.6 1zM668 577.1c0 .5.5.7 1 .4.6-.3 1-.8 1-1.1 0-.2-.4-.4-1-.4-.5 0-1 .5-1 1.1zM691 576.9c1.2.8 1 1.2-1 2s-2.1 1-.6 1c1 .1 2.5.9 3.3 1.8 1 1.3 1.6 1.5 1.9.5.3-.6 1.3-1.3 2.2-1.3 1-.1.4-.4-1.3-.8-1.6-.3-3-1.3-3-2 0-.8-.7-1.6-1.5-1.8-1.3-.4-1.3-.3 0 .6zM695.8 577.7c.7.3 1.6.2 1.9-.1.4-.3-.2-.6-1.3-.5-1.1 0-1.4.3-.6.6zM708 579c0 .5.5 1 1.1 1 .5 0 .7-.5.4-1-.3-.6-.8-1-1.1-1-.2 0-.4.4-.4 1zM657.2 581.2c.2.6 2.1 1.7 4.1 2.4 2 .7 6.7 2.8 10.4 4.6 3.8 1.8 7.3 3.3 7.8 3.3.6 0 1.5.7 2.2 1.5.6.8 1.4 1.2 1.8.8.8-.7-2.5-4.3-4-4.3-.5 0-3.5-1.2-6.5-2.6-8.6-4.1-15-6.9-15.6-6.9-.3 0-.4.5-.2 1.2zM673.8 581.4c-1.6 1.2-1.5 1.3 1.1 1.2 2.2-.1 2.7-.4 1.9-1.4-.6-.6-1.1-1.2-1.2-1.2l-1.8 1.4zM715 580.9c0 .5.7 1.1 1.5 1.5.9.3 1.5 0 1.5-.9 0-.8-.7-1.5-1.5-1.5s-1.5.4-1.5.9zM700.8 581.7c.7.3 1.6.2 1.9-.1.4-.3-.2-.6-1.3-.5-1.1 0-1.4.3-.6.6zM705.1 581.3c.2.1 1.3.9 2.4 1.7 1.9 1.4 1.9 1.4.6-.3-.7-.9-1.8-1.7-2.4-1.7-.6 0-.8.1-.6.3zM687.8 584.2c-2.7.9-3.9 2.8-1.8 2.8.6 0 1-.5 1-1.1 0-.6.9-.9 2-.6 1.3.3 2 0 2-.9 0-.8-.1-1.4-.2-1.3-.2 0-1.5.5-3 1.1zM711.2 584.2c.5 1.3 3.8 2 3.8.8 0-.4-.9-1-2.1-1.3-1.2-.3-1.9-.1-1.7.5zM702.5 586c-.4.6.7 1 2.5 1s2.9-.4 2.5-1c-.3-.6-1.5-1-2.5-1s-2.2.4-2.5 1zM694.8 589c-1 1.1-1.3 2.2-.8 2.5.6.4 1 .1 1-.5s.5-.8 1.2-.4.8.3.4-.4-.1-1.2.9-1.2c.9 0 1.3-.5 1-1-.9-1.4-1.7-1.1-3.7 1zM701.7 588.7c-.4.3.2 1.3 1.4 2.1 2.3 1.6 3.4 1 2.6-1.3-.7-1.5-2.8-2-4-.8zM640 590.9c0 1 2.6.9 3.6-.2.4-.4-.2-.7-1.4-.7s-2.2.4-2.2.9zM690.2 591.3c-.6.7-.7 1.8-.2 2.6.4.8.6 2 .3 2.8-.3.7.2 1.3 1 1.3.9 0 2 .8 2.6 1.7.9 1.7 1.1 1.7 2.7.2 1.5-1.6 1.4-1.7-1.2-2.3-3.3-.7-5.8-4.8-4.1-6.5.6-.6.8-1.1.5-1.1-.3 0-1 .6-1.6 1.3zM685.6 593.7c-.3.3-.3 1 0 1.4.7 1.2 3.4 1.1 3.4 0s-2.6-2.2-3.4-1.4zM638.6 595.6c-.3.7.1 1.5.9 1.7 1.5.6 2.5-.1 2.5-1.8 0-1.6-2.8-1.5-3.4.1z"/><path d="M695.5 595c-.4.6.3 1 1.4 1 2.5 0 2.7-.6.6-1.3-.8-.4-1.7-.2-2 .3zM743.8 596.7c.7.3 1.6.2 1.9-.1.4-.3-.2-.6-1.3-.5-1.1 0-1.4.3-.6.6zM637.5 600c-.3.5-.1 1 .4 1 .6 0 1.1-.5 1.1-1 0-.6-.2-1-.4-1-.3 0-.8.4-1.1 1zM640 601.9c0 1.7 3.2 3.5 6.5 3.6 3.1.2 3.3 0 2.4-1.7-.8-1.6-1.3-1.7-2.5-.7-1.1.9-1.8.8-3.2-.5-2.1-1.8-3.2-2.1-3.2-.7zM651 601.7c.1 1.6 2.8 4.4 3.4 3.4.3-.5-.1-1.7-1-2.5-1.7-1.8-2.4-2-2.4-.9zM657.7 601.7c-1.2 1.2-.7 2.2.8 1.7.8-.4 1.5-1 1.5-1.5 0-1.1-1.4-1.2-2.3-.2zM661 601.9c0 .5.5 1.3 1 1.6.6.3 1 .2 1-.4 0-.5-.4-1.3-1-1.6-.5-.3-1-.2-1 .4zM665.7 604.4c-.4 1-.5 2.1-.2 2.4.9.9 1.7-.6 1.3-2.5-.3-1.7-.4-1.7-1.1.1zM636 607.6c0 1-.6 1.4-1.5 1-.8-.3-1.5-.1-1.5.4 0 .6.9 1 2 1 1.3 0 2-.7 2-2 0-1.1-.2-2-.5-2s-.5.7-.5 1.6zM641.3 608c.1 1.1.5 2 .9 2 1.1 0 1-2.8-.1-3.5-.6-.3-.9.4-.8 1.5zM668 607c0 .5.5 1 1 1 .6 0 1-.5 1-1 0-.6-.4-1-1-1-.5 0-1 .4-1 1zM673.7 606.7c-.9 1.4.9 2.7 2.3 1.8.6-.3 1-1.2 1-1.8 0-.8-.3-.7-.9.2-.7 1.1-.9 1.1-1.3 0-.3-.9-.6-1-1.1-.2zM678 607c0 .5.5 1 1 1 .6 0 1-.5 1-1 0-.6-.4-1-1-1-.5 0-1 .4-1 1zM645.6 608.6c-.5 1.4-.4 1.5.9.4 1.7-1.4 1.9-2 .6-2-.5 0-1.2.7-1.5 1.6zM651.4 608.4c-.3.9-.4 2.3 0 3.1.3.8.1 1.5-.5 1.5-.5 0-1.2-.6-1.5-1.4-.3-.8-1.3-1.2-2.5-.9-2.6.7-2.4 2.3.4 2.4 1.2 0 1.6.3 1 .6-2 .8-1.5 2.3.8 2.3 1.1 0 3-1 4.1-2.3l2-2.2-.5 2.2c-.4 1.7.2 2.4 2.7 3.4 1.7.6 3.4 1.1 3.8 1.1 1-.2 3.1 3.8 2.4 4.5-.3.3-1.2 0-2.1-.7-1.1-.9-1.5-.9-1.5-.1 0 .6 1 1.6 2.3 2.2 2.1.9 2.1.9-.3.4-1.4-.2-3.3-.5-4.2-.5-1 0-1.8-.7-1.8-1.5s-1.1-1.7-2.5-2.1c-1.4-.3-2.2-1-1.9-1.5.3-.5-.9-.9-2.5-.9-1.7 0-3.1.4-3.1 1 0 .5.3 1 .8 1.1 2.7.3 4.4 1 7.7 3.2 2 1.4 3.5 2.9 3.3 3.3-.2.5.8 1.1 2.2 1.2 1.4.2 2.9.8 3.5 1.3 1.9 1.9 2.7.8 2.2-3.1-.3-2.7-.1-4 .7-4 .6 0 1.2-1 1.3-2.1.2-1.7-.1-1.9-1-1-1.5 1.5-2.7 1.4-2.7-.2 0-1.6-3.2-4.4-5.7-4.9-1.2-.2-1.7-1.1-1.5-2.6.2-1.2-.2-2.2-.7-2.2-.6 0-1.1.5-1.1 1.1 0 .5-.5.7-1 .4-.6-.4-.8-1-.5-1.5.3-.5.1-1.1-.5-1.5-.6-.3-1.3.1-1.6.9zM659.8 607.7c.7.3 1.6.2 1.9-.1.4-.3-.2-.6-1.3-.5-1.1 0-1.4.3-.6.6zM663.2 610c0 1.4.2 1.9.5 1.2.2-.6.2-1.8 0-2.5-.3-.6-.5-.1-.5 1.3zM713 609.1c0 .5.5.7 1 .4.6-.3 1-.8 1-1.1 0-.2-.4-.4-1-.4-.5 0-1 .5-1 1.1zM668.9 611.1c1.3 1.2 2.9 1.8 3.8 1.5.9-.4 2.4.1 3.3.9 1.2 1 2 1.3 2.4.6.8-1.3-4.4-4.1-8.6-4.6l-3.1-.4 2.2 2z"/><path d="M658.5 611c.4.6 1.1.8 1.6.5 1.4-.9 1.1-1.5-.7-1.5-.8 0-1.2.5-.9 1zM664.5 613c-.3.5-.1 1 .4 1 .6 0 1.1-.5 1.1-1 0-.6-.2-1-.4-1-.3 0-.8.4-1.1 1zM689 615.4c0 2.4.2 2.6 2.1 1.6 1.1-.7 1.9-1.3 1.7-1.4-.1-.1-1.1-.8-2-1.5-1.6-1.2-1.8-1.1-1.8 1.3zM644.2 618c0 1.4.2 1.9.5 1.2.2-.6.2-1.8 0-2.5-.3-.6-.5-.1-.5 1.3zM694 618c0 .6.4 1 .9 1s1.1 1 1.4 2.2c.4 1.2.9 1.9 1.3 1.6.9-1-.5-4.6-2.1-5.2-.8-.3-1.5-.1-1.5.4zM676.6 619.3c.3 1 .9 1.5 1.2 1.2.3-.3 0-1.1-.7-1.8-1-.9-1.1-.8-.5.6zM658.2 621c0 1.4.2 1.9.5 1.2.2-.6.2-1.8 0-2.5-.3-.6-.5-.1-.5 1.3zM639.6 621.7c-1.1 1.1-.6 2.3.8 2.3.8 0 1.7 1.2 2 2.6.5 1.9 1.2 2.5 2.6 2.1 1-.3 2.1 0 2.4.7.2.6.5-.2.5-1.7.1-1.6.5-2.6 1.1-2.2.6.3 1 0 1-.7 0-.9.3-.9 1 .2s1 1.1 1 .2c0-.8.5-1 1.3-.6.9.5.9.4 0-.6-.6-.7-2.3-1.4-3.6-1.5-2-.2-2.7.3-3.1 2.1-.7 2.5-2.6 3.3-2.6 1.1 0-1.5-3.6-4.8-4.4-4zM635.9 622.9c.7.5 1 1.4.7 2-.4.6-.1 1.1.7 1.1 1 0 1.3-.7 1-2-.3-1.1-1.3-2-2.2-2-1.3 0-1.3.2-.2.9zM700.6 623.5c-.3.8-.1 1.5.4 1.5.6 0 1-.7 1-1.5s-.2-1.5-.4-1.5-.6.7-1 1.5zM703.1 626.1c-1.2 3.6.2 5.8 3.4 5.2 1.8-.4 1.8-.3.3.7-2.7 1.7-2.1 3 .7 1.7 3-1.4 2.8-2.9-.5-3.7-1.3-.3-2.5-1.1-2.8-1.8-.2-.7.2-1 1.1-.6 1.2.4 1.4 0 1-1.5-.9-3.4-2-3.4-3.2 0zM714.8 625.7c.7.3 1.6.2 1.9-.1.4-.3-.2-.6-1.3-.5-1.1 0-1.4.3-.6.6z"/><path d="M650 628c0 .6.7 1 1.5 1s1.5-.2 1.5-.4-.7-.6-1.5-1c-.8-.3-1.5-.1-1.5.4zM636 629.5c0 .8.5 1.5 1.1 1.5.5 0 .8.4.4.9-.3.5-.1 1.2.4 1.5.5.3 1.1-.1 1.5-.9.3-.8 1.2-1.2 2.1-.9.8.4 1.5.1 1.5-.6 0-.8-.9-1-2.5-.6-1.8.5-2.5.2-2.5-.9 0-.8-.4-1.5-1-1.5-.5 0-1 .7-1 1.5zM628.6 630.6c-.3.7.6 1.4 1.9 1.6 2.7.6 5.4-.7 4.2-1.9-.5-.4-1.2-.1-1.7.7-.8 1.3-1.4.8-1.2-1.1.1-1.1-2.7-.5-3.2.7zM652.9 630.2c-.5 1.8-.6 3.9-.2 3.4.4-.3 1.2-.1 2 .5.8.8 1.3.8 1.3.1 0-.6.3-1.7.6-2.6.4-1.2 0-1.6-1.5-1.6-1.2 0-2.1.1-2.2.2zM642 634.6c-1.9 1.9-2.1 2.4-.8 2.4.9 0 1.9-.6 2.1-1.3.3-.6.6-.1.6 1.3.1 2.3.2 2.3 1.8.8 1.3-1.4 1.4-2 .4-3.2-.9-1.1-.9-1.5.1-1.9.9-.4.9-.5-.2-.6-.8 0-2.6 1.1-4 2.5zM657 634c0 1.1.7 2 1.5 2s1.5-.9 1.5-2-.7-2-1.5-2-1.5.9-1.5 2zM626 634.6c0 1.7 2.7 3.7 4 2.9.6-.3.8-1.1.4-1.6-.3-.5-1-.6-1.6-.3-.6.4-1.4 0-1.9-.7-.5-.8-.9-.9-.9-.3zM648.5 635c.3.5.8 1 1.1 1 .2 0 .4-.5.4-1 0-.6-.5-1-1.1-1-.5 0-.7.4-.4 1zM677.5 635c-.3.6-.1 1 .4 1 .6 0 1.1.7 1.1 1.5 0 1.9 1.6 2 2.3.2.6-1.6-2.9-4.1-3.8-2.7zM634.5 637.8c-.6.4-1.2 1.7-1.2 2.8-.1 2 .1 2.1 2.8 1.1 3.4-1.3 3.8-2.7.8-2.7-1.1 0-1.7-.5-1.4-1 .7-1.2.4-1.3-1-.2zM648.6 638.9c-.3.5.1 1.2 1 1.5 2 .8 2.9.1 1.9-1.3-.8-1.3-2.2-1.4-2.9-.2zM653.5 639c-.3.5-.2 1 .4 1 .5 0 1.3-.5 1.6-1 .3-.6.2-1-.4-1-.5 0-1.3.4-1.6 1zM657.1 639.8c-.7 1.3-.6 2.3.1 3 .9.9.9 1.2 0 1.2-.7 0-1.2.4-1.2 1 0 .5.8.6 1.7.3 1.3-.5 1.5-.2 1 1.1-.5 1.2.1 1.9 2 2.7 1.4.5 3.4.8 4.2.6 1.3-.4 1.4-.5.1-.6-1.2-.1-1.5-1.2-1.3-4.9.2-3.2 0-4.1-.5-2.7-.5 1-.8 3-.6 4.2.3 2.8-1.2 3-2.6.4-.7-1.4-.6-2.1.3-2.5.9-.3.8-.8-.4-1.8-.9-.7-1.4-1.9-1.2-2.6.7-1.9-.5-1.4-1.6.6zM629 642c0 1.6.2 3 .4 3s.6-1.4.8-3c.3-1.7.1-3-.4-3-.4 0-.8 1.3-.8 3zM646.1 643.2c-.1 1.5.4 3 .9 3.3.6.3 1 .1 1-.4 0-.6.5-1.1 1-1.1.6 0 .8 1.1.4 2.5-.5 2-.3 2.4 1 1.9 1.1-.4 1.6-.1 1.6 1 0 .9.5 1.6 1 1.6 1.8 0 1-2.4-2-6-1.9-2.2-3-3-3.1-2 0 .8-.5.4-.9-1l-.8-2.5-.1 2.7zM632 645.5c0 .8.8 1.1 2 .8 1.1-.3 2-.7 2-.8 0-.1-.9-.5-2-.8-1.2-.3-2 0-2 .8zM636.7 646.6c-.4.4-.4 1-.1 1.5.6 1 3.4 0 3.4-1.2 0-1-2.4-1.2-3.3-.3zM655.3 652c.3 1.1.1 2.2-.4 2.5-.5.4-.8 1.6-.7 2.8 0 1.2-.3 3.4-.7 4.9-.4 1.8-.3 2.8.4 2.8.6 0 .8-.7.5-1.5-.4-.8-.1-1.5.5-1.5s1.1.4 1.1 1c0 .5.7.7 1.5.4 1.1-.4 1.5.1 1.6 1.7.1 1.9.2 2 .6.6.3-1.1 1.1-1.6 1.9-1.3 1.6.6 2-1.9.4-2.9-.5-.3-1-1.1-1-1.7 0-.7.4-.7 1.3.1.8.6 1.8.7 2.2.3.5-.4.5.1.2 1-.5 1.4 0 1.7 2.3 1.5 2.6-.2 4.5-1.7 2.1-1.7s-4.2-3.3-3.6-6.6c.2-1.9.1-3.4-.4-3.4-1.3 0-2.1 2.8-1.4 4.7.6 1.6.5 1.6-1 .4-1.3-1-1.4-1.8-.6-3.2.8-1.5.6-1.9-.6-1.9-.9 0-1.4.3-1.2.7.3.5-.1 1.3-.8 2-1 1-1.4.7-1.9-1.3-.4-1.3-1.1-2.4-1.7-2.4-.6 0-.9.9-.6 2zm1.7 3.4c0 .3-.4.8-1 1.1-.5.3-1 .1-1-.4 0-.6.5-1.1 1-1.1.6 0 1 .2 1 .4zm4.7 2.2c-.3.3-1.2.4-1.9.1-.8-.3-.5-.6.6-.6 1.1-.1 1.7.2 1.3.5zM644 652.4c0 .8-.6 1.7-1.2 1.9-.8.3-.6.6.4.6.9.1 2.2.9 2.7 1.8.9 1.5 1 1.2.9-1.4-.2-3.1-2.8-5.7-2.8-2.9zM648.6 652.7c-.6 1.4-.5 1.5.5.6.7-.7 1-1.5.7-1.8-.3-.3-.9.2-1.2 1.2zM648.6 656.5c.4.8.8 1.5 1 1.5.2 0 .4-.7.4-1.5s-.4-1.5-1-1.5c-.5 0-.7.7-.4 1.5z"/><path d="M668 656c.8.5 2 1 2.5 1 .6 0 .3-.5-.5-1s-1.9-1-2.5-1c-.5 0-.3.5.5 1zM672.6 657.8c.6.4 1.4 1.4 1.7 2.2.4 1 .6.8.6-.8.1-1.5-.5-2.2-1.6-2.2s-1.4.3-.7.8zM648.8 659.9c-1.1.4-1.4 1.1-1 1.9.7.9 1.2.9 2.7-.1 2-1.6.9-2.8-1.7-1.8zM670 659.4c0 .2.7.6 1.5 1 .8.3 1.5.1 1.5-.4 0-.6-.7-1-1.5-1s-1.5.2-1.5.4zM667 664.2c0 .5-.4.6-1 .3-.5-.3-1-.1-1 .4 0 .6.5 1.2 1 1.2.6.1 1.4.2 2 .3.5 0 1.4.6 2.1 1.3 1.2 1.2 3.9.7 3.9-.9 0-.5-.4-.7-.9-.4-.5.3-1.1 0-1.4-.8-.6-1.6-4.7-2.9-4.7-1.4zM652 669.1c0 1.4-.5 1.9-1.7 1.7-1-.2-1.7-1-1.5-1.6.3-1.5-3.5-1.6-4.4 0-.4.6-.3.8.4.4.5-.3 1.2-.2 1.4.4.1.5 1.8 1.2 3.6 1.6 3 .6 3.2.5 3.2-2 0-1.4-.2-2.6-.5-2.6s-.5.9-.5 2.1zM661 668.9c0 1.1-.6 2.1-1.4 2.3-.8.2.1 1 2 2 3.3 1.7 3.4 1.7 3.4-.2 0-1.8.2-1.9 2-.8 1.7 1.1 2.2 1 3-.2.5-.8.6-1.9.3-2.4-.4-.6-.8-.5-1.1.2-.5 1.6-2.3 1.6-1.9-.1.1-.8-.8-1.1-2.8-.9-2.3.2-2.6 0-1.5-.8 1.3-.8 1.3-1-.2-1-1.1 0-1.8.8-1.8 1.9zM645 673.8c0 1.2 1.9 2.6 2.6 1.9.2-.2-.2-1-1.1-1.7-.9-.8-1.5-.8-1.5-.2zM759 673.9c-1.7.5-2.1.9-1.3 1.4 1.2.7 5.3-.7 5.3-1.8 0-.6-.7-.5-4 .4zM653.1 676.6c0 1.1.3 1.4.6.6.3-.7.2-1.6-.1-1.9-.3-.4-.6.2-.5 1.3zM663 677.2c0 .6.3.8.7.4.4-.3 1.2.6 1.9 2.1 1.3 2.9 2 1 .8-2.1-.7-1.8-3.4-2.2-3.4-.4zM658 679c0 .6.7 1 1.5 1s1.5-.2 1.5-.4-.7-.6-1.5-1c-.8-.3-1.5-.1-1.5.4zM660.6 681.9c-1.9.7-1.9.8.1 1.3 1.4.4 2.4 0 2.7-.8.6-1.5.1-1.6-2.8-.5zM764.7 681.7c-1 .9-.9 2.3.1 2.3.5 0 .9-.7.9-1.5 0-1.7-.1-1.8-1-.8zM641.5 685.3c-.4 1-.5 2.1-.1 2.4 1 1 1.8-.4 1.3-2.4-.4-1.7-.4-1.7-1.2 0zM651.5 686.5c.4 1.6 1 3.4 1.5 3.9 1.1 1.1.7-1.1-.9-4.4-1.1-2.4-1.1-2.4-.6.5zM757 686.5c-.7.9-.8 1.5-.2 1.5.5 0 1.2-.7 1.6-1.5.3-.8.4-1.5.2-1.5s-.9.7-1.6 1.5zM649 687.9c0 .6.4 1.3 1 1.6.6.3.7-.1.4-.9-.7-1.8-1.4-2.1-1.4-.7zM656.1 688.6c0 1.1.3 1.4.6.6.3-.7.2-1.6-.1-1.9-.3-.4-.6.2-.5 1.3zM662.7 692.5c-.4.8-.2 1.7.3 2 .6.4 1-.3 1-1.4 0-2.5-.6-2.7-1.3-.6zM630.5 696c.3.5.8 1 1.1 1 .2 0 .4-.5.4-1 0-.6-.5-1-1.1-1-.5 0-.7.4-.4 1zM582 701.4c0 1.3 6.8 2.9 8 1.9.9-.8-2.6-2.2-4.2-1.7-1 .3-1.8.1-1.8-.5s-.4-1.1-1-1.1c-.5 0-1 .6-1 1.4zM578.8 701.7c.7.3 1.6.2 1.9-.1.4-.3-.2-.6-1.3-.5-1.1 0-1.4.3-.6.6zM643.6 704.3c.3 1 .9 1.5 1.2 1.2.3-.3 0-1.1-.7-1.8-1-.9-1.1-.8-.5.6zM769.1 705.6c0 1.1.3 1.4.6.6.3-.7.2-1.6-.1-1.9-.3-.4-.6.2-.5 1.3zM582.6 705.9c-.4.7-.5 1.5-.2 1.8.9.9 1.9-.4 1.4-1.8-.4-1.1-.6-1.1-1.2 0zM648 708.5c0 .7 1.1 1.5 2.5 1.7 3.2.7 3.2-.4 0-1.9-2-.9-2.5-.8-2.5.2zM654.6 709.5c-.3.8-.1 1.5.4 1.5.6 0 1-.7 1-1.5s-.2-1.5-.4-1.5-.6.7-1 1.5zM750 710.1c0 .5.5.7 1 .4.6-.3 1-.8 1-1.1 0-.2-.4-.4-1-.4-.5 0-1 .5-1 1.1zM657 711.1c0 .5.5.7 1 .4.6-.3 1-.8 1-1.1 0-.2-.4-.4-1-.4-.5 0-1 .5-1 1.1zM753 722.1c0 .5.4.8.9.5.5-.4 1.2 0 1.4.6.3.8.6.6.6-.5.1-.9-.6-1.7-1.4-1.7-.8 0-1.5.5-1.5 1.1zM758 722c0 .5.5 1 1.1 1 .5 0 .7-.5.4-1-.3-.6-.8-1-1.1-1-.2 0-.4.4-.4 1zM568.7 724c.3 1.1.9 1.7 1.4 1.4 1.4-.8 1-3.4-.5-3.4-.9 0-1.2.7-.9 2zM572 724.5c0 .8.2 1.5.4 1.5s.6-.7 1-1.5c.3-.8.1-1.5-.4-1.5-.6 0-1 .7-1 1.5zM574.6 725.5c-.3.9 0 1.5.9 1.5s1.2-.6.9-1.5c-.4-.8-.7-1.5-.9-1.5-.2 0-.5.7-.9 1.5zM594.2 726c1.4 2.2 2.4 1.9 1.5-.5-.4-.8-1.1-1.5-1.7-1.5-.6 0-.6.7.2 2zM591.4 727.6c.3.9.6 1.8.6 2 0 .2.4.4.9.4s.7-.9.4-2c-.3-1.1-1-2-1.5-2-.6 0-.7.7-.4 1.6zM769 728c-1.3.8-1.2 1 .3 1 .9 0 1.7-.5 1.7-1 0-1.2-.1-1.2-2 0zM573.6 730.5c.4.8.8 1.5 1 1.5.2 0 .4-.7.4-1.5s-.4-1.5-1-1.5c-.5 0-.7.7-.4 1.5zM583.3 730.1c1.4.8 2.2.8 3 0 .8-.8.3-1.1-1.8-1.1-2.6.1-2.8.2-1.2 1.1zM587.9 730c-.1.5-.2 1.6-.3 2.2-.1.7-.7 1.2-1.4 1-.7-.1-1.2.2-1.2.8 0 1.2 1.1 1.3 2.6.2 1.4-.9 2.5-5.2 1.3-5.2-.5 0-1 .4-1 1zM579 731.2c0 .9.5 2 1 2.3 1.3.8 1.3-.5 0-2.5-.8-1.3-1-1.3-1 .2zM596.1 731.6c0 1.1.3 1.4.6.6.3-.7.2-1.6-.1-1.9-.3-.4-.6.2-.5 1.3zM570.5 733c-.4 1.2-.4 2.4-.1 2.7.3.4.6.1.6-.6 0-.8.6-1.1 1.6-.7 1.5.6 1.5.4.3-1.1-.7-1-1.4-1.9-1.5-2.1-.1-.2-.5.6-.9 1.8zM581.8 735.7c.7.3 1.6.2 1.9-.1.4-.3-.2-.6-1.3-.5-1.1 0-1.4.3-.6.6zM589 737c0 .5.5 1 1.1 1 .5 0 .7-.5.4-1-.3-.6-.8-1-1.1-1-.2 0-.4.4-.4 1zM577.2 739.5c0 1.6.2 2.2.5 1.2.2-.9.2-2.3 0-3-.3-.6-.5.1-.5 1.8zM581 738.7c0 .5.5 1.5 1 2.3.8 1.2 1 1.1 1-.8 0-1.2-.4-2.2-1-2.2-.5 0-1 .3-1 .7zM562.9 739.5c-.1.3-.2.8-.3 1.2-.1.5-.5 1.4-.9 2-.5.7-.4 1.3.2 1.3.5 0 .8.9.6 2.1-.2 1.2.2 2.8 1 3.6 1.3 1.2 1.4 1 .9-1.6-.6-2.7-.4-2.9 1.7-2.4l2.3.6-2.2-2.3c-2.5-2.7-2.7-3.6-.9-4.3.7-.3.5-.6-.5-.6-1-.1-1.9.1-1.9.4zM750 740.7c0 1.7 1.9 3.7 3.9 4.1 1.2.3 1.2 0 .1-1.2-.8-1.1-.9-1.6-.1-1.6.6 0 1.1-.5 1.1-1.1 0-.5-.4-.7-1-.4-.5.3-1 .2-1-.3s-.7-.9-1.5-.9-1.5.7-1.5 1.4zM779.1 740.6c0 1.1.3 1.4.6.6.3-.7.2-1.6-.1-1.9-.3-.4-.6.2-.5 1.3zM572.1 742.6c0 1.1.3 1.4.6.6.3-.7.2-1.6-.1-1.9-.3-.4-.6.2-.5 1.3zM756.5 743c-.3.5-.1 1 .4 1 .6 0 1.1-.5 1.1-1 0-.6-.2-1-.4-1-.3 0-.8.4-1.1 1zM585 745.4c0 .9.5 1.6 1 1.6.6 0 1-.4 1-.9 0-.6-.4-1.3-1-1.6-.5-.3-1 .1-1 .9zM777.4 746.5c.3.8.9 2.2 1.2 3 .4.9-.1 1.8-1.2 2.2-3 1.1-4.3 2.8-3.3 4.4 1.1 1.8 1.2 4.2 0 3.5-.5-.4-.4.8.2 2.5 1 2.6.9 3.2-.6 4.4-1.6 1.2-1.6 1.4-.2 2.9.9.9 1.3 2 1 2.6-.9 1.4-3.5 1.3-3.5-.2 0-.6-.3-.8-.7-.4-.5.4.1 1.4 1.1 2.2 1.8 1.3 1.8 1.4-.5 2.3-2.2.8-2.2 1-.6 1.6 1.5.6 1.6 1 .5 1.6-.8.5.7.9 4 .9h5.2v-17.5c0-15.4-.2-17.5-1.6-17.5-1 0-1.4.5-1 1.5zm.6 9.5c0 .5-.5 1-1.1 1-.5 0-.7-.5-.4-1 .3-.6.8-1 1.1-1 .2 0 .4.4.4 1z"/><path d="M566 748.5c.7.9 1.5 1.3 1.7 1.1.7-.7-.7-2.6-1.9-2.6-.6 0-.6.6.2 1.5zM576.9 747.6c.6.3.7 1.2.4 2-.3.8 0 1.4.7 1.4 1.5 0 .9-3.3-.8-3.6-.7-.1-.8 0-.3.2zM772 748.7c0 .8.4 1.2.9.8.5-.3 1.2-.1 1.6.5.3.5 1.3 1 2.2 1 1.8 0 .8-1.5-1-1.5-.7-.1-1.1-.6-1-1.1.1-.6-.5-1.1-1.3-1.1-.7 0-1.4.7-1.4 1.4zM555.3 748.7c1.1.3 1.7 1.4 1.7 3.5 0 2.3.4 2.9 1.6 2.4 1.2-.4 1.4-.1.9 1.4-.4 1.2-.2 2 .5 2 .6 0 .8-.5.4-1.1-.5-.8.6-1 3.3-.8 2.4.3 4.5-.1 5.2-.8 1.3-1.5 1.5-2.6.2-1.8-.5.3-1.2.1-1.5-.4-.4-.6-1.8-.6-3.6-.1-2.3.7-3 .5-3-.6 0-.8-.7-1.4-1.5-1.4s-1.5-.7-1.5-1.5c0-.9-.9-1.5-2.2-1.4-1.7.1-1.9.2-.5.6zM569 749.9c-.7 1.5-.7 2.1 0 2.1 1.2 0 2.5-2.8 1.7-3.6-.3-.3-1 .4-1.7 1.5zM571.6 750.6c-.4.9-.4 1.9-.1 2.2.3.3.5 0 .5-.7 0-.9.5-.9 2.1 0 1.5.8 2 1.8 1.6 3.5-.2 1.3 0 2.1.5 1.8.5-.3 2 .2 3.4 1.1 1.4.9 3.1 1.4 3.7 1.1.7-.2.4-.5-.5-.5-1.8-.1-2.6-2.1-1-2.1.5 0 .9-.7.9-1.5 0-1.7-2.3-2-3.2-.5-1 1.6-2.5 1.1-2.5-.8 0-1.7-2.8-5.2-4.2-5.2-.3 0-.9.7-1.2 1.6zM580 749.9c0 1 1.9 2.5 2.5 2 .1-.2-.3-1-1.1-1.7s-1.4-.8-1.4-.3zM758 750c0 .5.4 1 .9 1 .6 0 1.3-.5 1.6-1 .3-.6-.1-1-.9-1-.9 0-1.6.4-1.6 1zM587 753.5c0 .8.5 1.5 1.1 1.5.5 0 .7-.5.4-1-.3-.6-.1-1 .4-1 .6 0 1.1.7 1.1 1.5s.4 1.5.8 1.5.8-.9.8-2c0-1.4-.7-2-2.3-2-1.4 0-2.3.6-2.3 1.5z"/><path d="M571 755.5c0 .8-.5 1.4-1.1 1.2-.6-.1-1.4.4-1.6 1-.3.7 0 1.3.6 1.3s1.1.4 1.1 1c0 .5-.7 1-1.5 1s-1.5.7-1.5 1.6c0 1-.6 1.4-1.4 1.1-1.2-.5-1.3-.1-.4 2.4.5 1.6 1.4 3.2 1.9 3.5 1.3.8 1.1-2-.3-3.4-.9-.9-.8-1.2.5-1.2 1.1 0 1.4-.5 1-1.7-.5-1.3-.2-1.5 1.1-1 1 .4 2 .7 2.2.7.3 0 .2.5-.1 1-.9 1.5 4.5 3.4 5.9 2 .7-.7.6-1.4-.3-2.2-1.1-1-1.4-1.1-1.8-.1-.6 1.8-2.3 1.6-2.3-.2 0-.8-.4-1.5-.9-1.5s-1.1-.9-1.4-2c-.3-1.3 0-2 1-2s1.3-.6.9-1.6c-.5-1.2-.2-1.5.9-1 .9.3 1.3.2 1-.4-1-1.5-3.5-1.2-3.5.5zM564 758.9c0 1.2.5 2.1 1 2.1.6 0 1-.6 1-1.4 0-.8-.4-1.8-1-2.1-.5-.3-1 .3-1 1.4zM751.1 758.6c0 1.1.3 1.4.6.6.3-.7.2-1.6-.1-1.9-.3-.4-.6.2-.5 1.3z"/><path d="M576 761c0 .5.7.7 1.5.4.8-.4 1.5-.8 1.5-1 0-.2-.7-.4-1.5-.4s-1.5.4-1.5 1zM586.6 762.6c.2 2-.1 2.4-1.3 2-1.3-.5-1.4-.4-.3.9.7.8 1.6 1.2 2.1.9.5-.3.9.1.9.9s.9 2.4 2 3.7c1.4 1.6 1.7 2.7 1 3.4-.5.5-1 2-1 3.3 0 1.8.6 2.3 2.5 2.3 2.3 0 2.5-.3 1.9-2.8-.4-1.5-1.2-3.3-1.8-4.1-.9-1.2-.5-1.3 2.7-.8 2 .3 3.7.3 3.8-.1 0-.4.2-2.4.5-4.5.3-2 0-3.7-.5-3.7s-.9.6-.8 1.2c.1 3.3-.4 4.9-1.4 4.3-.6-.4-.8-1.3-.5-2.1.3-.8-.1-1.4-.8-1.4-1 0-1.2.7-.8 2.2.3 1.4.1 1.9-.6 1.4-.6-.3-1.4-2.7-1.8-5.1-.3-2.5-1-4.5-1.4-4.5-.4 0-.5 1.2-.2 2.6.4 2 .1 2.5-.9 2.2-.8-.3-1.5-1.4-1.7-2.6-.5-3.1-2-2.7-1.6.4zm4.9 4.4c.3.5.1 1-.4 1-.6 0-1.1-.5-1.1-1 0-.6.2-1 .4-1 .3 0 .8.4 1.1 1zm1.5 9.5c0 1.4-.4 2.5-1 2.5-1.1 0-1.4-3.3-.3-4.3 1.1-1.1 1.3-.8 1.3 1.8zM559.8 762.8c-.4 1.6-.1 2.5 1.2 3.2 2.6 1.4 3.8 1.2 1.9-.3-.9-.7-1.8-2.1-2.1-3.2-.4-1.9-.4-1.8-1 .3z"/><path d="M582.6 762.5c-.3.8-1.2 1.5-2 1.5-1.4 0-2.6 2.1-2.6 4.6 0 1.2.5 1.2 3.1-.1 2.4-1.3 2.8-1.9 1.9-3-.8-1-.7-1.6.6-2.3 1-.5 1.2-1.2.6-1.6-.5-.3-1.2.1-1.6.9zM595 764c0 .5.5 1 1.1 1 .5 0 .7-.5.4-1-.3-.6-.8-1-1.1-1-.2 0-.4.4-.4 1z"/><path d="M569.4 767.4c-.3.8-.3 2 .1 2.6.4.6-.1 2-1 3-1.1 1.2-1.3 2-.6 2.5.6.3 1.1-.1 1.1-.9 0-2.2 2.6-2 4.9.3 1.1 1.1 2.2 1.7 2.5 1.3.3-.3.6 0 .6.6 0 .7.5 1.2 1 1.2.6 0 1-.9 1-2s.5-2 1.1-2c.6 0 .9.7.5 1.5-1.4 3.8 1.9 5.8 4.8 2.9 1.5-1.4 1.6-1.4 1.7.3 0 1.6.1 1.6.9-.2.5-1.3.3-2.4-.6-3.1-.8-.6-1.4-1.7-1.5-2.5 0-.8-.4-.6-.8.5-.7 1.9-.8 1.9-3-.3-1.6-1.6-2.6-1.9-3.9-1.2-1.2.7-2.2.5-3.4-.6-1.1-1-1.8-1.2-1.8-.5s-.5 1.2-1.1 1.2c-.5 0-.8-.4-.4-.9.3-.5 0-1.3-.6-1.7-.8-.5-.8-.9.1-1.4.9-.5.9-.9.1-1.4-.6-.4-1.4 0-1.7.8z"/><path d="M573 767.8c0 .5.7 1.3 1.6 1.6 1 .4 1.4.1 1.2-.6-.5-1.5-2.8-2.3-2.8-1zM560.8 768.7c.6.2 1.8.2 2.5 0 .6-.3.1-.5-1.3-.5-1.4 0-1.9.2-1.2.5zM585.1 769.6c0 1.1.3 1.4.6.6.3-.7.2-1.6-.1-1.9-.3-.4-.6.2-.5 1.3zM581.6 770.2c.3.5 1 .6 1.5.3 1.3-.9 1.1-1.2-.6-1.2-.8 0-1.2.4-.9.9zM750 771.7c0 1.5.6 2.3 1.8 2.4 1 0 1.2.3.5.6-.7.2-1.3 1.1-1.3 1.8s-.6 1.5-1.2 1.8c-2.3.8-.4 1.5 2.5 1 1.5-.3 2.7-1 2.7-1.5s-.4-.7-.9-.3c-.5.3-1.2.1-1.5-.4-.4-.5 0-1.1.8-1.3 1.1-.2.9-1-1-3.3-2.3-2.8-2.4-2.9-2.4-.8zM555.6 773.7c.5.5 1.2 1.2 1.5 1.6.3.5.9.2 1.2-.7.5-1.2 0-1.6-1.5-1.6-1.2 0-1.7.3-1.2.7zM562.5 774c-.3.5.1 1.3 1 1.6 2.2.9 2.9-.1 1.1-1.5-1-.8-1.6-.9-2.1-.1zM587.8 773.7c.7.3 1.6.2 1.9-.1.4-.3-.2-.6-1.3-.5-1.1 0-1.4.3-.6.6zM548.7 776.7c-1.4.4-1.6.8-.6 1.9 1.4 1.7 3.3 1.9 2.3.3-.3-.6 0-1.5.7-2 1.5-.9.6-1-2.4-.2zM559.8 776.7c.7.3 1.6.2 1.9-.1.4-.3-.2-.6-1.3-.5-1.1 0-1.4.3-.6.6zM556 778c0 .5.5 1 1.1 1 .5 0 .7-.5.4-1-.3-.6-.8-1-1.1-1-.2 0-.4.4-.4 1zM570.2 778.1c.5 1.7 4.8 2.5 4.8 1 0-.6-.4-1.1-.9-1.1s-1.7-.3-2.7-.7c-1.2-.4-1.5-.2-1.2.8zM622 779c0 .5.5 1 1 1 .6 0 1-.5 1-1 0-.6-.4-1-1-1-.5 0-1 .4-1 1z"/></svg>